0
SECTION
2
HEADER
9
$INSUNITS
70
4
9
$ACADVER
1
AC1014
9
$HANDSEED
5
FFFF
0
ENDSEC
0
SECTION
2
TABLES
0
TABLE
2
VPORT
5
8
100
AcDbSymbolTable
0
ENDTAB
0
TABLE
2
LTYPE
5
5
100
AcDbSymbolTable
70
2
0
LTYPE
5
14
100
AcDbSymbolTableRecord
100
AcDbLinetypeTableRecord
2
BYBLOCK
70
0
0
LTYPE
5
15
100
AcDbSymbolTableRecord
100
AcDbLinetypeTableRecord
2
BYLAYER
70
0
0
ENDTAB
0
TABLE
2
LAYER
5
2
100
AcDbSymbolTable
70
3
0
LAYER
5
50
100
AcDbSymbolTableRecord
100
AcDbLayerTableRecord
2
0
70
0
6
CONTINUOUS
0
LAYER
5
51
100
AcDbSymbolTableRecord
100
AcDbLayerTableRecord
2
CUTOUTS
70
0
62
1
6
CONTINUOUS
0
LAYER
5
52
100
AcDbSymbolTableRecord
100
AcDbLayerTableRecord
2
PERIMETER
70
0
62
5
6
CONTINUOUS
0
ENDTAB
0
TABLE
2
STYLE
5
3
100
AcDbSymbolTable
70
1
0
STYLE
5
11
100
AcDbSymbolTableRecord
100
AcDbTextStyleTableRecord
2
STANDARD
70
0
0
ENDTAB
0
TABLE
2
VIEW
5
6
100
AcDbSymbolTable
0
ENDTAB
0
TABLE
2
UCS
5
7
100
AcDbSymbolTable
0
ENDTAB
0
TABLE
2
APPID
5
9
100
AcDbSymbolTable
70
1
0
APPID
5
12
100
AcDbSymbolTableRecord
100
AcDbRegAppTableRecord
2
ACAD
70
0
0
ENDTAB
0
TABLE
2
DIMSTYLE
5
A
100
AcDbSymbolTable
0
ENDTAB
0
TABLE
2
BLOCK_RECORD
5
1
100
AcDbSymbolTable
70
2
0
BLOCK_RECORD
5
1F
100
AcDbSymbolTableRecord
100
AcDbBlockTableRecord
2
*MODEL_SPACE
0
BLOCK_RECORD
5
1B
100
AcDbSymbolTableRecord
100
AcDbBlockTableRecord
2
*PAPER_SPACE
0
ENDTAB
0
ENDSEC
0
SECTION
2
BLOCKS
0
BLOCK
5
20
100
AcDbEntity
100
AcDbBlockBegin
2
*MODEL_SPACE
0
ENDBLK
5
21
100
AcDbEntity
100
AcDbBlockEnd
0
BLOCK
5
1C
100
AcDbEntity
100
AcDbBlockBegin
2
*PAPER_SPACE
0
ENDBLK
5
1D
100
AcDbEntity
100
AcDbBlockEnd
0
ENDSEC
0
SECTION
2
ENTITIES
0
LINE
5
100
100
AcDbEntity
8
CUTOUTS
100
AcDbLine
10
-155.28370757157623
20
-13.294538534882943
30
0
11
-154.86158021709747
21
44.803927955176938
31
0
0
LINE
5
101
100
AcDbEntity
8
CUTOUTS
100
AcDbLine
10
-154.86158021709747
20
44.803927955176938
30
0
11
-148.96173594358021
21
44.761061321933738
31
0
0
LINE
5
102
100
AcDbEntity
8
CUTOUTS
100
AcDbLine
10
-148.96173594358021
20
44.761061321933738
30
0
11
-149.38386329805883
21
-13.337405168126226
31
0
0
LINE
5
103
100
AcDbEntity
8
CUTOUTS
100
AcDbLine
10
-149.38386329805883
20
-13.337405168126226
30
0
11
-155.2837075715762
21
-13.294538534882943
31
0
0
LINE
5
104
100
AcDbEntity
8
CUTOUTS
100
AcDbLine
10
-134.45003188702131
20
44.56736820577693
30
0
11
-135.37449972179061
21
-13.525276416605996
31
0
0
LINE
5
105
100
AcDbEntity
8
CUTOUTS
100
AcDbLine
10
-135.37449972179064
20
-13.525276416605996
30
0
11
-141.27375279015735
21
-13.431397583126765
31
0
0
LINE
5
106
100
AcDbEntity
8
CUTOUTS
100
AcDbLine
10
-141.27375279015735
20
-13.431397583126765
30
0
11
-140.34928495538711
21
44.66124703925616
31
0
0
LINE
5
107
100
AcDbEntity
8
CUTOUTS
100
AcDbLine
10
-140.34928495538711
20
44.66124703925616
30
0
11
-134.45003188702131
21
44.567368205776944
31
0
0
LINE
5
108
100
AcDbEntity
8
CUTOUTS
100
AcDbLine
10
-127.26550430635945
20
-13.689390384440863
30
0
11
-125.83876614571003
21
44.393089058339008
31
0
0
LINE
5
109
100
AcDbEntity
8
CUTOUTS
100
AcDbLine
10
-125.83876614571
20
44.393089058339008
30
0
11
-119.94054534170988
21
44.248205148737881
31
0
0
LINE
5
10A
100
AcDbEntity
8
CUTOUTS
100
AcDbLine
10
-119.94054534170991
20
44.248205148737881
30
0
11
-121.36728350235876
21
-13.834274294041995
31
0
0
LINE
5
10B
100
AcDbEntity
8
CUTOUTS
100
AcDbLine
10
-121.36728350235876
20
-13.834274294041995
30
0
11
-127.26550430635945
21
-13.689390384440863
31
0
0
LINE
5
10C
100
AcDbEntity
8
CUTOUTS
100
AcDbLine
10
-111.33110842725964
20
43.999474114713131
30
0
11
-105.43436087061505
21
43.803595955623791
31
0
0
LINE
5
10D
100
AcDbEntity
8
CUTOUTS
100
AcDbLine
10
-105.43436087061505
20
43.803595955623791
30
0
11
-107.36326274232617
21
-14.264375746247326
31
0
0
LINE
5
10E
100
AcDbEntity
8
CUTOUTS
100
AcDbLine
10
-107.36326274232617
20
-14.264375746247326
30
0
11
-113.26001029897128
21
-14.068497587157989
31
0
0
LINE
5
10F
100
AcDbEntity
8
CUTOUTS
100
AcDbLine
10
-113.26001029897127
20
-14.068497587157989
30
0
11
-111.33110842725964
21
43.999474114713131
31
0
0
LINE
5
110
100
AcDbEntity
8
CUTOUTS
100
AcDbLine
10
-90.932562744763374
20
43.233573788778024
30
0
11
-93.363485476748238
21
-14.81554863930965
31
0
0
LINE
5
111
100
AcDbEntity
8
CUTOUTS
100
AcDbLine
10
-93.363485476748238
20
-14.81554863930965
30
0
11
-99.258318907484977
21
-14.568690737094352
31
0
0
LINE
5
112
100
AcDbEntity
8
CUTOUTS
100
AcDbLine
10
-99.258318907484977
20
-14.568690737094352
30
0
11
-96.827396175498734
21
43.480431690993299
31
0
0
LINE
5
113
100
AcDbEntity
8
CUTOUTS
100
AcDbLine
10
-96.82739617549872
20
43.480431690993299
30
0
11
-90.932562744763374
21
43.233573788778024
31
0
0
LINE
5
114
100
AcDbEntity
8
CUTOUTS
100
AcDbLine
10
-85.261474570921195
20
-15.189932689344712
30
0
11
-82.328714473950555
21
42.836000463113997
31
0
0
LINE
5
115
100
AcDbEntity
8
CUTOUTS
100
AcDbLine
10
-82.328714473950555
20
42.836000463113997
30
0
11
-76.436235892203285
21
42.538181451545995
31
0
0
LINE
5
116
100
AcDbEntity
8
CUTOUTS
100
AcDbLine
10
-76.436235892203285
20
42.538181451545995
30
0
11
-79.368995989170543
21
-15.487751700912913
31
0
0
LINE
5
117
100
AcDbEntity
8
CUTOUTS
100
AcDbLine
10
-79.368995989170543
20
-15.487751700912913
30
0
11
-85.261474570921195
21
-15.189932689344712
31
0
0
LINE
5
118
100
AcDbEntity
8
CUTOUTS
100
AcDbLine
10
-71.270525722282372
20
-15.932176787429437
30
0
11
-67.836146748986366
21
42.066228717099264
31
0
0
LINE
5
119
100
AcDbEntity
8
CUTOUTS
100
AcDbLine
10
-67.836146748986366
20
42.066228717099264
30
0
11
-61.946463573827444
21
41.717470783494832
31
0
0
LINE
5
11A
100
AcDbEntity
8
CUTOUTS
100
AcDbLine
10
-61.946463573827444
20
41.717470783494832
30
0
11
-65.380842547122654
21
-16.280934721033915
31
0
0
LINE
5
11B
100
AcDbEntity
8
CUTOUTS
100
AcDbLine
10
-65.380842547122654
20
-16.280934721033915
30
0
11
-71.270525722282372
21
-15.932176787429437
31
0
0
LINE
5
11C
100
AcDbEntity
8
CUTOUTS
100
AcDbLine
10
-57.286518383143644
20
-16.79536752377998
30
0
11
-53.35077654980735
21
41.171173999942077
31
0
0
LINE
5
11D
100
AcDbEntity
8
CUTOUTS
100
AcDbLine
10
-53.35077654980735
20
41.171173999942077
30
0
11
-47.464329131736122
21
40.771503142511456
31
0
0
LINE
5
11E
100
AcDbEntity
8
CUTOUTS
100
AcDbLine
10
-47.464329131736122
20
40.771503142511456
30
0
11
-51.400070965071777
21
-17.195038381209955
31
0
0
LINE
5
11F
100
AcDbEntity
8
CUTOUTS
100
AcDbLine
10
-51.400070965071777
20
-17.195038381209955
30
0
11
-57.286518383143644
21
-16.79536752377998
31
0
0
LINE
5
120
100
AcDbEntity
8
CUTOUTS
100
AcDbLine
10
-32.990915933449294
20
39.70034943530267
30
0
11
-37.427724399451122
21
-18.229994346139314
31
0
0
LINE
5
121
100
AcDbEntity
8
CUTOUTS
100
AcDbLine
10
-37.427724399451122
20
-18.229994346139318
30
0
11
-43.310495971065777
21
-17.779440646492624
31
0
0
LINE
5
122
100
AcDbEntity
8
CUTOUTS
100
AcDbLine
10
-43.310495971065777
20
-17.779440646492624
30
0
11
-38.8736875050582
21
40.150903134947953
31
0
0
LINE
5
123
100
AcDbEntity
8
CUTOUTS
100
AcDbLine
10
-38.8736875050582
20
40.150903134947953
30
0
11
-32.990915933449294
21
39.70034943530267
31
0
0
LINE
5
124
100
AcDbEntity
8
CUTOUTS
100
AcDbLine
10
-24.405961211061573
20
39.005492523777995
30
0
11
-18.527305325162153
21
38.504089517018201
31
0
0
LINE
5
125
100
AcDbEntity
8
CUTOUTS
100
AcDbLine
10
-18.527305325162153
20
38.504089517018201
30
0
11
-23.464850188340343
21
-19.385725223781051
31
0
0
LINE
5
126
100
AcDbEntity
8
CUTOUTS
100
AcDbLine
10
-23.464850188340343
20
-19.385725223781051
30
0
11
-29.343506074243244
21
-18.88432221702142
31
0
0
LINE
5
127
100
AcDbEntity
8
CUTOUTS
100
AcDbLine
10
-29.343506074243244
20
-18.88432221702142
30
0
11
-24.405961211061573
21
39.005492523777995
31
0
0
LINE
5
128
100
AcDbEntity
8
CUTOUTS
100
AcDbLine
10
-9.9486796594824867
20
37.735027755544941
30
0
11
-4.0745789820615741
21
37.1828129137307
31
0
0
LINE
5
129
100
AcDbEntity
8
CUTOUTS
100
AcDbLine
10
-4.0745789820615741
20
37.1828129137307
30
0
11
-9.5124912378901527
21
-20.662144604603249
31
0
0
LINE
5
12A
100
AcDbEntity
8
CUTOUTS
100
AcDbLine
10
-9.5124912378901527
20
-20.662144604603256
30
0
11
-15.386591915321475
21
-20.109929762788461
31
0
0
LINE
5
12B
100
AcDbEntity
8
CUTOUTS
100
AcDbLine
10
-15.386591915321475
20
-20.109929762788461
30
0
11
-9.9486796594824867
21
37.735027755544941
31
0
0
LINE
5
12C
100
AcDbEntity
8
CUTOUTS
100
AcDbLine
10
-1.440796694405897
20
-21.456171697517227
30
0
11
4.4970761557940975
21
36.339603805669881
31
0
0
LINE
5
12D
100
AcDbEntity
8
CUTOUTS
100
AcDbLine
10
4.4970761557940975
20
36.339603805669881
30
0
11
10.366182446134324
21
35.736618438782948
31
0
0
LINE
5
12E
100
AcDbEntity
8
CUTOUTS
100
AcDbLine
10
10.366182446134324
20
35.736618438782948
30
0
11
4.4283095959427854
21
-22.05915706440484
31
0
0
LINE
5
12F
100
AcDbEntity
8
CUTOUTS
100
AcDbLine
10
4.4283095959427854
20
-22.05915706440484
30
0
11
-1.440796694405897
21
-21.456171697517227
31
0
0
LINE
5
130
100
AcDbEntity
8
CUTOUTS
100
AcDbLine
10
24.793899017910555
20
34.165614312942523
30
0
11
18.356510991109865
21
-23.576658203753663
31
0
0
LINE
5
131
100
AcDbEntity
8
CUTOUTS
100
AcDbLine
10
18.356510991109865
20
-23.576658203753659
30
0
11
12.492837878389089
21
-22.922947543543604
31
0
0
LINE
5
132
100
AcDbEntity
8
CUTOUTS
100
AcDbLine
10
12.492837878389089
20
-22.922947543543604
30
0
11
18.930225905199585
21
34.819324973151666
31
0
0
LINE
5
133
100
AcDbEntity
8
CUTOUTS
100
AcDbLine
10
18.930225905199585
20
34.819324973151666
30
0
11
24.793899017910555
21
34.165614312942523
31
0
0
LINE
5
134
100
AcDbEntity
8
CUTOUTS
100
AcDbLine
10
39.207492776076371
20
32.46991774009804
30
0
11
32.271068975026544
21
-25.214534453298288
31
0
0
LINE
5
135
100
AcDbEntity
8
CUTOUTS
100
AcDbLine
10
32.271068975026544
20
-25.214534453298285
30
0
11
26.413267461409085
21
-24.51014718262341
31
0
0
LINE
5
136
100
AcDbEntity
8
CUTOUTS
100
AcDbLine
10
26.413267461409085
20
-24.51014718262341
30
0
11
33.349691262461221
21
33.174305010772791
31
0
0
LINE
5
137
100
AcDbEntity
8
CUTOUTS
100
AcDbLine
10
33.349691262461221
20
33.174305010772784
30
0
11
39.207492776076371
21
32.46991774009804
31
0
0
LINE
5
138
100
AcDbEntity
8
CUTOUTS
100
AcDbLine
10
40.31945394855228
20
-26.217652430204037
30
0
11
47.754393349517521
21
31.404666822876823
31
0
0
LINE
5
139
100
AcDbEntity
8
CUTOUTS
100
AcDbLine
10
47.754393349517521
20
31.404666822876823
30
0
11
53.605885321861457
21
30.649655764948239
31
0
0
LINE
5
13A
100
AcDbEntity
8
CUTOUTS
100
AcDbLine
10
53.605885321861457
20
30.649655764948239
30
0
11
46.170945920907727
21
-26.972663488134017
31
0
0
LINE
5
13B
100
AcDbEntity
8
CUTOUTS
100
AcDbLine
10
46.170945920907727
20
-26.972663488134021
30
0
11
40.31945394855228
21
-26.217652430204037
31
0
0
LINE
5
13C
100
AcDbEntity
8
CUTOUTS
100
AcDbLine
10
67.988000537023964
20
28.704964346307584
30
0
11
60.055101232000752
21
-28.850913794995343
31
0
0
LINE
5
13D
100
AcDbEntity
8
CUTOUTS
100
AcDbLine
10
60.055101232000752
20
-28.850913794995343
30
0
11
54.21035629165651
21
-28.045335380197109
31
0
0
LINE
5
13E
100
AcDbEntity
8
CUTOUTS
100
AcDbLine
10
54.21035629165651
20
-28.045335380197109
30
0
11
62.143255596685627
21
29.510542761103544
31
0
0
LINE
5
13F
100
AcDbEntity
8
CUTOUTS
100
AcDbLine
10
62.143255596685627
20
29.510542761103544
30
0
11
67.988000537023964
21
28.704964346307584
31
0
0
LINE
5
140
100
AcDbEntity
8
CUTOUTS
100
AcDbLine
10
76.515202449609319
20
27.492074457644957
30
0
11
82.352763356023004
21
26.635988793801758
31
0
0
LINE
5
141
100
AcDbEntity
8
CUTOUTS
100
AcDbLine
10
82.352763356023004
20
26.635988793801751
30
0
11
73.922496056161435
21
-30.849144877895284
31
0
0
LINE
5
142
100
AcDbEntity
8
CUTOUTS
100
AcDbLine
10
73.922496056161435
20
-30.849144877895284
30
0
11
68.084935149747878
21
-29.993059214052149
31
0
0
LINE
5
143
100
AcDbEntity
8
CUTOUTS
100
AcDbLine
10
68.084935149747878
20
-29.993059214052149
30
0
11
76.515202449609319
21
27.492074457644957
31
0
0
LINE
5
144
100
AcDbEntity
8
CUTOUTS
100
AcDbLine
10
81.942154520049613
20
-32.060678582849953
30
0
11
90.869158978000968
21
25.349412789727097
31
0
0
LINE
5
145
100
AcDbEntity
8
CUTOUTS
100
AcDbLine
10
90.869158978000968
20
25.349412789727097
30
0
11
96.699099409983688
21
24.442883937715152
31
0
0
LINE
5
146
100
AcDbEntity
8
CUTOUTS
100
AcDbLine
10
96.699099409983688
20
24.442883937715152
30
0
11
87.772094952028681
21
-32.967207434862175
31
0
0
LINE
5
147
100
AcDbEntity
8
CUTOUTS
100
AcDbLine
10
87.772094952028681
20
-32.967207434862175
30
0
11
81.942154520049613
21
-32.060678582849953
31
0
0
LINE
5
148
100
AcDbEntity
8
CUTOUTS
100
AcDbLine
10
111.02593621489206
20
22.125813698859737
30
0
11
101.60286199386672
21
-35.20494307466474
31
0
0
LINE
5
149
100
AcDbEntity
8
CUTOUTS
100
AcDbLine
10
101.60286199386672
20
-35.20494307466474
30
0
11
95.78097791530314
21
-34.248038807811582
31
0
0
LINE
5
14A
100
AcDbEntity
8
CUTOUTS
100
AcDbLine
10
95.78097791530314
20
-34.248038807811582
30
0
11
105.20405213634018
21
23.082717965711204
31
0
0
LINE
5
14B
100
AcDbEntity
8
CUTOUTS
100
AcDbLine
10
105.20405213634018
20
23.082717965711204
30
0
11
111.02593621489206
21
22.125813698859737
31
0
0
LINE
5
14C
100
AcDbEntity
8
CUTOUTS
100
AcDbLine
10
115.41376350342074
20
-37.562184532251386
30
0
11
109.60037104641873
21
-36.554976440222816
31
0
0
LINE
5
14D
100
AcDbEntity
8
CUTOUTS
100
AcDbLine
10
109.60037104641873
20
-36.554976440222816
30
0
11
119.51881005440657
21
20.692159450098409
31
0
0
LINE
5
14E
100
AcDbEntity
8
CUTOUTS
100
AcDbLine
10
119.51881005440657
20
20.692159450098409
30
0
11
125.33220251142346
21
19.684951358066705
31
0
0
LINE
5
14F
100
AcDbEntity
8
CUTOUTS
100
AcDbLine
10
125.33220251142346
20
19.684951358066705
30
0
11
115.41376350342074
21
-37.562184532251386
31
0
0
LINE
5
150
100
AcDbEntity
8
CUTOUTS
100
AcDbLine
10
123.39929957646405
20
-38.981318728794818
30
0
11
133.81236282493592
21
18.17791599126922
31
0
0
LINE
5
151
100
AcDbEntity
8
CUTOUTS
100
AcDbLine
10
133.81236282493592
20
18.17791599126922
30
0
11
139.61682900133383
21
17.120479275849213
31
0
0
LINE
5
152
100
AcDbEntity
8
CUTOUTS
100
AcDbLine
10
139.61682900133383
20
17.120479275849213
30
0
11
129.20376575287463
21
-40.038755444216186
31
0
0
LINE
5
153
100
AcDbEntity
8
CUTOUTS
100
AcDbLine
10
129.20376575287463
20
-40.038755444216186
30
0
11
123.39929957646405
21
-38.981318728794818
31
0
0
LINE
5
154
100
AcDbEntity
8
CUTOUTS
100
AcDbLine
10
153.87874717528408
20
14.432589402594386
30
0
11
142.97183958558136
21
-42.634470858380112
31
0
0
LINE
5
155
100
AcDbEntity
8
CUTOUTS
100
AcDbLine
10
142.97183958558136
20
-42.634470858380112
30
0
11
137.17673363821689
21
-41.526884717596538
31
0
0
LINE
5
156
100
AcDbEntity
8
CUTOUTS
100
AcDbLine
10
137.17673363821689
20
-41.526884717596538
30
0
11
148.08364122794632
21
15.540175543372046
31
0
0
LINE
5
157
100
AcDbEntity
8
CUTOUTS
100
AcDbLine
10
148.08364122794632
20
15.540175543372051
30
0
11
153.87874717528408
21
14.432589402594386
31
0
0
LINE
5
158
100
AcDbEntity
8
PERIMETER
100
AcDbLine
10
166.04123987021904
20
12.039440112509274
30
0
11
167.16525994727536
21
17.695500126640972
31
0
0
ARC
5
159
100
AcDbEntity
8
PERIMETER
100
AcDbCircle
10
-167.10647326065768
20
-1664.1003618190443
30
0
40
1714.6938248210574
210
0
220
-0
230
1
100
AcDbArc
50
78.758463936922539
51
90.001670729161063
0
LINE
5
15A
100
AcDbEntity
8
PERIMETER
100
AcDbLine
10
-167.15647326064715
20
50.593462273019718
30
0
11
-167.15647326064737
21
44.826796335345804
31
0
0
LINE
5
15B
100
AcDbEntity
8
PERIMETER
100
AcDbLine
10
-167.15647326064737
20
44.826796335345804
30
0
11
-161.15647326064811
21
44.826796335345804
31
0
0
LINE
5
15C
100
AcDbEntity
8
PERIMETER
100
AcDbLine
10
-161.15647326064806
20
44.826796335345804
30
0
11
-161.15647326065124
21
-13.273203664654201
31
0
0
LINE
5
15D
100
AcDbEntity
8
PERIMETER
100
AcDbLine
10
-161.15647326065127
20
-13.27320366465421
30
0
11
-167.15647326065056
21
-13.273203664654201
31
0
0
LINE
5
15E
100
AcDbEntity
8
PERIMETER
100
AcDbLine
10
-167.15647326065053
20
-13.273203664654201
30
0
11
-167.15647326065107
21
-19.039871091170831
31
0
0
ARC
5
15F
100
AcDbEntity
8
PERIMETER
100
AcDbCircle
10
-167.10647326065768
20
-1664.1003618190443
30
0
40
1645.0604914877244
210
0
220
-0
230
1
100
AcDbArc
50
78.758393134552989
51
90.001741449016833
0
LINE
5
160
100
AcDbEntity
8
PERIMETER
100
AcDbLine
10
153.59255336034866
20
-50.602250578076287
30
0
11
154.71657372828378
21
-44.946189100246642
31
0
0
LINE
5
161
100
AcDbEntity
8
PERIMETER
100
AcDbLine
10
154.71657372828378
20
-44.946189100246642
30
0
11
148.83165505139328
21
-43.7766882946216
31
0
0
LINE
5
162
100
AcDbEntity
8
PERIMETER
100
AcDbLine
10
148.83165505139328
20
-43.7766882946216
30
0
11
160.15632119090012
21
13.20894091861688
31
0
0
LINE
5
163
100
AcDbEntity
8
PERIMETER
100
AcDbLine
10
160.15632119090012
20
13.20894091861688
30
0
11
166.04123987021904
21
12.039440112509274
31
0
0
ENDSEC
0
SECTION
2
OBJECTS
0
DICTIONARY
5
C
100
AcDbDictionary
3
ACAD_GROUP
350
D
3
ACAD_MLINESTYLE
350
17
0
DICTIONARY
5
D
100
AcDbDictionary
0
DICTIONARY
5
1A
330
C
100
AcDbDictionary
0
DICTIONARY
5
17
100
AcDbDictionary
0
ENDSEC
0
EOF
