0
SECTION
2
HEADER
9
$INSUNITS
70
4
9
$ACADVER
1
AC1014
9
$HANDSEED
5
FFFF
0
ENDSEC
0
SECTION
2
TABLES
0
TABLE
2
VPORT
5
8
100
AcDbSymbolTable
0
ENDTAB
0
TABLE
2
LTYPE
5
5
100
AcDbSymbolTable
70
2
0
LTYPE
5
14
100
AcDbSymbolTableRecord
100
AcDbLinetypeTableRecord
2
BYBLOCK
70
0
0
LTYPE
5
15
100
AcDbSymbolTableRecord
100
AcDbLinetypeTableRecord
2
BYLAYER
70
0
0
ENDTAB
0
TABLE
2
LAYER
5
2
100
AcDbSymbolTable
70
3
0
LAYER
5
50
100
AcDbSymbolTableRecord
100
AcDbLayerTableRecord
2
0
70
0
6
CONTINUOUS
0
LAYER
5
51
100
AcDbSymbolTableRecord
100
AcDbLayerTableRecord
2
CUTOUTS
70
0
62
1
6
CONTINUOUS
0
LAYER
5
52
100
AcDbSymbolTableRecord
100
AcDbLayerTableRecord
2
PERIMETER
70
0
62
5
6
CONTINUOUS
0
ENDTAB
0
TABLE
2
STYLE
5
3
100
AcDbSymbolTable
70
1
0
STYLE
5
11
100
AcDbSymbolTableRecord
100
AcDbTextStyleTableRecord
2
STANDARD
70
0
0
ENDTAB
0
TABLE
2
VIEW
5
6
100
AcDbSymbolTable
0
ENDTAB
0
TABLE
2
UCS
5
7
100
AcDbSymbolTable
0
ENDTAB
0
TABLE
2
APPID
5
9
100
AcDbSymbolTable
70
1
0
APPID
5
12
100
AcDbSymbolTableRecord
100
AcDbRegAppTableRecord
2
ACAD
70
0
0
ENDTAB
0
TABLE
2
DIMSTYLE
5
A
100
AcDbSymbolTable
0
ENDTAB
0
TABLE
2
BLOCK_RECORD
5
1
100
AcDbSymbolTable
70
2
0
BLOCK_RECORD
5
1F
100
AcDbSymbolTableRecord
100
AcDbBlockTableRecord
2
*MODEL_SPACE
0
BLOCK_RECORD
5
1B
100
AcDbSymbolTableRecord
100
AcDbBlockTableRecord
2
*PAPER_SPACE
0
ENDTAB
0
ENDSEC
0
SECTION
2
BLOCKS
0
BLOCK
5
20
100
AcDbEntity
100
AcDbBlockBegin
2
*MODEL_SPACE
0
ENDBLK
5
21
100
AcDbEntity
100
AcDbBlockEnd
0
BLOCK
5
1C
100
AcDbEntity
100
AcDbBlockBegin
2
*PAPER_SPACE
0
ENDBLK
5
1D
100
AcDbEntity
100
AcDbBlockEnd
0
ENDSEC
0
SECTION
2
ENTITIES
0
LINE
5
100
100
AcDbEntity
8
CUTOUTS
100
AcDbLine
10
-154.97407266325399
20
-18.527544848491367
30
0
11
-154.69417358382805
21
39.671782093539036
31
0
0
LINE
5
101
100
AcDbEntity
8
CUTOUTS
100
AcDbLine
10
-154.69417358382805
20
39.671782093539036
30
0
11
-148.6942429712476
21
39.642926518340417
31
0
0
LINE
5
102
100
AcDbEntity
8
CUTOUTS
100
AcDbLine
10
-148.6942429712476
20
39.642926518340417
30
0
11
-148.97414205067344
21
-18.556400423690089
31
0
0
LINE
5
103
100
AcDbEntity
8
CUTOUTS
100
AcDbLine
10
-148.97414205067344
20
-18.556400423690089
30
0
11
-154.97407266325399
21
-18.527544848491367
31
0
0
LINE
5
104
100
AcDbEntity
8
CUTOUTS
100
AcDbLine
10
-134.2197645888775
20
39.514720662374245
30
0
11
-134.83275783785584
21
-18.682051063183813
31
0
0
LINE
5
105
100
AcDbEntity
8
CUTOUTS
100
AcDbLine
10
-134.83275783785584
20
-18.682051063183813
30
0
11
-140.8324250260585
21
-18.618855882876694
31
0
0
LINE
5
106
100
AcDbEntity
8
CUTOUTS
100
AcDbLine
10
-140.8324250260585
20
-18.618855882876694
30
0
11
-140.21943177707925
21
39.57791584268135
31
0
0
LINE
5
107
100
AcDbEntity
8
CUTOUTS
100
AcDbLine
10
-140.21943177707925
20
39.57791584268135
30
0
11
-134.21976458887752
21
39.514720662374245
31
0
0
LINE
5
108
100
AcDbEntity
8
CUTOUTS
100
AcDbLine
10
-126.69153168887382
20
-18.791103292804934
30
0
11
-125.74546425808396
21
39.401206821302154
31
0
0
LINE
5
109
100
AcDbEntity
8
CUTOUTS
100
AcDbLine
10
-125.74546425808396
20
39.401206821302154
30
0
11
-119.74625702982536
21
39.303674096478559
31
0
0
LINE
5
10A
100
AcDbEntity
8
CUTOUTS
100
AcDbLine
10
-119.74625702982537
20
39.303674096478559
30
0
11
-120.69232446061466
21
-18.888636017628542
31
0
0
LINE
5
10B
100
AcDbEntity
8
CUTOUTS
100
AcDbLine
10
-120.69232446061466
20
-18.888636017628542
30
0
11
-126.69153168887379
21
-18.791103292804934
31
0
0
LINE
5
10C
100
AcDbEntity
8
CUTOUTS
100
AcDbLine
10
-111.27274516516252
20
39.141660815275984
30
0
11
-105.27419441739724
21
39.009793736413968
31
0
0
LINE
5
10D
100
AcDbEntity
8
CUTOUTS
100
AcDbLine
10
-105.27419441739724
20
39.009793736413968
30
0
11
-106.55330508235997
21
-19.176148516906963
31
0
0
LINE
5
10E
100
AcDbEntity
8
CUTOUTS
100
AcDbLine
10
-106.55330508235997
20
-19.176148516906963
30
0
11
-112.55185583012576
21
-19.044281438044912
31
0
0
LINE
5
10F
100
AcDbEntity
8
CUTOUTS
100
AcDbLine
10
-112.55185583012576
20
-19.044281438044912
30
0
11
-111.27274516516252
21
39.141660815275984
31
0
0
LINE
5
110
100
AcDbEntity
8
CUTOUTS
100
AcDbLine
10
-92.41616281307239
20
-19.544579140538527
30
0
11
-98.413860581389798
21
-19.378382028830892
31
0
0
LINE
5
111
100
AcDbEntity
8
CUTOUTS
100
AcDbLine
10
-98.413860581389798
20
-19.378382028830892
30
0
11
-96.801748597823888
21
38.799286323832369
31
0
0
LINE
5
112
100
AcDbEntity
8
CUTOUTS
100
AcDbLine
10
-96.801748597823902
20
38.799286323832369
30
0
11
-90.804050829507901
21
38.633089212124759
31
0
0
LINE
5
113
100
AcDbEntity
8
CUTOUTS
100
AcDbLine
10
-90.804050829507901
20
38.633089212124759
30
0
11
-92.41616281307239
21
-19.544579140538524
31
0
0
LINE
5
114
100
AcDbEntity
8
CUTOUTS
100
AcDbLine
10
-82.332948574616708
20
38.374094564498897
30
0
11
-76.336300256910562
21
38.173572860550031
31
0
0
LINE
5
115
100
AcDbEntity
8
CUTOUTS
100
AcDbLine
10
-76.336300256910562
20
38.173572860550031
30
0
11
-78.28136078521527
21
-19.993915821197923
31
0
0
LINE
5
116
100
AcDbEntity
8
CUTOUTS
100
AcDbLine
10
-78.28136078521527
20
-19.993915821197923
30
0
11
-84.278009102924884
21
-19.793394117248944
31
0
0
LINE
5
117
100
AcDbEntity
8
CUTOUTS
100
AcDbLine
10
-84.278009102924884
20
-19.793394117248944
30
0
11
-82.332948574616708
21
38.374094564498897
31
0
0
LINE
5
118
100
AcDbEntity
8
CUTOUTS
100
AcDbLine
10
-61.871416633919637
20
37.631259736972389
30
0
11
-64.149361978570539
21
-20.524143838334503
31
0
0
LINE
5
119
100
AcDbEntity
8
CUTOUTS
100
AcDbLine
10
-64.149361978570539
20
-20.524143838334503
30
0
11
-70.144764409015778
21
-20.289304112082203
31
0
0
LINE
5
11A
100
AcDbEntity
8
CUTOUTS
100
AcDbLine
10
-70.144764409015778
20
-20.289304112082203
30
0
11
-67.86681906436408
21
37.866099463224643
31
0
0
LINE
5
11B
100
AcDbEntity
8
CUTOUTS
100
AcDbLine
10
-67.86681906436408
20
37.866099463224643
30
0
11
-61.871416633919637
21
37.631259736972389
31
0
0
LINE
5
11C
100
AcDbEntity
8
CUTOUTS
100
AcDbLine
10
-50.020629330310662
20
-21.135245823537527
30
0
11
-56.014589477604062
21
-20.866095767496251
31
0
0
LINE
5
11D
100
AcDbEntity
8
CUTOUTS
100
AcDbLine
10
-56.014589477604062
20
-20.866095767496251
30
0
11
-53.403833934003195
21
37.275317661244145
31
0
0
LINE
5
11E
100
AcDbEntity
8
CUTOUTS
100
AcDbLine
10
-53.403833934003195
20
37.275317661244145
30
0
11
-47.409873786710492
21
37.006167605202208
31
0
0
LINE
5
11F
100
AcDbEntity
8
CUTOUTS
100
AcDbLine
10
-47.409873786710492
20
37.006167605202208
30
0
11
-50.020629330310662
21
-21.135245823537531
31
0
0
LINE
5
120
100
AcDbEntity
8
CUTOUTS
100
AcDbLine
10
-32.952145437256206
20
36.298316942052935
30
0
11
-35.895625652499028
21
-21.827201758623069
31
0
0
LINE
5
121
100
AcDbEntity
8
CUTOUTS
100
AcDbLine
10
-35.895625652499028
20
-21.827201758623069
30
0
11
-41.887947168037897
21
-21.523750190040396
31
0
0
LINE
5
122
100
AcDbEntity
8
CUTOUTS
100
AcDbLine
10
-41.887947168037897
20
-21.523750190040396
30
0
11
-38.944466952789298
21
36.601768510634336
31
0
0
LINE
5
123
100
AcDbEntity
8
CUTOUTS
100
AcDbLine
10
-38.944466952789298
20
36.601768510634336
30
0
11
-32.952145437256206
21
36.298316942052935
31
0
0
LINE
5
124
100
AcDbEntity
8
CUTOUTS
100
AcDbLine
10
-27.765300215466393
20
-22.262245838608425
30
0
11
-24.489191773940391
21
35.845474074321544
31
0
0
LINE
5
125
100
AcDbEntity
8
CUTOUTS
100
AcDbLine
10
-24.489191773940391
20
35.845474074321544
30
0
11
-18.498705184977631
21
35.507730936020373
31
0
0
LINE
5
126
100
AcDbEntity
8
CUTOUTS
100
AcDbLine
10
-18.498705184977631
20
35.507730936020373
30
0
11
-21.774813626500098
21
-22.599988976909277
31
0
0
LINE
5
127
100
AcDbEntity
8
CUTOUTS
100
AcDbLine
10
-21.774813626500098
20
-22.59998897690928
30
0
11
-27.765300215466393
21
-22.262245838608425
31
0
0
LINE
5
128
100
AcDbEntity
8
CUTOUTS
100
AcDbLine
10
-10.038481896772531
20
35.006459129103732
30
0
11
-4.0500264694834698
21
34.634435480172016
31
0
0
LINE
5
129
100
AcDbEntity
8
CUTOUTS
100
AcDbLine
10
-4.0500264694834698
20
34.634435480172016
30
0
11
-7.6586558641180069
21
-23.453582164539391
31
0
0
LINE
5
12A
100
AcDbEntity
8
CUTOUTS
100
AcDbLine
10
-7.6586558641180069
20
-23.453582164539391
30
0
11
-13.647111291417868
21
-23.081558515607441
31
0
0
LINE
5
12B
100
AcDbEntity
8
CUTOUTS
100
AcDbLine
10
-13.647111291417868
20
-23.081558515607441
30
0
11
-10.038481896772531
21
35.006459129103732
31
0
0
LINE
5
12C
100
AcDbEntity
8
CUTOUTS
100
AcDbLine
10
6.4523853051554525
20
-24.387953359629009
30
0
11
0.46615720748370393
21
-23.981661392276816
31
0
0
LINE
5
12D
100
AcDbEntity
8
CUTOUTS
100
AcDbLine
10
0.46615720748370393
20
-23.981661392276816
30
0
11
4.4071892908045385
21
34.084751155067551
31
0
0
LINE
5
12E
100
AcDbEntity
8
CUTOUTS
100
AcDbLine
10
4.4071892908045385
20
34.084751155067551
30
0
11
10.393417388467974
21
33.678459187715724
31
0
0
LINE
5
12F
100
AcDbEntity
8
CUTOUTS
100
AcDbLine
10
10.393417388467974
20
33.678459187715724
30
0
11
6.4523853051554525
21
-24.387953359629009
31
0
0
LINE
5
130
100
AcDbEntity
8
CUTOUTS
100
AcDbLine
10
18.847348613116921
20
33.080380348822935
30
0
11
24.831153285442369
21
32.639833366705957
31
0
0
LINE
5
131
100
AcDbEntity
8
CUTOUTS
100
AcDbLine
10
24.831153285442369
20
32.639833366705957
30
0
11
20.557847558911888
21
-25.403071954856379
31
0
0
LINE
5
132
100
AcDbEntity
8
CUTOUTS
100
AcDbLine
10
20.557847558911888
20
-25.403071954856379
30
0
11
14.574042886576706
21
-24.962524972738869
31
0
0
LINE
5
133
100
AcDbEntity
8
CUTOUTS
100
AcDbLine
10
14.574042886576706
20
-24.962524972738869
30
0
11
18.847348613116921
21
33.080380348822935
31
0
0
LINE
5
134
100
AcDbEntity
8
CUTOUTS
100
AcDbLine
10
39.262708262982535
20
31.518592045145493
30
0
11
34.657268904726379
21
-26.498904697800143
31
0
0
LINE
5
135
100
AcDbEntity
8
CUTOUTS
100
AcDbLine
10
34.657268904726379
20
-26.498904697800143
30
0
11
28.676083673491881
21
-26.024117135093114
31
0
0
LINE
5
136
100
AcDbEntity
8
CUTOUTS
100
AcDbLine
10
28.676083673491881
20
-26.024117135093114
30
0
11
33.281523031750346
21
31.993379607852503
31
0
0
LINE
5
137
100
AcDbEntity
8
CUTOUTS
100
AcDbLine
10
33.281523031750346
20
31.993379607852503
30
0
11
39.262708262982535
21
31.518592045145493
31
0
0
LINE
5
138
100
AcDbEntity
8
CUTOUTS
100
AcDbLine
10
42.77181761275834
20
-27.166403103088193
30
0
11
47.709239726461057
21
30.823784539921277
31
0
0
LINE
5
139
100
AcDbEntity
8
CUTOUTS
100
AcDbLine
10
47.709239726461057
20
30.823784539921277
30
0
11
53.687609586564342
21
30.314771950880615
31
0
0
LINE
5
13A
100
AcDbEntity
8
CUTOUTS
100
AcDbLine
10
53.687609586564342
20
30.314771950880615
30
0
11
48.750187472873101
21
-27.675415692129771
31
0
0
LINE
5
13B
100
AcDbEntity
8
CUTOUTS
100
AcDbLine
10
48.750187472873101
20
-27.675415692129768
30
0
11
42.77181761275834
21
-27.166403103088193
31
0
0
LINE
5
13C
100
AcDbEntity
8
CUTOUTS
100
AcDbLine
10
68.105384743457591
20
29.028412515472482
30
0
11
62.836141592972261
21
-28.932566398117228
31
0
0
LINE
5
13D
100
AcDbEntity
8
CUTOUTS
100
AcDbLine
10
62.836141592972261
20
-28.932566398117228
30
0
11
56.860782942081229
21
-28.389345454766016
31
0
0
LINE
5
13E
100
AcDbEntity
8
CUTOUTS
100
AcDbLine
10
56.860782942081229
20
-28.389345454766016
30
0
11
62.130026092572521
21
29.571633458821658
31
0
0
LINE
5
13F
100
AcDbEntity
8
CUTOUTS
100
AcDbLine
10
62.130026092572521
20
29.571633458821658
30
0
11
68.105384743457591
21
29.028412515472482
31
0
0
LINE
5
140
100
AcDbEntity
8
CUTOUTS
100
AcDbLine
10
82.515561435353504
20
27.659555880381014
30
0
11
76.914669889839075
21
-30.270315635925712
31
0
0
LINE
5
141
100
AcDbEntity
8
CUTOUTS
100
AcDbLine
10
76.914669889839075
20
-30.270315635925709
30
0
11
70.942518187132109
21
-29.692904136385838
31
0
0
LINE
5
142
100
AcDbEntity
8
CUTOUTS
100
AcDbLine
10
70.942518187132109
20
-29.692904136385838
30
0
11
76.543409732646666
21
28.236967379920905
31
0
0
LINE
5
143
100
AcDbEntity
8
CUTOUTS
100
AcDbLine
10
76.543409732646666
20
28.236967379920905
30
0
11
82.515561435353504
21
27.659555880381014
31
0
0
LINE
5
144
100
AcDbEntity
8
CUTOUTS
100
AcDbLine
10
85.016562028643136
20
-31.077036440491909
30
0
11
90.94891851616066
21
26.819830024848137
31
0
0
LINE
5
145
100
AcDbEntity
8
CUTOUTS
100
AcDbLine
10
90.94891851616066
20
26.819830024848137
30
0
11
96.917667636300962
21
26.208246881805191
31
0
0
LINE
5
146
100
AcDbEntity
8
CUTOUTS
100
AcDbLine
10
96.917667636300962
20
26.208246881805191
30
0
11
90.985311148779687
21
-31.688619583535353
31
0
0
LINE
5
147
100
AcDbEntity
8
CUTOUTS
100
AcDbLine
10
90.985311148779687
20
-31.688619583535349
30
0
11
85.016562028643136
21
-31.077036440491909
31
0
0
LINE
5
148
100
AcDbEntity
8
CUTOUTS
100
AcDbLine
10
111.3112315635027
20
24.674533063878002
30
0
11
105.04760448848603
21
-33.187431782345641
31
0
0
LINE
5
149
100
AcDbEntity
8
CUTOUTS
100
AcDbLine
10
105.04760448848603
20
-33.187431782345641
30
0
11
99.082453473399823
21
-32.541697032342746
31
0
0
LINE
5
14A
100
AcDbEntity
8
CUTOUTS
100
AcDbLine
10
99.082453473399823
20
-32.541697032342746
30
0
11
105.34608054842838
21
25.320267813879873
31
0
0
LINE
5
14B
100
AcDbEntity
8
CUTOUTS
100
AcDbLine
10
105.34608054842838
20
25.320267813879873
30
0
11
111.3112315635027
21
24.674533063878002
31
0
0
LINE
5
14C
100
AcDbEntity
8
CUTOUTS
100
AcDbLine
10
119.10108922507341
20
-34.766703133714493
30
0
11
113.1397317202904
21
-34.086837926469343
31
0
0
LINE
5
14D
100
AcDbEntity
8
CUTOUTS
100
AcDbLine
10
113.1397317202904
20
-34.086837926469343
30
0
11
119.73442423059616
21
23.738329870046293
31
0
0
LINE
5
14E
100
AcDbEntity
8
CUTOUTS
100
AcDbLine
10
119.73442423059616
20
23.738329870046293
30
0
11
125.69578173539391
21
23.058464662798876
31
0
0
LINE
5
14F
100
AcDbEntity
8
CUTOUTS
100
AcDbLine
10
125.69578173539391
20
23.058464662798876
30
0
11
119.10108922507341
21
-34.766703133714493
31
0
0
LINE
5
150
100
AcDbEntity
8
CUTOUTS
100
AcDbLine
10
134.11347822491561
20
22.074068011542529
30
0
11
140.07084693925233
21
21.36009462163862
31
0
0
LINE
5
151
100
AcDbEntity
8
CUTOUTS
100
AcDbLine
10
140.07084693925233
20
21.36009462163862
30
0
11
133.14530505717741
21
-36.426381907392113
31
0
0
LINE
5
152
100
AcDbEntity
8
CUTOUTS
100
AcDbLine
10
133.14530505717741
20
-36.426381907392113
30
0
11
127.18793634282797
21
-35.712408517487653
31
0
0
LINE
5
153
100
AcDbEntity
8
CUTOUTS
100
AcDbLine
10
127.18793634282797
20
-35.712408517487653
30
0
11
134.11347822491561
21
22.074068011542529
31
0
0
LINE
5
154
100
AcDbEntity
8
CUTOUTS
100
AcDbLine
10
154.43595629881176
20
19.579478570428567
30
0
11
147.17979189543686
21
-38.166413735015297
31
0
0
LINE
5
155
100
AcDbEntity
8
CUTOUTS
100
AcDbLine
10
147.17979189543686
20
-38.16641373501529
30
0
11
141.22660712165001
21
-37.418355549098834
31
0
0
LINE
5
156
100
AcDbEntity
8
CUTOUTS
100
AcDbLine
10
141.22660712165001
20
-37.418355549098834
30
0
11
148.48277152505162
21
20.327536756340834
31
0
0
LINE
5
157
100
AcDbEntity
8
CUTOUTS
100
AcDbLine
10
148.48277152505162
20
20.327536756340834
30
0
11
154.43595629881176
21
19.579478570428567
31
0
0
LINE
5
158
100
AcDbEntity
8
PERIMETER
100
AcDbLine
10
160.6487500320026
20
18.783505380234722
30
0
11
166.59823748096318
21
18.006588973107334
31
0
0
LINE
5
159
100
AcDbEntity
8
PERIMETER
100
AcDbLine
10
166.59823748096318
20
18.006588973107334
30
0
11
166.85720961672462
21
19.989751455835076
31
0
0
ARC
5
15A
100
AcDbEntity
8
PERIMETER
100
AcDbCircle
10
-166.85720961672138
20
-2535.5553795656774
30
0
40
2577.2419813226852
210
0
220
-0
230
1
100
AcDbArc
50
82.560161130949652
51
90.000000000000057
0
LINE
5
15B
100
AcDbEntity
8
PERIMETER
100
AcDbLine
10
-166.8572096167203
20
41.686601757007423
30
0
11
-166.85720961672098
21
39.686601757007104
31
0
0
LINE
5
15C
100
AcDbEntity
8
PERIMETER
100
AcDbLine
10
-166.85720961672098
20
39.686601757007104
30
0
11
-160.85720961672169
21
39.686601757007104
31
0
0
LINE
5
15D
100
AcDbEntity
8
PERIMETER
100
AcDbLine
10
-160.85720961672166
20
39.686601757007104
30
0
11
-160.85720961672482
21
-18.513398242992899
31
0
0
LINE
5
15E
100
AcDbEntity
8
PERIMETER
100
AcDbLine
10
-160.85720961672484
20
-18.513398242992896
30
0
11
-166.85720961672416
21
-18.513398242992896
31
0
0
LINE
5
15F
100
AcDbEntity
8
PERIMETER
100
AcDbLine
10
-166.85720961672413
20
-18.513398242992896
30
0
11
-166.85720961672456
21
-20.513398242993155
31
0
0
ARC
5
160
100
AcDbEntity
8
PERIMETER
100
AcDbCircle
10
-166.85720961672573
20
-2535.5553795686192
30
0
40
2515.0419813256253
210
0
220
-0
230
1
100
AcDbArc
50
82.560162523199608
51
89.999999999999972
0
LINE
5
161
100
AcDbEntity
8
PERIMETER
100
AcDbLine
10
158.80317619454632
20
-41.686601757007438
30
0
11
159.06214833030904
21
-39.703439274279333
31
0
0
LINE
5
162
100
AcDbEntity
8
PERIMETER
100
AcDbLine
10
159.06214833030904
20
-39.703439274279333
30
0
11
153.11266088380816
21
-38.926522867473111
31
0
0
LINE
5
163
100
AcDbEntity
8
PERIMETER
100
AcDbLine
10
153.11266088380816
20
-38.926522867473111
30
0
11
160.6487500320026
21
18.783505380234722
31
0
0
ENDSEC
0
SECTION
2
OBJECTS
0
DICTIONARY
5
C
100
AcDbDictionary
3
ACAD_GROUP
350
D
3
ACAD_MLINESTYLE
350
17
0
DICTIONARY
5
D
100
AcDbDictionary
0
DICTIONARY
5
1A
330
C
100
AcDbDictionary
0
DICTIONARY
5
17
100
AcDbDictionary
0
ENDSEC
0
EOF
