0
SECTION
2
HEADER
9
$INSUNITS
70
4
9
$ACADVER
1
AC1014
9
$HANDSEED
5
FFFF
0
ENDSEC
0
SECTION
2
TABLES
0
TABLE
2
VPORT
5
8
100
AcDbSymbolTable
0
ENDTAB
0
TABLE
2
LTYPE
5
5
100
AcDbSymbolTable
70
2
0
LTYPE
5
14
100
AcDbSymbolTableRecord
100
AcDbLinetypeTableRecord
2
BYBLOCK
70
0
0
LTYPE
5
15
100
AcDbSymbolTableRecord
100
AcDbLinetypeTableRecord
2
BYLAYER
70
0
0
ENDTAB
0
TABLE
2
LAYER
5
2
100
AcDbSymbolTable
70
3
0
LAYER
5
50
100
AcDbSymbolTableRecord
100
AcDbLayerTableRecord
2
0
70
0
6
CONTINUOUS
0
LAYER
5
51
100
AcDbSymbolTableRecord
100
AcDbLayerTableRecord
2
CUTOUTS
70
0
62
1
6
CONTINUOUS
0
LAYER
5
52
100
AcDbSymbolTableRecord
100
AcDbLayerTableRecord
2
PERIMETER
70
0
62
5
6
CONTINUOUS
0
ENDTAB
0
TABLE
2
STYLE
5
3
100
AcDbSymbolTable
70
1
0
STYLE
5
11
100
AcDbSymbolTableRecord
100
AcDbTextStyleTableRecord
2
STANDARD
70
0
0
ENDTAB
0
TABLE
2
VIEW
5
6
100
AcDbSymbolTable
0
ENDTAB
0
TABLE
2
UCS
5
7
100
AcDbSymbolTable
0
ENDTAB
0
TABLE
2
APPID
5
9
100
AcDbSymbolTable
70
1
0
APPID
5
12
100
AcDbSymbolTableRecord
100
AcDbRegAppTableRecord
2
ACAD
70
0
0
ENDTAB
0
TABLE
2
DIMSTYLE
5
A
100
AcDbSymbolTable
0
ENDTAB
0
TABLE
2
BLOCK_RECORD
5
1
100
AcDbSymbolTable
70
2
0
BLOCK_RECORD
5
1F
100
AcDbSymbolTableRecord
100
AcDbBlockTableRecord
2
*MODEL_SPACE
0
BLOCK_RECORD
5
1B
100
AcDbSymbolTableRecord
100
AcDbBlockTableRecord
2
*PAPER_SPACE
0
ENDTAB
0
ENDSEC
0
SECTION
2
BLOCKS
0
BLOCK
5
20
100
AcDbEntity
100
AcDbBlockBegin
2
*MODEL_SPACE
0
ENDBLK
5
21
100
AcDbEntity
100
AcDbBlockEnd
0
BLOCK
5
1C
100
AcDbEntity
100
AcDbBlockBegin
2
*PAPER_SPACE
0
ENDBLK
5
1D
100
AcDbEntity
100
AcDbBlockEnd
0
ENDSEC
0
SECTION
2
ENTITIES
0
LINE
5
100
100
AcDbEntity
8
CUTOUTS
100
AcDbLine
10
-149.02390100931828
20
-18.506160538791931
30
0
11
-154.92383277835583
21
-18.477785889846523
31
0
0
LINE
5
101
100
AcDbEntity
8
CUTOUTS
100
AcDbLine
10
-154.92383277835583
20
-18.477785889846523
30
0
11
-154.6444146251832
21
39.621542208640889
31
0
0
LINE
5
102
100
AcDbEntity
8
CUTOUTS
100
AcDbLine
10
-154.6444146251832
20
39.621542208640889
30
0
11
-148.74448285614574
21
39.593167559695566
31
0
0
LINE
5
103
100
AcDbEntity
8
CUTOUTS
100
AcDbLine
10
-148.74448285614577
20
39.593167559695566
30
0
11
-149.02390100931828
21
-18.506160538791931
31
0
0
LINE
5
104
100
AcDbEntity
8
CUTOUTS
100
AcDbLine
10
-134.2702884419484
20
39.465250062308456
30
0
11
-134.88222843792164
21
-18.63152721011291
31
0
0
LINE
5
105
100
AcDbEntity
8
CUTOUTS
100
AcDbLine
10
-134.88222843792164
20
-18.63152721011291
30
0
11
-140.78190117298757
21
-18.569385282810895
31
0
0
LINE
5
106
100
AcDbEntity
8
CUTOUTS
100
AcDbLine
10
-140.78190117298757
20
-18.569385282810895
30
0
11
-140.16996117701348
21
39.527391989610436
31
0
0
LINE
5
107
100
AcDbEntity
8
CUTOUTS
100
AcDbLine
10
-140.16996117701348
20
39.527391989610436
30
0
11
-134.27028844194842
21
39.465250062308456
31
0
0
LINE
5
108
100
AcDbEntity
8
CUTOUTS
100
AcDbLine
10
-120.74150508147665
20
-18.837829851352865
30
0
11
-126.64072552259813
21
-18.741922671942977
31
0
0
LINE
5
109
100
AcDbEntity
8
CUTOUTS
100
AcDbLine
10
-126.64072552259813
20
-18.741922671942977
30
0
11
-125.69628363722202
21
39.350400655026476
31
0
0
LINE
5
10A
100
AcDbEntity
8
CUTOUTS
100
AcDbLine
10
-125.69628363722202
20
39.350400655026476
30
0
11
-119.79706319610105
21
39.254493475616606
31
0
0
LINE
5
10B
100
AcDbEntity
8
CUTOUTS
100
AcDbLine
10
-119.79706319610105
20
39.254493475616606
30
0
11
-120.74150508147665
21
-18.837829851352868
31
0
0
LINE
5
10C
100
AcDbEntity
8
CUTOUTS
100
AcDbLine
10
-111.22385613458832
20
39.090574000054097
30
0
11
-105.32528123261912
21
38.960904705839773
31
0
0
LINE
5
10D
100
AcDbEntity
8
CUTOUTS
100
AcDbLine
10
-105.32528123261913
20
38.960904705839773
30
0
11
-106.60219411293414
21
-19.125061701685073
31
0
0
LINE
5
10E
100
AcDbEntity
8
CUTOUTS
100
AcDbLine
10
-106.60219411293414
20
-19.125061701685073
30
0
11
-112.50076901490387
21
-18.995392407470717
31
0
0
LINE
5
10F
100
AcDbEntity
8
CUTOUTS
100
AcDbLine
10
-112.50076901490388
20
-18.995392407470717
30
0
11
-111.22385613458833
21
39.090574000054097
31
0
0
LINE
5
110
100
AcDbEntity
8
CUTOUTS
100
AcDbLine
10
-92.46475865187746
20
-19.493213349871663
30
0
11
-98.362494790722934
21
-19.329786190025828
31
0
0
LINE
5
111
100
AcDbEntity
8
CUTOUTS
100
AcDbLine
10
-98.362494790722934
20
-19.329786190025828
30
0
11
-96.753152759018818
21
38.747920533165505
31
0
0
LINE
5
112
100
AcDbEntity
8
CUTOUTS
100
AcDbLine
10
-96.753152759018832
20
38.747920533165505
30
0
11
-90.855416620174765
21
38.584493373319688
31
0
0
LINE
5
113
100
AcDbEntity
8
CUTOUTS
100
AcDbLine
10
-90.855416620174765
20
38.584493373319688
30
0
11
-92.46475865187746
21
-19.493213349871663
31
0
0
LINE
5
114
100
AcDbEntity
8
CUTOUTS
100
AcDbLine
10
-82.284647519502059
20
38.322451480985109
30
0
11
-76.387943340424371
21
38.125271805435389
31
0
0
LINE
5
115
100
AcDbEntity
8
CUTOUTS
100
AcDbLine
10
-76.387943340424371
20
38.125271805435389
30
0
11
-78.329661840329919
21
-19.942272737684156
31
0
0
LINE
5
116
100
AcDbEntity
8
CUTOUTS
100
AcDbLine
10
-78.329661840329919
20
-19.942272737684156
30
0
11
-84.226366019411074
21
-19.745093062134302
31
0
0
LINE
5
117
100
AcDbEntity
8
CUTOUTS
100
AcDbLine
10
-84.226366019411074
20
-19.745093062134302
30
0
11
-82.284647519502059
21
38.322451480985109
31
0
0
LINE
5
118
100
AcDbEntity
8
CUTOUTS
100
AcDbLine
10
-61.923335318558784
20
37.583255047770791
30
0
11
-64.19736666777213
21
-20.472225153695362
31
0
0
LINE
5
119
100
AcDbEntity
8
CUTOUTS
100
AcDbLine
10
-64.19736666777213
20
-20.472225153695362
30
0
11
-70.092845724376645
21
-20.241299422880601
31
0
0
LINE
5
11A
100
AcDbEntity
8
CUTOUTS
100
AcDbLine
10
-70.092845724376645
20
-20.241299422880601
30
0
11
-67.818814375162489
21
37.814180778585509
31
0
0
LINE
5
11B
100
AcDbEntity
8
CUTOUTS
100
AcDbLine
10
-67.818814375162489
20
37.814180778585509
30
0
11
-61.923335318558784
21
37.583255047770791
31
0
0
LINE
5
11C
100
AcDbEntity
8
CUTOUTS
100
AcDbLine
10
-47.462066371738274
20
36.958460854441782
30
0
11
-50.068336081071095
21
-21.083053238509738
31
0
0
LINE
5
11D
100
AcDbEntity
8
CUTOUTS
100
AcDbLine
10
-50.068336081071095
20
-21.083053238509741
30
0
11
-55.96239689257628
21
-20.818389016735814
31
0
0
LINE
5
11E
100
AcDbEntity
8
CUTOUTS
100
AcDbLine
10
-55.96239689257628
20
-20.818389016735814
30
0
11
-53.356127183242762
21
37.223125076216348
31
0
0
LINE
5
11F
100
AcDbEntity
8
CUTOUTS
100
AcDbLine
10
-53.356127183242762
20
37.223125076216348
30
0
11
-47.462066371738274
21
36.958460854441782
31
0
0
LINE
5
120
100
AcDbEntity
8
CUTOUTS
100
AcDbLine
10
-33.004610212957161
20
36.250909692495
30
0
11
-35.943032902056956
21
-21.774736982922114
31
0
0
LINE
5
121
100
AcDbEntity
8
CUTOUTS
100
AcDbLine
10
-35.943032902056956
20
-21.774736982922114
30
0
11
-41.835482392336928
21
-21.476342940482471
31
0
0
LINE
5
122
100
AcDbEntity
8
CUTOUTS
100
AcDbLine
10
-41.835482392336928
20
-21.476342940482471
30
0
11
-38.897059703231385
21
36.549303734933389
31
0
0
LINE
5
123
100
AcDbEntity
8
CUTOUTS
100
AcDbLine
10
-38.897059703231385
20
36.549303734933389
30
0
11
-33.004610212957161
21
36.250909692495
31
0
0
LINE
5
124
100
AcDbEntity
8
CUTOUTS
100
AcDbLine
10
-24.442085578518231
20
35.792738826594366
30
0
11
-18.551440432704833
21
35.460624740598199
31
0
0
LINE
5
125
100
AcDbEntity
8
CUTOUTS
100
AcDbLine
10
-18.551440432704833
20
35.460624740598199
30
0
11
-21.821919821922275
21
-22.547253729182088
31
0
0
LINE
5
126
100
AcDbEntity
8
CUTOUTS
100
AcDbLine
10
-21.821919821922275
20
-22.547253729182088
30
0
11
-27.712564967739208
21
-22.215139643186248
31
0
0
LINE
5
127
100
AcDbEntity
8
CUTOUTS
100
AcDbLine
10
-27.712564967739208
20
-22.215139643186248
30
0
11
-24.442085578518231
21
35.792738826594366
31
0
0
LINE
5
128
100
AcDbEntity
8
CUTOUTS
100
AcDbLine
10
-9.9916782986195507
20
34.953455136801907
30
0
11
-4.1030304617853197
21
34.587631882019025
31
0
0
LINE
5
129
100
AcDbEntity
8
CUTOUTS
100
AcDbLine
10
-4.1030304617853197
20
34.587631882019025
30
0
11
-7.7054594622709871
21
-23.400578172237548
31
0
0
LINE
5
12A
100
AcDbEntity
8
CUTOUTS
100
AcDbLine
10
-7.7054594622709871
20
-23.400578172237552
30
0
11
-13.594107299116018
21
-23.03475491745445
31
0
0
LINE
5
12B
100
AcDbEntity
8
CUTOUTS
100
AcDbLine
10
-13.594107299116018
20
-23.03475491745445
30
0
11
-9.9916782986195507
21
34.953455136801907
31
0
0
LINE
5
12C
100
AcDbEntity
8
CUTOUTS
100
AcDbLine
10
0.51942820802551637
20
-23.935161924524209
30
0
11
4.453688758557135
21
34.031480154525759
31
0
0
LINE
5
12D
100
AcDbEntity
8
CUTOUTS
100
AcDbLine
10
4.453688758557135
20
34.031480154525759
30
0
11
10.340146387926161
21
33.63195971996312
31
0
0
LINE
5
12E
100
AcDbEntity
8
CUTOUTS
100
AcDbLine
10
10.340146387926161
20
33.63195971996312
30
0
11
6.405885837402856
21
-24.334682359087203
31
0
0
LINE
5
12F
100
AcDbEntity
8
CUTOUTS
100
AcDbLine
10
6.405885837402856
20
-24.334682359087203
30
0
11
0.51942820802551637
21
-23.935161924524209
31
0
0
LINE
5
130
100
AcDbEntity
8
CUTOUTS
100
AcDbLine
10
24.777617021655338
20
32.593639552620886
30
0
11
20.511653744826823
21
-25.349535691069363
31
0
0
LINE
5
131
100
AcDbEntity
8
CUTOUTS
100
AcDbLine
10
20.511653744826823
20
-25.349535691069363
30
0
11
14.627579150363736
21
-24.916331158653797
31
0
0
LINE
5
132
100
AcDbEntity
8
CUTOUTS
100
AcDbLine
10
14.627579150363736
20
-24.916331158653797
30
0
11
18.893542427201986
21
33.026844085035911
31
0
0
LINE
5
133
100
AcDbEntity
8
CUTOUTS
100
AcDbLine
10
18.893542427201986
20
33.026844085035911
30
0
11
24.777617021655338
21
32.593639552620886
31
0
0
LINE
5
134
100
AcDbEntity
8
CUTOUTS
100
AcDbLine
10
33.32740967898804
20
31.939579834569688
30
0
11
39.208908489699716
21
31.472705397907795
31
0
0
LINE
5
135
100
AcDbEntity
8
CUTOUTS
100
AcDbLine
10
39.208908489699716
20
31.472705397907795
30
0
11
34.611382257488685
21
-26.445104924517334
31
0
0
LINE
5
136
100
AcDbEntity
8
CUTOUTS
100
AcDbLine
10
34.611382257488685
20
-26.445104924517331
30
0
11
28.7298834467747
21
-25.978230487855409
31
0
0
LINE
5
137
100
AcDbEntity
8
CUTOUTS
100
AcDbLine
10
28.7298834467747
20
-25.978230487855409
30
0
11
33.32740967898804
21
31.939579834569685
31
0
0
LINE
5
138
100
AcDbEntity
8
CUTOUTS
100
AcDbLine
10
47.75481770371993
20
30.769723019511748
30
0
11
53.633548066154795
21
30.269193973621753
31
0
0
LINE
5
139
100
AcDbEntity
8
CUTOUTS
100
AcDbLine
10
53.633548066154795
20
30.269193973621753
30
0
11
48.704609495614228
21
-27.621354171720238
31
0
0
LINE
5
13A
100
AcDbEntity
8
CUTOUTS
100
AcDbLine
10
48.704609495614228
20
-27.621354171720238
30
0
11
42.825879133167888
21
-27.120825125829331
31
0
0
LINE
5
13B
100
AcDbEntity
8
CUTOUTS
100
AcDbLine
10
42.825879133167888
20
-27.120825125829331
30
0
11
47.75481770371993
21
30.769723019511748
31
0
0
LINE
5
13C
100
AcDbEntity
8
CUTOUTS
100
AcDbLine
10
62.7908737787428
20
-28.878244901498586
30
0
11
56.915104438699871
21
-28.344077640536565
31
0
0
LINE
5
13D
100
AcDbEntity
8
CUTOUTS
100
AcDbLine
10
56.915104438699871
20
-28.344077640536565
30
0
11
62.175293906801983
21
29.517311962203046
31
0
0
LINE
5
13E
100
AcDbEntity
8
CUTOUTS
100
AcDbLine
10
62.175293906801983
20
29.517311962203046
30
0
11
68.051063246838936
21
28.983144701243017
31
0
0
LINE
5
13F
100
AcDbEntity
8
CUTOUTS
100
AcDbLine
10
68.051063246838936
20
28.983144701243017
30
0
11
62.7908737787428
21
-28.878244901498583
31
0
0
LINE
5
140
100
AcDbEntity
8
CUTOUTS
100
AcDbLine
10
82.460981742001422
20
27.614599712021253
30
0
11
76.8697137214793
21
-30.215735942573616
31
0
0
LINE
5
141
100
AcDbEntity
8
CUTOUTS
100
AcDbLine
10
76.8697137214793
20
-30.215735942573616
30
0
11
70.997097880484176
21
-29.647947968026074
31
0
0
LINE
5
142
100
AcDbEntity
8
CUTOUTS
100
AcDbLine
10
70.997097880484176
20
-29.647947968026074
30
0
11
76.588365901006455
21
28.182387686568802
31
0
0
LINE
5
143
100
AcDbEntity
8
CUTOUTS
100
AcDbLine
10
76.588365901006455
20
28.182387686568809
30
0
11
82.460981742001422
21
27.614599712021253
31
0
0
LINE
5
144
100
AcDbEntity
8
CUTOUTS
100
AcDbLine
10
85.071398130836329
20
-31.032393390682795
30
0
11
90.993561565969756
21
26.764993922654963
31
0
0
LINE
5
145
100
AcDbEntity
8
CUTOUTS
100
AcDbLine
10
90.993561565969756
20
26.764993922654963
30
0
11
96.862831534107769
21
26.16360383199607
31
0
0
LINE
5
146
100
AcDbEntity
8
CUTOUTS
100
AcDbLine
10
96.862831534107769
20
26.16360383199607
30
0
11
90.940668098970576
21
-31.633783481342178
31
0
0
LINE
5
147
100
AcDbEntity
8
CUTOUTS
100
AcDbLine
10
90.940668098970576
20
-31.633783481342171
30
0
11
85.071398130836329
21
-31.032393390682795
31
0
0
LINE
5
148
100
AcDbEntity
8
CUTOUTS
100
AcDbLine
10
111.25614084879373
20
24.630204595002397
30
0
11
105.00327601961044
21
-33.132341067636673
31
0
0
LINE
5
149
100
AcDbEntity
8
CUTOUTS
100
AcDbLine
10
105.00327601961044
20
-33.132341067636673
30
0
11
99.137544188108791
21
-32.497368563467141
31
0
0
LINE
5
14A
100
AcDbEntity
8
CUTOUTS
100
AcDbLine
10
99.137544188108791
20
-32.497368563467141
30
0
11
105.39040901730399
21
25.265177099170906
31
0
0
LINE
5
14B
100
AcDbEntity
8
CUTOUTS
100
AcDbLine
10
105.39040901730399
20
25.265177099170902
30
0
11
111.25614084879373
21
24.630204595002397
31
0
0
LINE
5
14C
100
AcDbEntity
8
CUTOUTS
100
AcDbLine
10
119.05707678926052
20
-34.711359611114148
30
0
11
113.19507524289077
21
-34.04282549065644
31
0
0
LINE
5
14D
100
AcDbEntity
8
CUTOUTS
100
AcDbLine
10
113.19507524289077
20
-34.04282549065644
30
0
11
119.77843666640908
21
23.682986347445933
31
0
0
LINE
5
14E
100
AcDbEntity
8
CUTOUTS
100
AcDbLine
10
119.77843666640908
20
23.682986347445933
30
0
11
125.64043821279353
21
23.014452226985981
31
0
0
LINE
5
14F
100
AcDbEntity
8
CUTOUTS
100
AcDbLine
10
125.64043821279353
20
23.014452226985981
30
0
11
119.05707678926052
21
-34.711359611114155
31
0
0
LINE
5
150
100
AcDbEntity
8
CUTOUTS
100
AcDbLine
10
134.1571731859525
20
22.018473494007218
30
0
11
140.01525242171704
21
21.316399660601704
31
0
0
LINE
5
151
100
AcDbEntity
8
CUTOUTS
100
AcDbLine
10
140.01525242171704
20
21.316399660601704
30
0
11
133.10161009614052
21
-36.370787389856815
31
0
0
LINE
5
152
100
AcDbEntity
8
CUTOUTS
100
AcDbLine
10
133.10161009614052
20
-36.370787389856815
30
0
11
127.24353086036328
21
-35.668713556450733
31
0
0
LINE
5
153
100
AcDbEntity
8
CUTOUTS
100
AcDbLine
10
127.24353086036328
20
-35.668713556450733
30
0
11
134.1571731859525
21
22.018473494007218
31
0
0
LINE
5
154
100
AcDbEntity
8
CUTOUTS
100
AcDbLine
10
154.38011260748115
20
19.536102515529862
30
0
11
147.13641584053818
21
-38.11057004368471
31
0
0
LINE
5
155
100
AcDbEntity
8
CUTOUTS
100
AcDbLine
10
147.13641584053818
20
-38.110570043684717
30
0
11
141.28245081298061
21
-37.374979494200133
31
0
0
LINE
5
156
100
AcDbEntity
8
CUTOUTS
100
AcDbLine
10
141.28245081298061
20
-37.374979494200133
30
0
11
148.52614757995028
21
20.271693065010268
31
0
0
LINE
5
157
100
AcDbEntity
8
CUTOUTS
100
AcDbLine
10
148.52614757995028
20
20.271693065010265
30
0
11
154.38011260748115
21
19.536102515529862
31
0
0
LINE
5
158
100
AcDbEntity
8
PERIMETER
100
AcDbLine
10
160.69185479067914
20
18.727452014774315
30
0
11
166.64134223963759
21
17.950535607647218
31
0
0
LINE
5
159
100
AcDbEntity
8
PERIMETER
100
AcDbLine
10
166.64134223963759
20
17.950535607647218
30
0
11
166.91326292574655
21
20.032855782299421
31
0
0
ARC
5
15A
100
AcDbEntity
8
PERIMETER
100
AcDbCircle
10
-166.85720961672138
20
-2535.5553795656774
30
0
40
2577.2919813226845
210
0
220
-0
230
1
100
AcDbArc
50
82.559049579828823
51
90.001111550028668
0
LINE
5
15B
100
AcDbEntity
8
PERIMETER
100
AcDbLine
10
-166.90720961672352
20
41.73660127200197
30
0
11
-166.90720961672085
21
39.636601757007107
31
0
0
LINE
5
15C
100
AcDbEntity
8
PERIMETER
100
AcDbLine
10
-166.90720961672085
20
39.636601757007107
30
0
11
-160.90720961672164
21
39.636601757007107
31
0
0
LINE
5
15D
100
AcDbEntity
8
PERIMETER
100
AcDbLine
10
-160.90720961672164
20
39.636601757007107
30
0
11
-160.9072096167248
21
-18.463398242992902
31
0
0
LINE
5
15E
100
AcDbEntity
8
PERIMETER
100
AcDbLine
10
-160.90720961672486
20
-18.463398242992906
30
0
11
-166.90720961672412
21
-18.463398242992895
31
0
0
LINE
5
15F
100
AcDbEntity
8
PERIMETER
100
AcDbLine
10
-166.90720961672412
20
-18.463398242992895
30
0
11
-166.90720961672457
21
-20.563398740013028
31
0
0
ARC
5
160
100
AcDbEntity
8
PERIMETER
100
AcDbCircle
10
-166.85720961672573
20
-2535.5553795686192
30
0
40
2514.9919813256256
210
0
220
-0
230
1
100
AcDbArc
50
82.559023439610996
51
90.001139084735499
0
LINE
5
161
100
AcDbEntity
8
PERIMETER
100
AcDbLine
10
158.84628089538199
20
-41.742655565386073
30
0
11
159.11820169577157
21
-39.660334515603061
31
0
0
LINE
5
162
100
AcDbEntity
8
PERIMETER
100
AcDbLine
10
159.11820169577157
20
-39.660334515603061
30
0
11
153.16871424926856
21
-38.883418108796555
31
0
0
LINE
5
163
100
AcDbEntity
8
PERIMETER
100
AcDbLine
10
153.16871424926856
20
-38.883418108796555
30
0
11
160.69185479067914
21
18.727452014774315
31
0
0
ENDSEC
0
SECTION
2
OBJECTS
0
DICTIONARY
5
C
100
AcDbDictionary
3
ACAD_GROUP
350
D
3
ACAD_MLINESTYLE
350
17
0
DICTIONARY
5
D
100
AcDbDictionary
0
DICTIONARY
5
1A
330
C
100
AcDbDictionary
0
DICTIONARY
5
17
100
AcDbDictionary
0
ENDSEC
0
EOF
