0
SECTION
2
HEADER
9
$INSUNITS
70
4
9
$ACADVER
1
AC1014
9
$HANDSEED
5
FFFF
0
ENDSEC
0
SECTION
2
TABLES
0
TABLE
2
VPORT
5
8
100
AcDbSymbolTable
0
ENDTAB
0
TABLE
2
LTYPE
5
5
100
AcDbSymbolTable
70
2
0
LTYPE
5
14
100
AcDbSymbolTableRecord
100
AcDbLinetypeTableRecord
2
BYBLOCK
70
0
0
LTYPE
5
15
100
AcDbSymbolTableRecord
100
AcDbLinetypeTableRecord
2
BYLAYER
70
0
0
ENDTAB
0
TABLE
2
LAYER
5
2
100
AcDbSymbolTable
70
3
0
LAYER
5
50
100
AcDbSymbolTableRecord
100
AcDbLayerTableRecord
2
0
70
0
6
CONTINUOUS
0
LAYER
5
51
100
AcDbSymbolTableRecord
100
AcDbLayerTableRecord
2
CUTOUTS
70
0
62
1
6
CONTINUOUS
0
LAYER
5
52
100
AcDbSymbolTableRecord
100
AcDbLayerTableRecord
2
PERIMETER
70
0
62
5
6
CONTINUOUS
0
ENDTAB
0
TABLE
2
STYLE
5
3
100
AcDbSymbolTable
70
1
0
STYLE
5
11
100
AcDbSymbolTableRecord
100
AcDbTextStyleTableRecord
2
STANDARD
70
0
0
ENDTAB
0
TABLE
2
VIEW
5
6
100
AcDbSymbolTable
0
ENDTAB
0
TABLE
2
UCS
5
7
100
AcDbSymbolTable
0
ENDTAB
0
TABLE
2
APPID
5
9
100
AcDbSymbolTable
70
1
0
APPID
5
12
100
AcDbSymbolTableRecord
100
AcDbRegAppTableRecord
2
ACAD
70
0
0
ENDTAB
0
TABLE
2
DIMSTYLE
5
A
100
AcDbSymbolTable
0
ENDTAB
0
TABLE
2
BLOCK_RECORD
5
1
100
AcDbSymbolTable
70
2
0
BLOCK_RECORD
5
1F
100
AcDbSymbolTableRecord
100
AcDbBlockTableRecord
2
*MODEL_SPACE
0
BLOCK_RECORD
5
1B
100
AcDbSymbolTableRecord
100
AcDbBlockTableRecord
2
*PAPER_SPACE
0
ENDTAB
0
ENDSEC
0
SECTION
2
BLOCKS
0
BLOCK
5
20
100
AcDbEntity
100
AcDbBlockBegin
2
*MODEL_SPACE
0
ENDBLK
5
21
100
AcDbEntity
100
AcDbBlockEnd
0
BLOCK
5
1C
100
AcDbEntity
100
AcDbBlockBegin
2
*PAPER_SPACE
0
ENDBLK
5
1D
100
AcDbEntity
100
AcDbBlockEnd
0
ENDSEC
0
SECTION
2
ENTITIES
0
LINE
5
100
100
AcDbEntity
8
CUTOUTS
100
AcDbLine
10
-155.16122390280384
20
-18.493220280679516
30
0
11
-154.88180574963121
21
39.606107817807896
31
0
0
LINE
5
101
100
AcDbEntity
8
CUTOUTS
100
AcDbLine
10
-154.88180574963121
20
39.606107817807896
30
0
11
-148.98187398059375
21
39.577733168862572
31
0
0
LINE
5
102
100
AcDbEntity
8
CUTOUTS
100
AcDbLine
10
-148.98187398059378
20
39.577733168862572
30
0
11
-149.26129213376629
21
-18.521594929624925
31
0
0
LINE
5
103
100
AcDbEntity
8
CUTOUTS
100
AcDbLine
10
-149.26129213376629
20
-18.521594929624925
30
0
11
-155.16122390280384
21
-18.493220280679516
31
0
0
LINE
5
104
100
AcDbEntity
8
CUTOUTS
100
AcDbLine
10
-134.5076795663964
20
39.449815671475463
30
0
11
-135.11961956236965
21
-18.646961600945904
31
0
0
LINE
5
105
100
AcDbEntity
8
CUTOUTS
100
AcDbLine
10
-135.11961956236965
20
-18.646961600945904
30
0
11
-141.01929229743558
21
-18.584819673643889
31
0
0
LINE
5
106
100
AcDbEntity
8
CUTOUTS
100
AcDbLine
10
-141.01929229743558
20
-18.584819673643889
30
0
11
-140.40735230146146
21
39.511957598777443
31
0
0
LINE
5
107
100
AcDbEntity
8
CUTOUTS
100
AcDbLine
10
-140.40735230146146
20
39.511957598777443
30
0
11
-134.50767956639643
21
39.449815671475463
31
0
0
LINE
5
108
100
AcDbEntity
8
CUTOUTS
100
AcDbLine
10
-126.87811664704614
20
-18.75735706277597
30
0
11
-125.93367476167003
21
39.334966264193483
31
0
0
LINE
5
109
100
AcDbEntity
8
CUTOUTS
100
AcDbLine
10
-125.93367476167003
20
39.334966264193483
30
0
11
-120.03445432054906
21
39.239059084783612
31
0
0
LINE
5
10A
100
AcDbEntity
8
CUTOUTS
100
AcDbLine
10
-120.03445432054906
20
39.239059084783612
30
0
11
-120.97889620592466
21
-18.853264242185862
31
0
0
LINE
5
10B
100
AcDbEntity
8
CUTOUTS
100
AcDbLine
10
-120.97889620592466
20
-18.853264242185858
30
0
11
-126.87811664704614
21
-18.75735706277597
31
0
0
LINE
5
10C
100
AcDbEntity
8
CUTOUTS
100
AcDbLine
10
-111.46124725903633
20
39.075139609221104
30
0
11
-105.56267235706713
21
38.94547031500678
31
0
0
LINE
5
10D
100
AcDbEntity
8
CUTOUTS
100
AcDbLine
10
-105.56267235706714
20
38.94547031500678
30
0
11
-106.83958523738215
21
-19.140496092518067
31
0
0
LINE
5
10E
100
AcDbEntity
8
CUTOUTS
100
AcDbLine
10
-106.83958523738215
20
-19.140496092518067
30
0
11
-112.73816013935188
21
-19.010826798303711
31
0
0
LINE
5
10F
100
AcDbEntity
8
CUTOUTS
100
AcDbLine
10
-112.73816013935189
20
-19.010826798303711
30
0
11
-111.46124725903634
21
39.075139609221104
31
0
0
LINE
5
110
100
AcDbEntity
8
CUTOUTS
100
AcDbLine
10
-98.599885915170944
20
-19.345220580858822
30
0
11
-96.990543883466827
21
38.732486142332512
31
0
0
LINE
5
111
100
AcDbEntity
8
CUTOUTS
100
AcDbLine
10
-96.990543883466842
20
38.732486142332512
30
0
11
-91.092807744622775
21
38.569058982486695
31
0
0
LINE
5
112
100
AcDbEntity
8
CUTOUTS
100
AcDbLine
10
-91.092807744622775
20
38.569058982486695
30
0
11
-92.70214977632547
21
-19.508647740704657
31
0
0
LINE
5
113
100
AcDbEntity
8
CUTOUTS
100
AcDbLine
10
-92.70214977632547
20
-19.508647740704657
30
0
11
-98.599885915170944
21
-19.345220580858822
31
0
0
LINE
5
114
100
AcDbEntity
8
CUTOUTS
100
AcDbLine
10
-84.463757143859084
20
-19.760527452967295
30
0
11
-82.522038643950069
21
38.307017090152115
31
0
0
LINE
5
115
100
AcDbEntity
8
CUTOUTS
100
AcDbLine
10
-82.522038643950069
20
38.307017090152115
30
0
11
-76.625334464872381
21
38.109837414602396
31
0
0
LINE
5
116
100
AcDbEntity
8
CUTOUTS
100
AcDbLine
10
-76.625334464872381
20
38.109837414602396
30
0
11
-78.567052964777929
21
-19.95770712851715
31
0
0
LINE
5
117
100
AcDbEntity
8
CUTOUTS
100
AcDbLine
10
-78.567052964777929
20
-19.95770712851715
30
0
11
-84.463757143859084
21
-19.760527452967295
31
0
0
LINE
5
118
100
AcDbEntity
8
CUTOUTS
100
AcDbLine
10
-62.160726443006794
20
37.567820656937798
30
0
11
-64.43475779222014
21
-20.487659544528356
31
0
0
LINE
5
119
100
AcDbEntity
8
CUTOUTS
100
AcDbLine
10
-64.43475779222014
20
-20.487659544528356
30
0
11
-70.330236848824654
21
-20.256733813713595
31
0
0
LINE
5
11A
100
AcDbEntity
8
CUTOUTS
100
AcDbLine
10
-70.330236848824654
20
-20.256733813713595
30
0
11
-68.056205499610499
21
37.798746387752516
31
0
0
LINE
5
11B
100
AcDbEntity
8
CUTOUTS
100
AcDbLine
10
-68.056205499610499
20
37.798746387752516
30
0
11
-62.160726443006794
21
37.567820656937798
31
0
0
LINE
5
11C
100
AcDbEntity
8
CUTOUTS
100
AcDbLine
10
-56.199788017024289
20
-20.833823407568808
30
0
11
-53.593518307690772
21
37.207690685383355
31
0
0
LINE
5
11D
100
AcDbEntity
8
CUTOUTS
100
AcDbLine
10
-53.593518307690772
20
37.207690685383355
30
0
11
-47.699457496186284
21
36.943026463608788
31
0
0
LINE
5
11E
100
AcDbEntity
8
CUTOUTS
100
AcDbLine
10
-47.699457496186284
20
36.943026463608788
30
0
11
-50.305727205519105
21
-21.098487629342731
31
0
0
LINE
5
11F
100
AcDbEntity
8
CUTOUTS
100
AcDbLine
10
-50.305727205519105
20
-21.098487629342735
30
0
11
-56.199788017024289
21
-20.833823407568808
31
0
0
LINE
5
120
100
AcDbEntity
8
CUTOUTS
100
AcDbLine
10
-33.242001337405171
20
36.235475301662007
30
0
11
-36.180424026504966
21
-21.790171373755108
31
0
0
LINE
5
121
100
AcDbEntity
8
CUTOUTS
100
AcDbLine
10
-36.180424026504966
20
-21.790171373755108
30
0
11
-42.072873516784938
21
-21.491777331315465
31
0
0
LINE
5
122
100
AcDbEntity
8
CUTOUTS
100
AcDbLine
10
-42.072873516784938
20
-21.491777331315465
30
0
11
-39.134450827679395
21
36.533869344100395
31
0
0
LINE
5
123
100
AcDbEntity
8
CUTOUTS
100
AcDbLine
10
-39.134450827679395
20
36.533869344100395
30
0
11
-33.242001337405171
21
36.235475301662007
31
0
0
LINE
5
124
100
AcDbEntity
8
CUTOUTS
100
AcDbLine
10
-24.679476702966241
20
35.777304435761373
30
0
11
-18.788831557152843
21
35.445190349765205
31
0
0
LINE
5
125
100
AcDbEntity
8
CUTOUTS
100
AcDbLine
10
-18.788831557152843
20
35.445190349765205
30
0
11
-22.059310946370285
21
-22.562688120015082
31
0
0
LINE
5
126
100
AcDbEntity
8
CUTOUTS
100
AcDbLine
10
-22.059310946370285
20
-22.562688120015082
30
0
11
-27.949956092187218
21
-22.230574034019241
31
0
0
LINE
5
127
100
AcDbEntity
8
CUTOUTS
100
AcDbLine
10
-27.949956092187218
20
-22.230574034019241
30
0
11
-24.679476702966241
21
35.777304435761373
31
0
0
LINE
5
128
100
AcDbEntity
8
CUTOUTS
100
AcDbLine
10
-10.229069423067561
20
34.938020745968913
30
0
11
-4.3404215862333295
21
34.572197491186031
31
0
0
LINE
5
129
100
AcDbEntity
8
CUTOUTS
100
AcDbLine
10
-4.3404215862333295
20
34.572197491186031
30
0
11
-7.9428505867189969
21
-23.416012563070542
31
0
0
LINE
5
12A
100
AcDbEntity
8
CUTOUTS
100
AcDbLine
10
-7.9428505867189969
20
-23.416012563070545
30
0
11
-13.831498423564028
21
-23.050189308287443
31
0
0
LINE
5
12B
100
AcDbEntity
8
CUTOUTS
100
AcDbLine
10
-13.831498423564028
20
-23.050189308287443
30
0
11
-10.229069423067561
21
34.938020745968913
31
0
0
LINE
5
12C
100
AcDbEntity
8
CUTOUTS
100
AcDbLine
10
6.1684947129548462
20
-24.350116749920197
30
0
11
0.28203708357750656
21
-23.950596315357203
31
0
0
LINE
5
12D
100
AcDbEntity
8
CUTOUTS
100
AcDbLine
10
0.28203708357750656
20
-23.950596315357203
30
0
11
4.2162976341091252
21
34.016045763692766
31
0
0
LINE
5
12E
100
AcDbEntity
8
CUTOUTS
100
AcDbLine
10
4.2162976341091252
20
34.016045763692766
30
0
11
10.102755263478151
21
33.616525329130127
31
0
0
LINE
5
12F
100
AcDbEntity
8
CUTOUTS
100
AcDbLine
10
10.102755263478151
20
33.616525329130127
30
0
11
6.1684947129548462
21
-24.350116749920197
31
0
0
LINE
5
130
100
AcDbEntity
8
CUTOUTS
100
AcDbLine
10
24.540225897207328
20
32.578205161787892
30
0
11
20.274262620378813
21
-25.364970081902356
31
0
0
LINE
5
131
100
AcDbEntity
8
CUTOUTS
100
AcDbLine
10
20.274262620378813
20
-25.364970081902356
30
0
11
14.390188025915727
21
-24.931765549486791
31
0
0
LINE
5
132
100
AcDbEntity
8
CUTOUTS
100
AcDbLine
10
14.390188025915727
20
-24.931765549486791
30
0
11
18.656151302753976
21
33.011409694202918
31
0
0
LINE
5
133
100
AcDbEntity
8
CUTOUTS
100
AcDbLine
10
18.656151302753976
20
33.011409694202918
30
0
11
24.540225897207328
21
32.578205161787892
31
0
0
LINE
5
134
100
AcDbEntity
8
CUTOUTS
100
AcDbLine
10
38.971517365251707
20
31.457271007074802
30
0
11
34.373991133040676
21
-26.460539315350328
31
0
0
LINE
5
135
100
AcDbEntity
8
CUTOUTS
100
AcDbLine
10
34.373991133040676
20
-26.460539315350324
30
0
11
28.49249232232669
21
-25.993664878688403
31
0
0
LINE
5
136
100
AcDbEntity
8
CUTOUTS
100
AcDbLine
10
28.49249232232669
20
-25.993664878688403
30
0
11
33.09001855454003
21
31.924145443736691
31
0
0
LINE
5
137
100
AcDbEntity
8
CUTOUTS
100
AcDbLine
10
33.09001855454003
20
31.924145443736695
30
0
11
38.971517365251707
21
31.457271007074802
31
0
0
LINE
5
138
100
AcDbEntity
8
CUTOUTS
100
AcDbLine
10
47.51742657927192
20
30.754288628678754
30
0
11
53.396156941706785
21
30.25375958278876
31
0
0
LINE
5
139
100
AcDbEntity
8
CUTOUTS
100
AcDbLine
10
53.396156941706785
20
30.25375958278876
30
0
11
48.467218371166219
21
-27.636788562553232
31
0
0
LINE
5
13A
100
AcDbEntity
8
CUTOUTS
100
AcDbLine
10
48.467218371166219
20
-27.636788562553232
30
0
11
42.588488008719878
21
-27.136259516662324
31
0
0
LINE
5
13B
100
AcDbEntity
8
CUTOUTS
100
AcDbLine
10
42.588488008719878
20
-27.136259516662324
30
0
11
47.51742657927192
21
30.754288628678754
31
0
0
LINE
5
13C
100
AcDbEntity
8
CUTOUTS
100
AcDbLine
10
62.55348265429479
20
-28.89367929233158
30
0
11
56.677713314251861
21
-28.359512031369558
31
0
0
LINE
5
13D
100
AcDbEntity
8
CUTOUTS
100
AcDbLine
10
56.677713314251861
20
-28.359512031369558
30
0
11
61.937902782353973
21
29.501877571370052
31
0
0
LINE
5
13E
100
AcDbEntity
8
CUTOUTS
100
AcDbLine
10
61.937902782353973
20
29.501877571370052
30
0
11
67.813672122390926
21
28.967710310410023
31
0
0
LINE
5
13F
100
AcDbEntity
8
CUTOUTS
100
AcDbLine
10
67.813672122390926
20
28.967710310410023
30
0
11
62.55348265429479
21
-28.893679292331576
31
0
0
LINE
5
140
100
AcDbEntity
8
CUTOUTS
100
AcDbLine
10
82.223590617553413
20
27.599165321188259
30
0
11
76.63232259703129
21
-30.23117033340661
31
0
0
LINE
5
141
100
AcDbEntity
8
CUTOUTS
100
AcDbLine
10
76.63232259703129
20
-30.23117033340661
30
0
11
70.759706756036167
21
-29.663382358859067
31
0
0
LINE
5
142
100
AcDbEntity
8
CUTOUTS
100
AcDbLine
10
70.759706756036167
20
-29.663382358859067
30
0
11
76.350974776558445
21
28.166953295735809
31
0
0
LINE
5
143
100
AcDbEntity
8
CUTOUTS
100
AcDbLine
10
76.350974776558445
20
28.166953295735816
30
0
11
82.223590617553413
21
27.599165321188259
31
0
0
LINE
5
144
100
AcDbEntity
8
CUTOUTS
100
AcDbLine
10
84.834007006388319
20
-31.047827781515789
30
0
11
90.756170441521746
21
26.749559531821969
31
0
0
LINE
5
145
100
AcDbEntity
8
CUTOUTS
100
AcDbLine
10
90.756170441521746
20
26.749559531821969
30
0
11
96.62544040965976
21
26.148169441163077
31
0
0
LINE
5
146
100
AcDbEntity
8
CUTOUTS
100
AcDbLine
10
96.62544040965976
20
26.148169441163077
30
0
11
90.703276974522566
21
-31.649217872175171
31
0
0
LINE
5
147
100
AcDbEntity
8
CUTOUTS
100
AcDbLine
10
90.703276974522566
20
-31.649217872175164
30
0
11
84.834007006388319
21
-31.047827781515789
31
0
0
LINE
5
148
100
AcDbEntity
8
CUTOUTS
100
AcDbLine
10
111.01874972434572
20
24.614770204169403
30
0
11
104.76588489516243
21
-33.147775458469667
31
0
0
LINE
5
149
100
AcDbEntity
8
CUTOUTS
100
AcDbLine
10
104.76588489516243
20
-33.147775458469667
30
0
11
98.900153063660781
21
-32.512802954300135
31
0
0
LINE
5
14A
100
AcDbEntity
8
CUTOUTS
100
AcDbLine
10
98.900153063660781
20
-32.512802954300135
30
0
11
105.15301789285598
21
25.249742708337912
31
0
0
LINE
5
14B
100
AcDbEntity
8
CUTOUTS
100
AcDbLine
10
105.15301789285598
20
25.249742708337912
30
0
11
111.01874972434572
21
24.614770204169403
31
0
0
LINE
5
14C
100
AcDbEntity
8
CUTOUTS
100
AcDbLine
10
118.81968566481251
20
-34.726794001947141
30
0
11
112.95768411844276
21
-34.058259881489434
31
0
0
LINE
5
14D
100
AcDbEntity
8
CUTOUTS
100
AcDbLine
10
112.95768411844276
20
-34.058259881489434
30
0
11
119.54104554196107
21
23.66755195661294
31
0
0
LINE
5
14E
100
AcDbEntity
8
CUTOUTS
100
AcDbLine
10
119.54104554196107
20
23.66755195661294
30
0
11
125.40304708834552
21
22.999017836152987
31
0
0
LINE
5
14F
100
AcDbEntity
8
CUTOUTS
100
AcDbLine
10
125.40304708834552
20
22.999017836152987
30
0
11
118.81968566481251
21
-34.726794001947148
31
0
0
LINE
5
150
100
AcDbEntity
8
CUTOUTS
100
AcDbLine
10
133.91978206150446
20
22.003039103174224
30
0
11
139.777861297269
21
21.30096526976871
31
0
0
LINE
5
151
100
AcDbEntity
8
CUTOUTS
100
AcDbLine
10
139.777861297269
20
21.30096526976871
30
0
11
132.86421897169251
21
-36.386221780689809
31
0
0
LINE
5
152
100
AcDbEntity
8
CUTOUTS
100
AcDbLine
10
132.86421897169251
20
-36.386221780689809
30
0
11
127.00613973591527
21
-35.684147947283726
31
0
0
LINE
5
153
100
AcDbEntity
8
CUTOUTS
100
AcDbLine
10
127.00613973591527
20
-35.684147947283726
30
0
11
133.91978206150446
21
22.003039103174224
31
0
0
LINE
5
154
100
AcDbEntity
8
CUTOUTS
100
AcDbLine
10
154.14272148303314
20
19.520668124696869
30
0
11
146.89902471609017
21
-38.126004434517704
31
0
0
LINE
5
155
100
AcDbEntity
8
CUTOUTS
100
AcDbLine
10
146.89902471609017
20
-38.126004434517711
30
0
11
141.0450596885326
21
-37.390413885033126
31
0
0
LINE
5
156
100
AcDbEntity
8
CUTOUTS
100
AcDbLine
10
141.0450596885326
20
-37.390413885033126
30
0
11
148.28875645550227
21
20.256258674177275
31
0
0
LINE
5
157
100
AcDbEntity
8
CUTOUTS
100
AcDbLine
10
148.28875645550227
20
20.256258674177271
30
0
11
154.14272148303314
21
19.520668124696869
31
0
0
LINE
5
158
100
AcDbEntity
8
PERIMETER
100
AcDbLine
10
158.88081057132351
20
-39.675768906436048
30
0
11
152.93132312482055
21
-38.898852499629548
31
0
0
LINE
5
159
100
AcDbEntity
8
PERIMETER
100
AcDbLine
10
152.93132312482055
20
-38.898852499629548
30
0
11
160.45446366623113
21
18.712017623941321
31
0
0
LINE
5
15A
100
AcDbEntity
8
PERIMETER
100
AcDbLine
10
160.45446366623113
20
18.712017623941321
30
0
11
166.40395111518959
21
17.935101216814225
31
0
0
LINE
5
15B
100
AcDbEntity
8
PERIMETER
100
AcDbLine
10
166.40395111518959
20
17.935101216814225
30
0
11
167.15065405027471
21
23.653219277081519
31
0
0
ARC
5
15C
100
AcDbEntity
8
PERIMETER
100
AcDbCircle
10
-167.09460074116942
20
-2535.5708139563076
30
0
40
2580.9586479891482
210
0
220
-0
230
1
100
AcDbArc
50
82.559051078989285
51
90.001109970893083
0
LINE
5
15D
100
AcDbEntity
8
PERIMETER
100
AcDbLine
10
-167.14460074116946
20
45.387833548524682
30
0
11
-167.14460074116897
21
39.621167366174113
31
0
0
LINE
5
15E
100
AcDbEntity
8
PERIMETER
100
AcDbLine
10
-167.14460074116897
20
39.621167366174113
30
0
11
-161.14460074116971
21
39.621167366174113
31
0
0
LINE
5
15F
100
AcDbEntity
8
PERIMETER
100
AcDbLine
10
-161.14460074116965
20
39.621167366174113
30
0
11
-161.14460074117284
21
-18.478832633825895
31
0
0
LINE
5
160
100
AcDbEntity
8
PERIMETER
100
AcDbLine
10
-161.14460074117287
20
-18.478832633825899
30
0
11
-167.14460074117216
21
-18.478832633825888
31
0
0
LINE
5
161
100
AcDbEntity
8
PERIMETER
100
AcDbLine
10
-167.14460074117213
20
-18.478832633825888
30
0
11
-167.14460074117261
21
-24.245499798237802
31
0
0
ARC
5
162
100
AcDbEntity
8
PERIMETER
100
AcDbCircle
10
-167.0946007411772
20
-2535.5708139597127
30
0
40
2511.3253146592201
210
0
220
-0
230
1
100
AcDbArc
50
82.559021860716172
51
90.001140747858798
0
LINE
5
163
100
AcDbEntity
8
PERIMETER
100
AcDbLine
10
158.13410752195577
20
-45.393887841866558
30
0
11
158.88081057132351
21
-39.675768906436048
31
0
0
ENDSEC
0
SECTION
2
OBJECTS
0
DICTIONARY
5
C
100
AcDbDictionary
3
ACAD_GROUP
350
D
3
ACAD_MLINESTYLE
350
17
0
DICTIONARY
5
D
100
AcDbDictionary
0
DICTIONARY
5
1A
330
C
100
AcDbDictionary
0
DICTIONARY
5
17
100
AcDbDictionary
0
ENDSEC
0
EOF
