0
SECTION
2
HEADER
9
$INSUNITS
70
4
9
$ACADVER
1
AC1014
9
$HANDSEED
5
FFFF
0
ENDSEC
0
SECTION
2
TABLES
0
TABLE
2
VPORT
5
8
100
AcDbSymbolTable
0
ENDTAB
0
TABLE
2
LTYPE
5
5
100
AcDbSymbolTable
70
2
0
LTYPE
5
14
100
AcDbSymbolTableRecord
100
AcDbLinetypeTableRecord
2
BYBLOCK
70
0
0
LTYPE
5
15
100
AcDbSymbolTableRecord
100
AcDbLinetypeTableRecord
2
BYLAYER
70
0
0
ENDTAB
0
TABLE
2
LAYER
5
2
100
AcDbSymbolTable
70
3
0
LAYER
5
50
100
AcDbSymbolTableRecord
100
AcDbLayerTableRecord
2
0
70
0
6
CONTINUOUS
0
LAYER
5
51
100
AcDbSymbolTableRecord
100
AcDbLayerTableRecord
2
CUTOUTS
70
0
62
1
6
CONTINUOUS
0
LAYER
5
52
100
AcDbSymbolTableRecord
100
AcDbLayerTableRecord
2
PERIMETER
70
0
62
5
6
CONTINUOUS
0
ENDTAB
0
TABLE
2
STYLE
5
3
100
AcDbSymbolTable
70
1
0
STYLE
5
11
100
AcDbSymbolTableRecord
100
AcDbTextStyleTableRecord
2
STANDARD
70
0
0
ENDTAB
0
TABLE
2
VIEW
5
6
100
AcDbSymbolTable
0
ENDTAB
0
TABLE
2
UCS
5
7
100
AcDbSymbolTable
0
ENDTAB
0
TABLE
2
APPID
5
9
100
AcDbSymbolTable
70
1
0
APPID
5
12
100
AcDbSymbolTableRecord
100
AcDbRegAppTableRecord
2
ACAD
70
0
0
ENDTAB
0
TABLE
2
DIMSTYLE
5
A
100
AcDbSymbolTable
0
ENDTAB
0
TABLE
2
BLOCK_RECORD
5
1
100
AcDbSymbolTable
70
2
0
BLOCK_RECORD
5
1F
100
AcDbSymbolTableRecord
100
AcDbBlockTableRecord
2
*MODEL_SPACE
0
BLOCK_RECORD
5
1B
100
AcDbSymbolTableRecord
100
AcDbBlockTableRecord
2
*PAPER_SPACE
0
ENDTAB
0
ENDSEC
0
SECTION
2
BLOCKS
0
BLOCK
5
20
100
AcDbEntity
100
AcDbBlockBegin
2
*MODEL_SPACE
0
ENDBLK
5
21
100
AcDbEntity
100
AcDbBlockEnd
0
BLOCK
5
1C
100
AcDbEntity
100
AcDbBlockBegin
2
*PAPER_SPACE
0
ENDBLK
5
1D
100
AcDbEntity
100
AcDbBlockEnd
0
ENDSEC
0
SECTION
2
ENTITIES
0
LINE
5
100
100
AcDbEntity
8
CUTOUTS
100
AcDbLine
10
148.15000000000003
20
29.100000000000001
30
0
11
154.14999999999992
21
29.100000000000001
31
0
0
LINE
5
101
100
AcDbEntity
8
CUTOUTS
100
AcDbLine
10
154.14999999999992
20
29.100000000000001
30
0
11
154.14999999999964
21
-29.100000000000001
31
0
0
LINE
5
102
100
AcDbEntity
8
CUTOUTS
100
AcDbLine
10
154.14999999999964
20
-29.100000000000001
30
0
11
148.14999999999975
21
-29.100000000000001
31
0
0
LINE
5
103
100
AcDbEntity
8
CUTOUTS
100
AcDbLine
10
148.14999999999975
20
-29.100000000000001
30
0
11
148.15000000000003
21
29.100000000000001
31
0
0
LINE
5
104
100
AcDbEntity
8
CUTOUTS
100
AcDbLine
10
139.74999999999997
20
29.100000000000001
30
0
11
139.74999999999955
21
-29.100000000000001
31
0
0
LINE
5
105
100
AcDbEntity
8
CUTOUTS
100
AcDbLine
10
139.74999999999955
20
-29.100000000000001
30
0
11
133.74999999999983
21
-29.100000000000001
31
0
0
LINE
5
106
100
AcDbEntity
8
CUTOUTS
100
AcDbLine
10
133.74999999999983
20
-29.100000000000001
30
0
11
133.75000000000011
21
29.100000000000001
31
0
0
LINE
5
107
100
AcDbEntity
8
CUTOUTS
100
AcDbLine
10
133.75000000000011
20
29.100000000000001
30
0
11
139.74999999999997
21
29.100000000000001
31
0
0
LINE
5
108
100
AcDbEntity
8
CUTOUTS
100
AcDbLine
10
119.35000000000038
20
29.100000000000001
30
0
11
125.34999999999997
21
29.100000000000001
31
0
0
LINE
5
109
100
AcDbEntity
8
CUTOUTS
100
AcDbLine
10
125.34999999999997
20
29.100000000000001
30
0
11
125.34999999999968
21
-29.100000000000001
31
0
0
LINE
5
10A
100
AcDbEntity
8
CUTOUTS
100
AcDbLine
10
125.34999999999968
20
-29.100000000000001
30
0
11
119.34999999999953
21
-29.100000000000001
31
0
0
LINE
5
10B
100
AcDbEntity
8
CUTOUTS
100
AcDbLine
10
119.34999999999953
20
-29.100000000000001
30
0
11
119.35000000000038
21
29.100000000000001
31
0
0
LINE
5
10C
100
AcDbEntity
8
CUTOUTS
100
AcDbLine
10
104.9500000000003
20
29.100000000000001
30
0
11
110.95000000000002
21
29.100000000000001
31
0
0
LINE
5
10D
100
AcDbEntity
8
CUTOUTS
100
AcDbLine
10
110.95000000000002
20
29.100000000000001
30
0
11
110.94999999999973
21
-29.100000000000001
31
0
0
LINE
5
10E
100
AcDbEntity
8
CUTOUTS
100
AcDbLine
10
110.94999999999973
20
-29.100000000000001
30
0
11
104.94999999999973
21
-29.100000000000001
31
0
0
LINE
5
10F
100
AcDbEntity
8
CUTOUTS
100
AcDbLine
10
104.94999999999973
20
-29.100000000000001
30
0
11
104.9500000000003
21
29.100000000000001
31
0
0
LINE
5
110
100
AcDbEntity
8
CUTOUTS
100
AcDbLine
10
90.549999999999642
20
-29.100000000000001
30
0
11
90.550000000000495
21
29.100000000000001
31
0
0
LINE
5
111
100
AcDbEntity
8
CUTOUTS
100
AcDbLine
10
90.550000000000495
20
29.100000000000001
30
0
11
96.550000000000082
21
29.100000000000001
31
0
0
LINE
5
112
100
AcDbEntity
8
CUTOUTS
100
AcDbLine
10
96.550000000000082
20
29.100000000000001
30
0
11
96.549999999999798
21
-29.100000000000001
31
0
0
LINE
5
113
100
AcDbEntity
8
CUTOUTS
100
AcDbLine
10
96.549999999999798
20
-29.100000000000001
30
0
11
90.549999999999642
21
-29.100000000000001
31
0
0
LINE
5
114
100
AcDbEntity
8
CUTOUTS
100
AcDbLine
10
82.150000000000006
20
29.100000000000001
30
0
11
82.15000000000029
21
-29.100000000000001
31
0
0
LINE
5
115
100
AcDbEntity
8
CUTOUTS
100
AcDbLine
10
82.15000000000029
20
-29.100000000000001
30
0
11
76.14999999999992
21
-29.100000000000001
31
0
0
LINE
5
116
100
AcDbEntity
8
CUTOUTS
100
AcDbLine
10
76.14999999999992
20
-29.100000000000001
30
0
11
76.150000000000063
21
29.100000000000001
31
0
0
LINE
5
117
100
AcDbEntity
8
CUTOUTS
100
AcDbLine
10
76.150000000000063
20
29.100000000000001
30
0
11
82.150000000000006
21
29.100000000000001
31
0
0
LINE
5
118
100
AcDbEntity
8
CUTOUTS
100
AcDbLine
10
61.750000000000149
20
29.100000000000001
30
0
11
67.750000000000085
21
29.100000000000001
31
0
0
LINE
5
119
100
AcDbEntity
8
CUTOUTS
100
AcDbLine
10
67.750000000000085
20
29.100000000000001
30
0
11
67.750000000000227
21
-29.100000000000001
31
0
0
LINE
5
11A
100
AcDbEntity
8
CUTOUTS
100
AcDbLine
10
67.750000000000227
20
-29.100000000000001
30
0
11
61.750000000000007
21
-29.100000000000001
31
0
0
LINE
5
11B
100
AcDbEntity
8
CUTOUTS
100
AcDbLine
10
61.750000000000007
20
-29.100000000000001
30
0
11
61.750000000000149
21
29.100000000000001
31
0
0
LINE
5
11C
100
AcDbEntity
8
CUTOUTS
100
AcDbLine
10
47.350000000000314
20
-29.100000000000001
30
0
11
47.35000000000003
21
29.100000000000001
31
0
0
LINE
5
11D
100
AcDbEntity
8
CUTOUTS
100
AcDbLine
10
47.35000000000003
20
29.100000000000001
30
0
11
53.350000000000186
21
29.100000000000001
31
0
0
LINE
5
11E
100
AcDbEntity
8
CUTOUTS
100
AcDbLine
10
53.350000000000186
20
29.100000000000001
30
0
11
53.350000000000186
21
-29.100000000000001
31
0
0
LINE
5
11F
100
AcDbEntity
8
CUTOUTS
100
AcDbLine
10
53.350000000000186
20
-29.100000000000001
30
0
11
47.350000000000314
21
-29.100000000000001
31
0
0
LINE
5
120
100
AcDbEntity
8
CUTOUTS
100
AcDbLine
10
32.950000000000195
20
-29.100000000000001
30
0
11
32.950000000000053
21
29.100000000000001
31
0
0
LINE
5
121
100
AcDbEntity
8
CUTOUTS
100
AcDbLine
10
32.950000000000053
20
29.100000000000001
30
0
11
38.950000000000138
21
29.100000000000001
31
0
0
LINE
5
122
100
AcDbEntity
8
CUTOUTS
100
AcDbLine
10
38.950000000000138
20
29.100000000000001
30
0
11
38.950000000000351
21
-29.100000000000001
31
0
0
LINE
5
123
100
AcDbEntity
8
CUTOUTS
100
AcDbLine
10
38.950000000000351
20
-29.100000000000001
30
0
11
32.950000000000195
21
-29.100000000000001
31
0
0
LINE
5
124
100
AcDbEntity
8
CUTOUTS
100
AcDbLine
10
24.550000000000161
20
29.100000000000001
30
0
11
24.550000000000303
21
-29.100000000000001
31
0
0
LINE
5
125
100
AcDbEntity
8
CUTOUTS
100
AcDbLine
10
24.550000000000303
20
-29.100000000000001
30
0
11
18.550000000000288
21
-29.100000000000001
31
0
0
LINE
5
126
100
AcDbEntity
8
CUTOUTS
100
AcDbLine
10
18.550000000000288
20
-29.100000000000001
30
0
11
18.550000000000004
21
29.100000000000001
31
0
0
LINE
5
127
100
AcDbEntity
8
CUTOUTS
100
AcDbLine
10
18.550000000000004
20
29.100000000000001
30
0
11
24.550000000000161
21
29.100000000000001
31
0
0
LINE
5
128
100
AcDbEntity
8
CUTOUTS
100
AcDbLine
10
10.150000000000112
20
29.100000000000001
30
0
11
10.150000000000539
21
-29.100000000000001
31
0
0
LINE
5
129
100
AcDbEntity
8
CUTOUTS
100
AcDbLine
10
10.150000000000539
20
-29.100000000000001
30
0
11
4.1500000000001691
21
-29.100000000000001
31
0
0
LINE
5
12A
100
AcDbEntity
8
CUTOUTS
100
AcDbLine
10
4.1500000000001691
20
-29.100000000000001
30
0
11
4.150000000000027
21
29.100000000000001
31
0
0
LINE
5
12B
100
AcDbEntity
8
CUTOUTS
100
AcDbLine
10
4.150000000000027
20
29.100000000000001
30
0
11
10.150000000000112
21
29.100000000000001
31
0
0
LINE
5
12C
100
AcDbEntity
8
CUTOUTS
100
AcDbLine
10
-10.249999999999986
20
29.100000000000001
30
0
11
-4.249999999999865
21
29.100000000000001
31
0
0
LINE
5
12D
100
AcDbEntity
8
CUTOUTS
100
AcDbLine
10
-4.249999999999865
20
29.100000000000001
30
0
11
-4.2499999999997939
21
-29.100000000000001
31
0
0
LINE
5
12E
100
AcDbEntity
8
CUTOUTS
100
AcDbLine
10
-4.2499999999997939
20
-29.100000000000001
30
0
11
-10.249999999999773
21
-29.100000000000001
31
0
0
LINE
5
12F
100
AcDbEntity
8
CUTOUTS
100
AcDbLine
10
-10.249999999999773
20
-29.100000000000001
30
0
11
-10.249999999999986
21
29.100000000000001
31
0
0
LINE
5
130
100
AcDbEntity
8
CUTOUTS
100
AcDbLine
10
-18.649999999999878
20
29.100000000000001
30
0
11
-18.649999999999807
21
-29.100000000000001
31
0
0
LINE
5
131
100
AcDbEntity
8
CUTOUTS
100
AcDbLine
10
-18.649999999999807
20
-29.100000000000001
30
0
11
-24.649999999999785
21
-29.100000000000001
31
0
0
LINE
5
132
100
AcDbEntity
8
CUTOUTS
100
AcDbLine
10
-24.649999999999785
20
-29.100000000000001
30
0
11
-24.649999999999963
21
29.100000000000001
31
0
0
LINE
5
133
100
AcDbEntity
8
CUTOUTS
100
AcDbLine
10
-24.649999999999963
20
29.100000000000001
30
0
11
-18.649999999999878
21
29.100000000000001
31
0
0
LINE
5
134
100
AcDbEntity
8
CUTOUTS
100
AcDbLine
10
-33.049999999999997
20
-29.100000000000001
30
0
11
-39.049999999999976
21
-29.100000000000001
31
0
0
LINE
5
135
100
AcDbEntity
8
CUTOUTS
100
AcDbLine
10
-39.049999999999976
20
-29.100000000000001
30
0
11
-39.049999999999869
21
29.100000000000001
31
0
0
LINE
5
136
100
AcDbEntity
8
CUTOUTS
100
AcDbLine
10
-39.049999999999869
20
29.100000000000001
30
0
11
-33.049999999999926
21
29.100000000000001
31
0
0
LINE
5
137
100
AcDbEntity
8
CUTOUTS
100
AcDbLine
10
-33.049999999999926
20
29.100000000000001
30
0
11
-33.049999999999997
21
-29.100000000000001
31
0
0
LINE
5
138
100
AcDbEntity
8
CUTOUTS
100
AcDbLine
10
-53.449999999999989
20
-29.100000000000001
30
0
11
-53.449999999999882
21
29.100000000000001
31
0
0
LINE
5
139
100
AcDbEntity
8
CUTOUTS
100
AcDbLine
10
-53.449999999999882
20
29.100000000000001
30
0
11
-47.449999999999939
21
29.100000000000001
31
0
0
LINE
5
13A
100
AcDbEntity
8
CUTOUTS
100
AcDbLine
10
-47.449999999999939
20
29.100000000000001
30
0
11
-47.450000000000081
21
-29.100000000000001
31
0
0
LINE
5
13B
100
AcDbEntity
8
CUTOUTS
100
AcDbLine
10
-47.450000000000081
20
-29.100000000000001
30
0
11
-53.449999999999989
21
-29.100000000000001
31
0
0
LINE
5
13C
100
AcDbEntity
8
CUTOUTS
100
AcDbLine
10
-67.849999999999838
20
29.100000000000001
30
0
11
-61.849999999999937
21
29.100000000000001
31
0
0
LINE
5
13D
100
AcDbEntity
8
CUTOUTS
100
AcDbLine
10
-61.849999999999937
20
29.100000000000001
30
0
11
-61.850000000000037
21
-29.100000000000001
31
0
0
LINE
5
13E
100
AcDbEntity
8
CUTOUTS
100
AcDbLine
10
-61.850000000000037
20
-29.100000000000001
30
0
11
-67.850000000000023
21
-29.100000000000001
31
0
0
LINE
5
13F
100
AcDbEntity
8
CUTOUTS
100
AcDbLine
10
-67.850000000000023
20
-29.100000000000001
30
0
11
-67.849999999999838
21
29.100000000000001
31
0
0
LINE
5
140
100
AcDbEntity
8
CUTOUTS
100
AcDbLine
10
-82.249999999999929
20
-29.100000000000001
30
0
11
-82.249999999999886
21
29.100000000000001
31
0
0
LINE
5
141
100
AcDbEntity
8
CUTOUTS
100
AcDbLine
10
-82.249999999999886
20
29.100000000000001
30
0
11
-76.249999999999915
21
29.100000000000001
31
0
0
LINE
5
142
100
AcDbEntity
8
CUTOUTS
100
AcDbLine
10
-76.249999999999915
20
29.100000000000001
30
0
11
-76.249999999999915
21
-29.100000000000001
31
0
0
LINE
5
143
100
AcDbEntity
8
CUTOUTS
100
AcDbLine
10
-76.249999999999915
20
-29.100000000000001
30
0
11
-82.249999999999929
21
-29.100000000000001
31
0
0
LINE
5
144
100
AcDbEntity
8
CUTOUTS
100
AcDbLine
10
-96.649999999999906
20
29.100000000000001
30
0
11
-90.649999999999892
21
29.100000000000001
31
0
0
LINE
5
145
100
AcDbEntity
8
CUTOUTS
100
AcDbLine
10
-90.649999999999892
20
29.100000000000001
30
0
11
-90.64999999999992
21
-29.100000000000001
31
0
0
LINE
5
146
100
AcDbEntity
8
CUTOUTS
100
AcDbLine
10
-90.64999999999992
20
-29.100000000000001
30
0
11
-96.649999999999864
21
-29.100000000000001
31
0
0
LINE
5
147
100
AcDbEntity
8
CUTOUTS
100
AcDbLine
10
-96.649999999999864
20
-29.100000000000001
30
0
11
-96.649999999999906
21
29.100000000000001
31
0
0
LINE
5
148
100
AcDbEntity
8
CUTOUTS
100
AcDbLine
10
-105.04999999999995
20
29.100000000000001
30
0
11
-105.04999999999978
21
-29.100000000000001
31
0
0
LINE
5
149
100
AcDbEntity
8
CUTOUTS
100
AcDbLine
10
-105.04999999999978
20
-29.100000000000001
30
0
11
-111.04999999999988
21
-29.100000000000001
31
0
0
LINE
5
14A
100
AcDbEntity
8
CUTOUTS
100
AcDbLine
10
-111.04999999999988
20
-29.100000000000001
30
0
11
-111.05000000000003
21
29.100000000000001
31
0
0
LINE
5
14B
100
AcDbEntity
8
CUTOUTS
100
AcDbLine
10
-111.05000000000003
20
29.100000000000001
30
0
11
-105.04999999999995
21
29.100000000000001
31
0
0
LINE
5
14C
100
AcDbEntity
8
CUTOUTS
100
AcDbLine
10
-119.44999999999992
20
29.100000000000001
30
0
11
-119.44999999999992
21
-29.100000000000001
31
0
0
LINE
5
14D
100
AcDbEntity
8
CUTOUTS
100
AcDbLine
10
-119.44999999999992
20
-29.100000000000001
30
0
11
-125.4499999999999
21
-29.100000000000001
31
0
0
LINE
5
14E
100
AcDbEntity
8
CUTOUTS
100
AcDbLine
10
-125.4499999999999
20
-29.100000000000001
30
0
11
-125.44999999999989
21
29.100000000000001
31
0
0
LINE
5
14F
100
AcDbEntity
8
CUTOUTS
100
AcDbLine
10
-125.4499999999999
20
29.100000000000001
30
0
11
-119.44999999999993
21
29.100000000000001
31
0
0
LINE
5
150
100
AcDbEntity
8
CUTOUTS
100
AcDbLine
10
-133.84999999999991
20
-29.100000000000001
30
0
11
-139.84999999999991
21
-29.100000000000001
31
0
0
LINE
5
151
100
AcDbEntity
8
CUTOUTS
100
AcDbLine
10
-139.84999999999991
20
-29.100000000000001
30
0
11
-139.84999999999991
21
29.100000000000001
31
0
0
LINE
5
152
100
AcDbEntity
8
CUTOUTS
100
AcDbLine
10
-139.84999999999991
20
29.100000000000001
30
0
11
-133.84999999999991
21
29.100000000000001
31
0
0
LINE
5
153
100
AcDbEntity
8
CUTOUTS
100
AcDbLine
10
-133.84999999999991
20
29.100000000000001
30
0
11
-133.84999999999991
21
-29.100000000000001
31
0
0
LINE
5
154
100
AcDbEntity
8
CUTOUTS
100
AcDbLine
10
-148.24999999999991
20
29.100000000000001
30
0
11
-148.24999999999991
21
-29.100000000000001
31
0
0
LINE
5
155
100
AcDbEntity
8
CUTOUTS
100
AcDbLine
10
-148.24999999999991
20
-29.100000000000001
30
0
11
-154.24999999999989
21
-29.100000000000001
31
0
0
LINE
5
156
100
AcDbEntity
8
CUTOUTS
100
AcDbLine
10
-154.24999999999989
20
-29.100000000000001
30
0
11
-154.24999999999989
21
29.100000000000001
31
0
0
LINE
5
157
100
AcDbEntity
8
CUTOUTS
100
AcDbLine
10
-154.24999999999989
20
29.100000000000001
30
0
11
-148.24999999999991
21
29.100000000000001
31
0
0
LINE
5
158
100
AcDbEntity
8
PERIMETER
100
AcDbLine
10
-160.34999999999991
20
-29.100000000000001
30
0
11
-166.34999999999991
21
-29.100000000000001
31
0
0
LINE
5
159
100
AcDbEntity
8
PERIMETER
100
AcDbLine
10
-166.34999999999991
20
-29.100000000000001
30
0
11
-166.34999999999991
21
-31.100000000000001
31
0
0
LINE
5
15A
100
AcDbEntity
8
PERIMETER
100
AcDbLine
10
-166.34999999999991
20
-31.100000000000001
30
0
11
166.34999999999906
21
-31.100000000000001
31
0
0
LINE
5
15B
100
AcDbEntity
8
PERIMETER
100
AcDbLine
10
166.34999999999908
20
-31.100000000000001
30
0
11
166.34999999999908
21
-29.100000000000001
31
0
0
LINE
5
15C
100
AcDbEntity
8
PERIMETER
100
AcDbLine
10
166.34999999999908
20
-29.100000000000001
30
0
11
160.34999999999957
21
-29.100000000000001
31
0
0
LINE
5
15D
100
AcDbEntity
8
PERIMETER
100
AcDbLine
10
160.34999999999957
20
-29.100000000000001
30
0
11
160.35000000000042
21
29.100000000000001
31
0
0
LINE
5
15E
100
AcDbEntity
8
PERIMETER
100
AcDbLine
10
160.35000000000042
20
29.100000000000001
30
0
11
166.34999999999908
21
29.100000000000001
31
0
0
LINE
5
15F
100
AcDbEntity
8
PERIMETER
100
AcDbLine
10
166.34999999999908
20
29.100000000000001
30
0
11
166.34999999999994
21
31.100000000000001
31
0
0
LINE
5
160
100
AcDbEntity
8
PERIMETER
100
AcDbLine
10
166.34999999999994
20
31.100000000000001
30
0
11
-166.34999999999988
21
31.100000000000001
31
0
0
LINE
5
161
100
AcDbEntity
8
PERIMETER
100
AcDbLine
10
-166.34999999999988
20
31.100000000000001
30
0
11
-166.34999999999991
21
29.100000000000001
31
0
0
LINE
5
162
100
AcDbEntity
8
PERIMETER
100
AcDbLine
10
-166.34999999999991
20
29.100000000000001
30
0
11
-160.34999999999991
21
29.100000000000001
31
0
0
LINE
5
163
100
AcDbEntity
8
PERIMETER
100
AcDbLine
10
-160.34999999999991
20
29.100000000000001
30
0
11
-160.34999999999991
21
-29.100000000000001
31
0
0
ENDSEC
0
SECTION
2
OBJECTS
0
DICTIONARY
5
C
100
AcDbDictionary
3
ACAD_GROUP
350
D
3
ACAD_MLINESTYLE
350
17
0
DICTIONARY
5
D
100
AcDbDictionary
0
DICTIONARY
5
1A
330
C
100
AcDbDictionary
0
DICTIONARY
5
17
100
AcDbDictionary
0
ENDSEC
0
EOF
