0
SECTION
2
HEADER
9
$INSUNITS
70
4
9
$ACADVER
1
AC1014
9
$HANDSEED
5
FFFF
0
ENDSEC
0
SECTION
2
TABLES
0
TABLE
2
VPORT
5
8
100
AcDbSymbolTable
0
ENDTAB
0
TABLE
2
LTYPE
5
5
100
AcDbSymbolTable
70
2
0
LTYPE
5
14
100
AcDbSymbolTableRecord
100
AcDbLinetypeTableRecord
2
BYBLOCK
70
0
0
LTYPE
5
15
100
AcDbSymbolTableRecord
100
AcDbLinetypeTableRecord
2
BYLAYER
70
0
0
ENDTAB
0
TABLE
2
LAYER
5
2
100
AcDbSymbolTable
70
3
0
LAYER
5
50
100
AcDbSymbolTableRecord
100
AcDbLayerTableRecord
2
0
70
0
6
CONTINUOUS
0
LAYER
5
51
100
AcDbSymbolTableRecord
100
AcDbLayerTableRecord
2
CUTOUTS
70
0
62
1
6
CONTINUOUS
0
LAYER
5
52
100
AcDbSymbolTableRecord
100
AcDbLayerTableRecord
2
PERIMETER
70
0
62
5
6
CONTINUOUS
0
ENDTAB
0
TABLE
2
STYLE
5
3
100
AcDbSymbolTable
70
1
0
STYLE
5
11
100
AcDbSymbolTableRecord
100
AcDbTextStyleTableRecord
2
STANDARD
70
0
0
ENDTAB
0
TABLE
2
VIEW
5
6
100
AcDbSymbolTable
0
ENDTAB
0
TABLE
2
UCS
5
7
100
AcDbSymbolTable
0
ENDTAB
0
TABLE
2
APPID
5
9
100
AcDbSymbolTable
70
1
0
APPID
5
12
100
AcDbSymbolTableRecord
100
AcDbRegAppTableRecord
2
ACAD
70
0
0
ENDTAB
0
TABLE
2
DIMSTYLE
5
A
100
AcDbSymbolTable
0
ENDTAB
0
TABLE
2
BLOCK_RECORD
5
1
100
AcDbSymbolTable
70
2
0
BLOCK_RECORD
5
1F
100
AcDbSymbolTableRecord
100
AcDbBlockTableRecord
2
*MODEL_SPACE
0
BLOCK_RECORD
5
1B
100
AcDbSymbolTableRecord
100
AcDbBlockTableRecord
2
*PAPER_SPACE
0
ENDTAB
0
ENDSEC
0
SECTION
2
BLOCKS
0
BLOCK
5
20
100
AcDbEntity
100
AcDbBlockBegin
2
*MODEL_SPACE
0
ENDBLK
5
21
100
AcDbEntity
100
AcDbBlockEnd
0
BLOCK
5
1C
100
AcDbEntity
100
AcDbBlockBegin
2
*PAPER_SPACE
0
ENDBLK
5
1D
100
AcDbEntity
100
AcDbBlockEnd
0
ENDSEC
0
SECTION
2
ENTITIES
0
LINE
5
100
100
AcDbEntity
8
CUTOUTS
100
AcDbLine
10
154.09999999999994
20
29.050000000000011
30
0
11
154.09999999999965
21
-29.050000000000011
31
0
0
LINE
5
101
100
AcDbEntity
8
CUTOUTS
100
AcDbLine
10
154.09999999999965
20
-29.050000000000011
30
0
11
148.19999999999976
21
-29.050000000000011
31
0
0
LINE
5
102
100
AcDbEntity
8
CUTOUTS
100
AcDbLine
10
148.19999999999976
20
-29.050000000000011
30
0
11
148.20000000000005
21
29.050000000000011
31
0
0
LINE
5
103
100
AcDbEntity
8
CUTOUTS
100
AcDbLine
10
148.20000000000005
20
29.050000000000011
30
0
11
154.09999999999994
21
29.050000000000011
31
0
0
LINE
5
104
100
AcDbEntity
8
CUTOUTS
100
AcDbLine
10
133.8000000000001
20
29.050000000000011
30
0
11
139.69999999999999
21
29.050000000000011
31
0
0
LINE
5
105
100
AcDbEntity
8
CUTOUTS
100
AcDbLine
10
139.69999999999999
20
29.050000000000011
30
0
11
139.69999999999956
21
-29.050000000000011
31
0
0
LINE
5
106
100
AcDbEntity
8
CUTOUTS
100
AcDbLine
10
139.69999999999956
20
-29.050000000000011
30
0
11
133.79999999999981
21
-29.050000000000011
31
0
0
LINE
5
107
100
AcDbEntity
8
CUTOUTS
100
AcDbLine
10
133.79999999999981
20
-29.050000000000011
30
0
11
133.8000000000001
21
29.050000000000011
31
0
0
LINE
5
108
100
AcDbEntity
8
CUTOUTS
100
AcDbLine
10
119.39999999999952
20
-29.050000000000004
30
0
11
119.40000000000038
21
29.050000000000004
31
0
0
LINE
5
109
100
AcDbEntity
8
CUTOUTS
100
AcDbLine
10
119.40000000000038
20
29.050000000000004
30
0
11
125.29999999999998
21
29.050000000000004
31
0
0
LINE
5
10A
100
AcDbEntity
8
CUTOUTS
100
AcDbLine
10
125.29999999999998
20
29.050000000000004
30
0
11
125.2999999999997
21
-29.050000000000004
31
0
0
LINE
5
10B
100
AcDbEntity
8
CUTOUTS
100
AcDbLine
10
125.2999999999997
20
-29.050000000000004
30
0
11
119.39999999999952
21
-29.050000000000004
31
0
0
LINE
5
10C
100
AcDbEntity
8
CUTOUTS
100
AcDbLine
10
104.99999999999972
20
-29.050000000000004
30
0
11
105.00000000000028
21
29.050000000000004
31
0
0
LINE
5
10D
100
AcDbEntity
8
CUTOUTS
100
AcDbLine
10
105.00000000000028
20
29.050000000000004
30
0
11
110.90000000000003
21
29.050000000000004
31
0
0
LINE
5
10E
100
AcDbEntity
8
CUTOUTS
100
AcDbLine
10
110.90000000000003
20
29.050000000000004
30
0
11
110.89999999999975
21
-29.050000000000004
31
0
0
LINE
5
10F
100
AcDbEntity
8
CUTOUTS
100
AcDbLine
10
110.89999999999975
20
-29.050000000000004
30
0
11
104.99999999999972
21
-29.050000000000004
31
0
0
LINE
5
110
100
AcDbEntity
8
CUTOUTS
100
AcDbLine
10
96.499999999999801
20
-29.050000000000011
30
0
11
90.599999999999625
21
-29.050000000000011
31
0
0
LINE
5
111
100
AcDbEntity
8
CUTOUTS
100
AcDbLine
10
90.599999999999625
20
-29.050000000000011
30
0
11
90.600000000000477
21
29.050000000000011
31
0
0
LINE
5
112
100
AcDbEntity
8
CUTOUTS
100
AcDbLine
10
90.600000000000477
20
29.050000000000011
30
0
11
96.500000000000085
21
29.050000000000011
31
0
0
LINE
5
113
100
AcDbEntity
8
CUTOUTS
100
AcDbLine
10
96.500000000000085
20
29.050000000000011
30
0
11
96.499999999999801
21
-29.050000000000011
31
0
0
LINE
5
114
100
AcDbEntity
8
CUTOUTS
100
AcDbLine
10
82.100000000000009
20
29.050000000000011
30
0
11
82.100000000000293
21
-29.050000000000011
31
0
0
LINE
5
115
100
AcDbEntity
8
CUTOUTS
100
AcDbLine
10
82.100000000000293
20
-29.050000000000011
30
0
11
76.199999999999903
21
-29.050000000000011
31
0
0
LINE
5
116
100
AcDbEntity
8
CUTOUTS
100
AcDbLine
10
76.199999999999903
20
-29.050000000000011
30
0
11
76.200000000000045
21
29.050000000000011
31
0
0
LINE
5
117
100
AcDbEntity
8
CUTOUTS
100
AcDbLine
10
76.200000000000045
20
29.050000000000011
30
0
11
82.100000000000009
21
29.050000000000011
31
0
0
LINE
5
118
100
AcDbEntity
8
CUTOUTS
100
AcDbLine
10
61.800000000000139
20
29.050000000000004
30
0
11
67.700000000000102
21
29.050000000000004
31
0
0
LINE
5
119
100
AcDbEntity
8
CUTOUTS
100
AcDbLine
10
67.700000000000102
20
29.050000000000004
30
0
11
67.700000000000244
21
-29.050000000000004
31
0
0
LINE
5
11A
100
AcDbEntity
8
CUTOUTS
100
AcDbLine
10
67.700000000000244
20
-29.050000000000004
30
0
11
61.799999999999997
21
-29.050000000000004
31
0
0
LINE
5
11B
100
AcDbEntity
8
CUTOUTS
100
AcDbLine
10
61.799999999999997
20
-29.050000000000004
30
0
11
61.800000000000139
21
29.050000000000004
31
0
0
LINE
5
11C
100
AcDbEntity
8
CUTOUTS
100
AcDbLine
10
47.400000000000304
20
-29.050000000000011
30
0
11
47.40000000000002
21
29.050000000000011
31
0
0
LINE
5
11D
100
AcDbEntity
8
CUTOUTS
100
AcDbLine
10
47.40000000000002
20
29.050000000000011
30
0
11
53.300000000000196
21
29.050000000000011
31
0
0
LINE
5
11E
100
AcDbEntity
8
CUTOUTS
100
AcDbLine
10
53.300000000000196
20
29.050000000000011
30
0
11
53.300000000000196
21
-29.050000000000011
31
0
0
LINE
5
11F
100
AcDbEntity
8
CUTOUTS
100
AcDbLine
10
53.300000000000196
20
-29.050000000000011
30
0
11
47.400000000000304
21
-29.050000000000011
31
0
0
LINE
5
120
100
AcDbEntity
8
CUTOUTS
100
AcDbLine
10
33.000000000000185
20
-29.050000000000011
30
0
11
33.000000000000043
21
29.050000000000011
31
0
0
LINE
5
121
100
AcDbEntity
8
CUTOUTS
100
AcDbLine
10
33.000000000000043
20
29.050000000000011
30
0
11
38.900000000000148
21
29.050000000000011
31
0
0
LINE
5
122
100
AcDbEntity
8
CUTOUTS
100
AcDbLine
10
38.900000000000148
20
29.050000000000011
30
0
11
38.900000000000361
21
-29.050000000000011
31
0
0
LINE
5
123
100
AcDbEntity
8
CUTOUTS
100
AcDbLine
10
38.900000000000361
20
-29.050000000000011
30
0
11
33.000000000000185
21
-29.050000000000011
31
0
0
LINE
5
124
100
AcDbEntity
8
CUTOUTS
100
AcDbLine
10
24.500000000000171
20
29.050000000000011
30
0
11
24.500000000000313
21
-29.050000000000011
31
0
0
LINE
5
125
100
AcDbEntity
8
CUTOUTS
100
AcDbLine
10
24.500000000000313
20
-29.050000000000011
30
0
11
18.600000000000279
21
-29.050000000000011
31
0
0
LINE
5
126
100
AcDbEntity
8
CUTOUTS
100
AcDbLine
10
18.600000000000279
20
-29.050000000000011
30
0
11
18.599999999999994
21
29.050000000000011
31
0
0
LINE
5
127
100
AcDbEntity
8
CUTOUTS
100
AcDbLine
10
18.599999999999994
20
29.050000000000011
30
0
11
24.500000000000171
21
29.050000000000011
31
0
0
LINE
5
128
100
AcDbEntity
8
CUTOUTS
100
AcDbLine
10
4.2000000000000171
20
29.050000000000011
30
0
11
10.100000000000122
21
29.050000000000011
31
0
0
LINE
5
129
100
AcDbEntity
8
CUTOUTS
100
AcDbLine
10
10.100000000000122
20
29.050000000000011
30
0
11
10.100000000000549
21
-29.050000000000011
31
0
0
LINE
5
12A
100
AcDbEntity
8
CUTOUTS
100
AcDbLine
10
10.100000000000549
20
-29.050000000000011
30
0
11
4.2000000000001592
21
-29.050000000000011
31
0
0
LINE
5
12B
100
AcDbEntity
8
CUTOUTS
100
AcDbLine
10
4.2000000000001592
20
-29.050000000000011
30
0
11
4.2000000000000171
21
29.050000000000011
31
0
0
LINE
5
12C
100
AcDbEntity
8
CUTOUTS
100
AcDbLine
10
-10.199999999999996
20
29.050000000000004
30
0
11
-4.299999999999855
21
29.050000000000004
31
0
0
LINE
5
12D
100
AcDbEntity
8
CUTOUTS
100
AcDbLine
10
-4.299999999999855
20
29.050000000000004
30
0
11
-4.299999999999784
21
-29.050000000000004
31
0
0
LINE
5
12E
100
AcDbEntity
8
CUTOUTS
100
AcDbLine
10
-4.299999999999784
20
-29.050000000000004
30
0
11
-10.199999999999783
21
-29.050000000000004
31
0
0
LINE
5
12F
100
AcDbEntity
8
CUTOUTS
100
AcDbLine
10
-10.199999999999783
20
-29.050000000000004
30
0
11
-10.199999999999996
21
29.050000000000004
31
0
0
LINE
5
130
100
AcDbEntity
8
CUTOUTS
100
AcDbLine
10
-18.699999999999886
20
29.049999999999994
30
0
11
-18.699999999999815
21
-29.049999999999994
31
0
0
LINE
5
131
100
AcDbEntity
8
CUTOUTS
100
AcDbLine
10
-18.699999999999815
20
-29.049999999999994
30
0
11
-24.599999999999778
21
-29.049999999999994
31
0
0
LINE
5
132
100
AcDbEntity
8
CUTOUTS
100
AcDbLine
10
-24.599999999999778
20
-29.049999999999994
30
0
11
-24.599999999999955
21
29.049999999999994
31
0
0
LINE
5
133
100
AcDbEntity
8
CUTOUTS
100
AcDbLine
10
-24.599999999999955
20
29.049999999999994
30
0
11
-18.699999999999886
21
29.049999999999994
31
0
0
LINE
5
134
100
AcDbEntity
8
CUTOUTS
100
AcDbLine
10
-33.099999999999987
20
-29.050000000000004
30
0
11
-38.999999999999986
21
-29.050000000000004
31
0
0
LINE
5
135
100
AcDbEntity
8
CUTOUTS
100
AcDbLine
10
-38.999999999999986
20
-29.050000000000004
30
0
11
-38.999999999999879
21
29.050000000000004
31
0
0
LINE
5
136
100
AcDbEntity
8
CUTOUTS
100
AcDbLine
10
-38.999999999999879
20
29.050000000000004
30
0
11
-33.099999999999916
21
29.050000000000004
31
0
0
LINE
5
137
100
AcDbEntity
8
CUTOUTS
100
AcDbLine
10
-33.099999999999916
20
29.050000000000004
30
0
11
-33.099999999999987
21
-29.050000000000004
31
0
0
LINE
5
138
100
AcDbEntity
8
CUTOUTS
100
AcDbLine
10
-53.399999999999977
20
-29.049999999999994
30
0
11
-53.399999999999878
21
29.049999999999994
31
0
0
LINE
5
139
100
AcDbEntity
8
CUTOUTS
100
AcDbLine
10
-53.399999999999878
20
29.049999999999994
30
0
11
-47.499999999999943
21
29.049999999999994
31
0
0
LINE
5
13A
100
AcDbEntity
8
CUTOUTS
100
AcDbLine
10
-47.499999999999943
20
29.049999999999994
30
0
11
-47.500000000000085
21
-29.049999999999994
31
0
0
LINE
5
13B
100
AcDbEntity
8
CUTOUTS
100
AcDbLine
10
-47.500000000000085
20
-29.049999999999994
30
0
11
-53.399999999999977
21
-29.049999999999994
31
0
0
LINE
5
13C
100
AcDbEntity
8
CUTOUTS
100
AcDbLine
10
-67.800000000000011
20
-29.050000000000004
30
0
11
-67.799999999999841
21
29.050000000000004
31
0
0
LINE
5
13D
100
AcDbEntity
8
CUTOUTS
100
AcDbLine
10
-67.799999999999841
20
29.050000000000004
30
0
11
-61.899999999999942
21
29.050000000000004
31
0
0
LINE
5
13E
100
AcDbEntity
8
CUTOUTS
100
AcDbLine
10
-61.899999999999942
20
29.050000000000004
30
0
11
-61.900000000000048
21
-29.050000000000004
31
0
0
LINE
5
13F
100
AcDbEntity
8
CUTOUTS
100
AcDbLine
10
-61.900000000000048
20
-29.050000000000004
30
0
11
-67.800000000000011
21
-29.050000000000004
31
0
0
LINE
5
140
100
AcDbEntity
8
CUTOUTS
100
AcDbLine
10
-82.199999999999918
20
-29.049999999999994
30
0
11
-82.199999999999875
21
29.049999999999994
31
0
0
LINE
5
141
100
AcDbEntity
8
CUTOUTS
100
AcDbLine
10
-82.199999999999875
20
29.049999999999994
30
0
11
-76.299999999999926
21
29.049999999999994
31
0
0
LINE
5
142
100
AcDbEntity
8
CUTOUTS
100
AcDbLine
10
-76.299999999999926
20
29.049999999999994
30
0
11
-76.299999999999926
21
-29.049999999999994
31
0
0
LINE
5
143
100
AcDbEntity
8
CUTOUTS
100
AcDbLine
10
-76.299999999999926
20
-29.049999999999994
30
0
11
-82.199999999999918
21
-29.049999999999994
31
0
0
LINE
5
144
100
AcDbEntity
8
CUTOUTS
100
AcDbLine
10
-96.599999999999895
20
29.050000000000004
30
0
11
-90.699999999999875
21
29.050000000000004
31
0
0
LINE
5
145
100
AcDbEntity
8
CUTOUTS
100
AcDbLine
10
-90.699999999999903
20
29.050000000000004
30
0
11
-90.699999999999932
21
-29.050000000000004
31
0
0
LINE
5
146
100
AcDbEntity
8
CUTOUTS
100
AcDbLine
10
-90.699999999999932
20
-29.050000000000004
30
0
11
-96.599999999999881
21
-29.050000000000004
31
0
0
LINE
5
147
100
AcDbEntity
8
CUTOUTS
100
AcDbLine
10
-96.599999999999852
20
-29.050000000000004
30
0
11
-96.599999999999895
21
29.050000000000004
31
0
0
LINE
5
148
100
AcDbEntity
8
CUTOUTS
100
AcDbLine
10
-105.09999999999994
20
29.050000000000004
30
0
11
-105.09999999999977
21
-29.050000000000004
31
0
0
LINE
5
149
100
AcDbEntity
8
CUTOUTS
100
AcDbLine
10
-105.09999999999977
20
-29.050000000000004
30
0
11
-110.99999999999987
21
-29.050000000000004
31
0
0
LINE
5
14A
100
AcDbEntity
8
CUTOUTS
100
AcDbLine
10
-110.99999999999987
20
-29.050000000000004
30
0
11
-111.00000000000001
21
29.050000000000004
31
0
0
LINE
5
14B
100
AcDbEntity
8
CUTOUTS
100
AcDbLine
10
-111.00000000000001
20
29.050000000000004
30
0
11
-105.09999999999994
21
29.050000000000004
31
0
0
LINE
5
14C
100
AcDbEntity
8
CUTOUTS
100
AcDbLine
10
-119.49999999999991
20
29.050000000000004
30
0
11
-119.49999999999991
21
-29.050000000000004
31
0
0
LINE
5
14D
100
AcDbEntity
8
CUTOUTS
100
AcDbLine
10
-119.49999999999991
20
-29.050000000000004
30
0
11
-125.39999999999992
21
-29.050000000000004
31
0
0
LINE
5
14E
100
AcDbEntity
8
CUTOUTS
100
AcDbLine
10
-125.39999999999992
20
-29.050000000000004
30
0
11
-125.39999999999991
21
29.050000000000004
31
0
0
LINE
5
14F
100
AcDbEntity
8
CUTOUTS
100
AcDbLine
10
-125.39999999999991
20
29.050000000000004
30
0
11
-119.49999999999991
21
29.050000000000004
31
0
0
LINE
5
150
100
AcDbEntity
8
CUTOUTS
100
AcDbLine
10
-139.7999999999999
20
-29.050000000000004
30
0
11
-139.7999999999999
21
29.050000000000004
31
0
0
LINE
5
151
100
AcDbEntity
8
CUTOUTS
100
AcDbLine
10
-139.7999999999999
20
29.050000000000004
30
0
11
-133.89999999999989
21
29.050000000000004
31
0
0
LINE
5
152
100
AcDbEntity
8
CUTOUTS
100
AcDbLine
10
-133.89999999999989
20
29.050000000000004
30
0
11
-133.89999999999989
21
-29.050000000000004
31
0
0
LINE
5
153
100
AcDbEntity
8
CUTOUTS
100
AcDbLine
10
-133.89999999999989
20
-29.050000000000004
30
0
11
-139.7999999999999
21
-29.050000000000004
31
0
0
LINE
5
154
100
AcDbEntity
8
CUTOUTS
100
AcDbLine
10
-148.2999999999999
20
29.050000000000004
30
0
11
-148.2999999999999
21
-29.050000000000004
31
0
0
LINE
5
155
100
AcDbEntity
8
CUTOUTS
100
AcDbLine
10
-148.2999999999999
20
-29.050000000000004
30
0
11
-154.1999999999999
21
-29.050000000000004
31
0
0
LINE
5
156
100
AcDbEntity
8
CUTOUTS
100
AcDbLine
10
-154.1999999999999
20
-29.050000000000004
30
0
11
-154.1999999999999
21
29.050000000000004
31
0
0
LINE
5
157
100
AcDbEntity
8
CUTOUTS
100
AcDbLine
10
-154.1999999999999
20
29.050000000000004
30
0
11
-148.2999999999999
21
29.050000000000004
31
0
0
LINE
5
158
100
AcDbEntity
8
PERIMETER
100
AcDbLine
10
-160.39999999999992
20
29.050000000000004
30
0
11
-160.39999999999992
21
-29.050000000000004
31
0
0
LINE
5
159
100
AcDbEntity
8
PERIMETER
100
AcDbLine
10
-160.39999999999989
20
-29.050000000000004
30
0
11
-166.39999999999989
21
-29.050000000000004
31
0
0
LINE
5
15A
100
AcDbEntity
8
PERIMETER
100
AcDbLine
10
-166.39999999999989
20
-29.050000000000004
30
0
11
-166.39999999999989
21
-34.81666666666667
31
0
0
LINE
5
15B
100
AcDbEntity
8
PERIMETER
100
AcDbLine
10
-166.39999999999989
20
-34.81666666666667
30
0
11
166.39999999999912
21
-34.81666666666667
31
0
0
LINE
5
15C
100
AcDbEntity
8
PERIMETER
100
AcDbLine
10
166.39999999999912
20
-34.81666666666667
30
0
11
166.39999999999912
21
-29.050000000000004
31
0
0
LINE
5
15D
100
AcDbEntity
8
PERIMETER
100
AcDbLine
10
166.39999999999912
20
-29.050000000000004
30
0
11
160.39999999999961
21
-29.050000000000004
31
0
0
LINE
5
15E
100
AcDbEntity
8
PERIMETER
100
AcDbLine
10
160.39999999999961
20
-29.050000000000004
30
0
11
160.40000000000046
21
29.050000000000004
31
0
0
LINE
5
15F
100
AcDbEntity
8
PERIMETER
100
AcDbLine
10
160.40000000000046
20
29.050000000000004
30
0
11
166.39999999999912
21
29.050000000000004
31
0
0
LINE
5
160
100
AcDbEntity
8
PERIMETER
100
AcDbLine
10
166.39999999999912
20
29.050000000000004
30
0
11
166.39999999999998
21
34.81666666666667
31
0
0
LINE
5
161
100
AcDbEntity
8
PERIMETER
100
AcDbLine
10
166.39999999999998
20
34.81666666666667
30
0
11
-166.39999999999989
21
34.81666666666667
31
0
0
LINE
5
162
100
AcDbEntity
8
PERIMETER
100
AcDbLine
10
-166.39999999999989
20
34.81666666666667
30
0
11
-166.39999999999989
21
29.050000000000004
31
0
0
LINE
5
163
100
AcDbEntity
8
PERIMETER
100
AcDbLine
10
-166.39999999999989
20
29.050000000000004
30
0
11
-160.39999999999989
21
29.050000000000004
31
0
0
ENDSEC
0
SECTION
2
OBJECTS
0
DICTIONARY
5
C
100
AcDbDictionary
3
ACAD_GROUP
350
D
3
ACAD_MLINESTYLE
350
17
0
DICTIONARY
5
D
100
AcDbDictionary
0
DICTIONARY
5
1A
330
C
100
AcDbDictionary
0
DICTIONARY
5
17
100
AcDbDictionary
0
ENDSEC
0
EOF
