0
SECTION
2
HEADER
9
$INSUNITS
70
4
9
$ACADVER
1
AC1014
9
$HANDSEED
5
FFFF
0
ENDSEC
0
SECTION
2
TABLES
0
TABLE
2
VPORT
5
8
100
AcDbSymbolTable
0
ENDTAB
0
TABLE
2
LTYPE
5
5
100
AcDbSymbolTable
70
2
0
LTYPE
5
14
100
AcDbSymbolTableRecord
100
AcDbLinetypeTableRecord
2
BYBLOCK
70
0
0
LTYPE
5
15
100
AcDbSymbolTableRecord
100
AcDbLinetypeTableRecord
2
BYLAYER
70
0
0
ENDTAB
0
TABLE
2
LAYER
5
2
100
AcDbSymbolTable
70
3
0
LAYER
5
50
100
AcDbSymbolTableRecord
100
AcDbLayerTableRecord
2
0
70
0
6
CONTINUOUS
0
LAYER
5
51
100
AcDbSymbolTableRecord
100
AcDbLayerTableRecord
2
CUTOUTS
70
0
62
1
6
CONTINUOUS
0
LAYER
5
52
100
AcDbSymbolTableRecord
100
AcDbLayerTableRecord
2
PERIMETER
70
0
62
5
6
CONTINUOUS
0
ENDTAB
0
TABLE
2
STYLE
5
3
100
AcDbSymbolTable
70
1
0
STYLE
5
11
100
AcDbSymbolTableRecord
100
AcDbTextStyleTableRecord
2
STANDARD
70
0
0
ENDTAB
0
TABLE
2
VIEW
5
6
100
AcDbSymbolTable
0
ENDTAB
0
TABLE
2
UCS
5
7
100
AcDbSymbolTable
0
ENDTAB
0
TABLE
2
APPID
5
9
100
AcDbSymbolTable
70
1
0
APPID
5
12
100
AcDbSymbolTableRecord
100
AcDbRegAppTableRecord
2
ACAD
70
0
0
ENDTAB
0
TABLE
2
DIMSTYLE
5
A
100
AcDbSymbolTable
0
ENDTAB
0
TABLE
2
BLOCK_RECORD
5
1
100
AcDbSymbolTable
70
2
0
BLOCK_RECORD
5
1F
100
AcDbSymbolTableRecord
100
AcDbBlockTableRecord
2
*MODEL_SPACE
0
BLOCK_RECORD
5
1B
100
AcDbSymbolTableRecord
100
AcDbBlockTableRecord
2
*PAPER_SPACE
0
ENDTAB
0
ENDSEC
0
SECTION
2
BLOCKS
0
BLOCK
5
20
100
AcDbEntity
100
AcDbBlockBegin
2
*MODEL_SPACE
0
ENDBLK
5
21
100
AcDbEntity
100
AcDbBlockEnd
0
BLOCK
5
1C
100
AcDbEntity
100
AcDbBlockBegin
2
*PAPER_SPACE
0
ENDBLK
5
1D
100
AcDbEntity
100
AcDbBlockEnd
0
ENDSEC
0
SECTION
2
ENTITIES
0
LINE
5
100
100
AcDbEntity
8
CUTOUTS
100
AcDbLine
10
-149.04878048864072
20
-18.481040596342851
30
0
11
-154.89871283590674
21
-18.452906410524097
31
0
0
LINE
5
101
100
AcDbEntity
8
CUTOUTS
100
AcDbLine
10
-154.89871283590676
20
-18.452906410524097
30
0
11
-154.61953514586079
21
39.596422266191809
31
0
0
LINE
5
102
100
AcDbEntity
8
CUTOUTS
100
AcDbLine
10
-154.61953514586077
20
39.596422266191809
30
0
11
-148.76960279859483
21
39.568288080373144
31
0
0
LINE
5
103
100
AcDbEntity
8
CUTOUTS
100
AcDbLine
10
-148.76960279859483
20
39.568288080373144
30
0
11
-149.04878048864072
21
-18.481040596342851
31
0
0
LINE
5
104
100
AcDbEntity
8
CUTOUTS
100
AcDbLine
10
-134.29555036848387
20
39.440514762275562
30
0
11
-134.90696373795453
21
-18.60626528357745
31
0
0
LINE
5
105
100
AcDbEntity
8
CUTOUTS
100
AcDbLine
10
-134.90696373795453
20
-18.60626528357745
30
0
11
-140.7566392464521
21
-18.544649982778012
31
0
0
LINE
5
106
100
AcDbEntity
8
CUTOUTS
100
AcDbLine
10
-140.75663924645212
20
-18.544649982778012
30
0
11
-140.14522587698056
21
39.502130063074986
31
0
0
LINE
5
107
100
AcDbEntity
8
CUTOUTS
100
AcDbLine
10
-140.14522587698056
20
39.502130063074986
30
0
11
-134.29555036848387
21
39.440514762275562
31
0
0
LINE
5
108
100
AcDbEntity
8
CUTOUTS
100
AcDbLine
10
-120.76609539190761
20
-18.812426768215023
30
0
11
-126.61532243946029
21
-18.717332361512
31
0
0
LINE
5
109
100
AcDbEntity
8
CUTOUTS
100
AcDbLine
10
-126.61532243946029
20
-18.717332361512
30
0
11
-125.67169332679103
21
39.324997571888638
31
0
0
LINE
5
10A
100
AcDbEntity
8
CUTOUTS
100
AcDbLine
10
-125.67169332679103
20
39.324997571888638
30
0
11
-119.82246627923888
21
39.229903165185625
31
0
0
LINE
5
10B
100
AcDbEntity
8
CUTOUTS
100
AcDbLine
10
-119.82246627923888
20
39.229903165185625
30
0
11
-120.76609539190758
21
-18.812426768215026
31
0
0
LINE
5
10C
100
AcDbEntity
8
CUTOUTS
100
AcDbLine
10
-111.19941161930123
20
39.065030592443158
30
0
11
-105.35082464023007
21
38.93646019055268
31
0
0
LINE
5
10D
100
AcDbEntity
8
CUTOUTS
100
AcDbLine
10
-105.35082464023007
20
38.93646019055268
30
0
11
-106.62663862822126
21
-19.099518294074116
31
0
0
LINE
5
10E
100
AcDbEntity
8
CUTOUTS
100
AcDbLine
10
-106.62663862822126
20
-19.099518294074116
30
0
11
-112.47522560729293
21
-18.970947892183627
31
0
0
LINE
5
10F
100
AcDbEntity
8
CUTOUTS
100
AcDbLine
10
-112.47522560729293
20
-18.970947892183627
30
0
11
-111.19941161930123
21
39.065030592443158
31
0
0
LINE
5
110
100
AcDbEntity
8
CUTOUTS
100
AcDbLine
10
-98.336811895389502
20
-19.305488270623286
30
0
11
-96.728854839616289
21
38.722237637832073
31
0
0
LINE
5
111
100
AcDbEntity
8
CUTOUTS
100
AcDbLine
10
-96.728854839616289
20
38.722237637832073
30
0
11
-90.881099515508197
21
38.56019545391716
31
0
0
LINE
5
112
100
AcDbEntity
8
CUTOUTS
100
AcDbLine
10
-90.881099515508197
20
38.56019545391716
30
0
11
-92.489056571279988
21
-19.467530454538242
31
0
0
LINE
5
113
100
AcDbEntity
8
CUTOUTS
100
AcDbLine
10
-92.489056571279988
20
-19.467530454538242
30
0
11
-98.336811895389502
21
-19.305488270623286
31
0
0
LINE
5
114
100
AcDbEntity
8
CUTOUTS
100
AcDbLine
10
-82.260496991944748
20
38.296629939228211
30
0
11
-76.413764882181255
21
38.101121277878065
31
0
0
LINE
5
115
100
AcDbEntity
8
CUTOUTS
100
AcDbLine
10
-76.413764882181255
20
38.101121277878065
30
0
11
-78.35381236788723
21
-19.916451195927234
31
0
0
LINE
5
116
100
AcDbEntity
8
CUTOUTS
100
AcDbLine
10
-78.35381236788723
20
-19.916451195927234
30
0
11
-84.200544477654176
21
-19.720942534576977
31
0
0
LINE
5
117
100
AcDbEntity
8
CUTOUTS
100
AcDbLine
10
-84.200544477654176
20
-19.720942534576977
30
0
11
-82.260496991944748
21
38.296629939228211
31
0
0
LINE
5
118
100
AcDbEntity
8
CUTOUTS
100
AcDbLine
10
-67.794812030561673
20
37.788221436265928
30
0
11
-61.949294660878351
21
37.559252703169989
31
0
0
LINE
5
119
100
AcDbEntity
8
CUTOUTS
100
AcDbLine
10
-61.949294660878351
20
37.559252703169989
30
0
11
-64.221369012372946
21
-20.446265811375781
31
0
0
LINE
5
11A
100
AcDbEntity
8
CUTOUTS
100
AcDbLine
10
-64.221369012372946
20
-20.446265811375781
30
0
11
-70.066886382057078
21
-20.217297078279799
31
0
0
LINE
5
11B
100
AcDbEntity
8
CUTOUTS
100
AcDbLine
10
-70.066886382057078
20
-20.217297078279799
30
0
11
-67.794812030561673
21
37.788221436265928
31
0
0
LINE
5
11C
100
AcDbEntity
8
CUTOUTS
100
AcDbLine
10
-55.936300600062374
20
-20.794535641355594
30
0
11
-53.332273807862549
21
37.197028783702436
31
0
0
LINE
5
11D
100
AcDbEntity
8
CUTOUTS
100
AcDbLine
10
-53.332273807862549
20
37.197028783702436
30
0
11
-47.488162664252172
21
36.934607479061569
31
0
0
LINE
5
11E
100
AcDbEntity
8
CUTOUTS
100
AcDbLine
10
-47.488162664252172
20
36.934607479061569
30
0
11
-50.092189456451308
21
-21.05695694599585
31
0
0
LINE
5
11F
100
AcDbEntity
8
CUTOUTS
100
AcDbLine
10
-50.092189456451308
20
-21.05695694599585
30
0
11
-55.936300600062374
21
-20.794535641355594
31
0
0
LINE
5
120
100
AcDbEntity
8
CUTOUTS
100
AcDbLine
10
-38.87335607845241
20
36.523071347082904
30
0
11
-33.030842600807645
21
36.227206067716033
31
0
0
LINE
5
121
100
AcDbEntity
8
CUTOUTS
100
AcDbLine
10
-33.030842600807645
20
36.227206067716025
30
0
11
-35.96673652683593
21
-21.748504595071623
31
0
0
LINE
5
122
100
AcDbEntity
8
CUTOUTS
100
AcDbLine
10
-35.96673652683593
20
-21.748504595071623
30
0
11
-41.809250004486444
21
-21.452639315703507
31
0
0
LINE
5
123
100
AcDbEntity
8
CUTOUTS
100
AcDbLine
10
-41.809250004486444
20
-21.452639315703507
30
0
11
-38.87335607845241
21
36.523071347082904
31
0
0
LINE
5
124
100
AcDbEntity
8
CUTOUTS
100
AcDbLine
10
-24.418532480807134
20
35.76637120273076
30
0
11
-18.577808056568426
21
35.437071642887112
31
0
0
LINE
5
125
100
AcDbEntity
8
CUTOUTS
100
AcDbLine
10
-18.577808056568426
20
35.437071642887112
30
0
11
-21.845472919633355
21
-22.520886105318496
31
0
0
LINE
5
126
100
AcDbEntity
8
CUTOUTS
100
AcDbLine
10
-21.845472919633355
20
-22.520886105318496
30
0
11
-27.686197343875598
21
-22.191586545475161
31
0
0
LINE
5
127
100
AcDbEntity
8
CUTOUTS
100
AcDbLine
10
-27.686197343875598
20
-22.191586545475161
30
0
11
-24.418532480807134
21
35.76637120273076
31
0
0
LINE
5
128
100
AcDbEntity
8
CUTOUTS
100
AcDbLine
10
-7.7288612613474861
20
-23.374076176086636
30
0
11
-13.567605302965084
21
-23.011353118377961
31
0
0
LINE
5
129
100
AcDbEntity
8
CUTOUTS
100
AcDbLine
10
-13.567605302965084
20
-23.011353118377961
30
0
11
-9.9682764995430695
21
34.926953140650959
31
0
0
LINE
5
12A
100
AcDbEntity
8
CUTOUTS
100
AcDbLine
10
-9.9682764995430695
20
34.926953140650959
30
0
11
-4.1295324579362358
21
34.56423008294253
31
0
0
LINE
5
12B
100
AcDbEntity
8
CUTOUTS
100
AcDbLine
10
-4.1295324579362358
20
34.56423008294253
30
0
11
-7.7288612613474861
21
-23.374076176086636
31
0
0
LINE
5
12C
100
AcDbEntity
8
CUTOUTS
100
AcDbLine
10
0.54606370829638706
20
-23.911912190647922
30
0
11
4.4769384924334332
21
34.004844654254867
31
0
0
LINE
5
12D
100
AcDbEntity
8
CUTOUTS
100
AcDbLine
10
4.4769384924334332
20
34.004844654254867
30
0
11
10.313510887655291
21
33.608709986086829
31
0
0
LINE
5
12E
100
AcDbEntity
8
CUTOUTS
100
AcDbLine
10
10.313510887655291
20
33.608709986086829
30
0
11
6.3826361035265577
21
-24.308046858816326
31
0
0
LINE
5
12F
100
AcDbEntity
8
CUTOUTS
100
AcDbLine
10
6.3826361035265577
20
-24.308046858816326
30
0
11
0.54606370829638706
21
-23.911912190647922
31
0
0
LINE
5
130
100
AcDbEntity
8
CUTOUTS
100
AcDbLine
10
18.916639334244501
20
33.000075953142435
30
0
11
24.750848889761876
21
32.570542645578378
31
0
0
LINE
5
131
100
AcDbEntity
8
CUTOUTS
100
AcDbLine
10
24.750848889761876
20
32.570542645578378
30
0
11
20.488556837784309
21
-25.322767559175894
31
0
0
LINE
5
132
100
AcDbEntity
8
CUTOUTS
100
AcDbLine
10
20.488556837784309
20
-25.322767559175894
30
0
11
14.654347282257199
21
-24.89323425161129
31
0
0
LINE
5
133
100
AcDbEntity
8
CUTOUTS
100
AcDbLine
10
14.654347282257199
20
-24.89323425161129
30
0
11
18.916639334244501
21
33.000075953142442
31
0
0
LINE
5
134
100
AcDbEntity
8
CUTOUTS
100
AcDbLine
10
39.182008603058307
20
31.44976207428893
30
0
11
34.588438933869803
21
-26.418205037875907
31
0
0
LINE
5
135
100
AcDbEntity
8
CUTOUTS
100
AcDbLine
10
34.588438933869803
20
-26.418205037875904
30
0
11
28.756783333416109
21
-25.955287164236545
31
0
0
LINE
5
136
100
AcDbEntity
8
CUTOUTS
100
AcDbLine
10
28.756783333416109
20
-25.955287164236545
30
0
11
33.350353002606923
21
31.912679947928268
31
0
0
LINE
5
137
100
AcDbEntity
8
CUTOUTS
100
AcDbLine
10
33.350353002606923
20
31.912679947928261
30
0
11
39.182008603058307
21
31.44976207428893
31
0
0
LINE
5
138
100
AcDbEntity
8
CUTOUTS
100
AcDbLine
10
47.77760669234933
20
30.742692259306985
30
0
11
53.606517305950021
21
30.246404984992328
31
0
0
LINE
5
139
100
AcDbEntity
8
CUTOUTS
100
AcDbLine
10
53.606517305950021
20
30.246404984992328
30
0
11
48.681820506984792
21
-27.594323411515465
31
0
0
LINE
5
13A
100
AcDbEntity
8
CUTOUTS
100
AcDbLine
10
48.681820506984792
20
-27.594323411515465
30
0
11
42.852909893372626
21
-27.098036137199905
31
0
0
LINE
5
13B
100
AcDbEntity
8
CUTOUTS
100
AcDbLine
10
42.852909893372626
20
-27.098036137199905
30
0
11
47.77760669234933
21
30.742692259306985
31
0
0
LINE
5
13C
100
AcDbEntity
8
CUTOUTS
100
AcDbLine
10
62.768239871628033
20
-28.851084153189284
30
0
11
56.942265187009191
21
-28.321443733421845
31
0
0
LINE
5
13D
100
AcDbEntity
8
CUTOUTS
100
AcDbLine
10
56.942265187009191
20
-28.321443733421845
30
0
11
62.197927813916714
21
29.490151213893743
31
0
0
LINE
5
13E
100
AcDbEntity
8
CUTOUTS
100
AcDbLine
10
62.197927813916714
20
29.490151213893743
30
0
11
68.023902498529651
21
28.960510794128286
31
0
0
LINE
5
13F
100
AcDbEntity
8
CUTOUTS
100
AcDbLine
10
68.023902498529651
20
28.960510794128286
30
0
11
62.768239871628033
21
-28.85108415318928
31
0
0
LINE
5
140
100
AcDbEntity
8
CUTOUTS
100
AcDbLine
10
76.610843985186364
20
28.15509783989274
30
0
11
82.433691895325367
21
27.592121627841358
31
0
0
LINE
5
141
100
AcDbEntity
8
CUTOUTS
100
AcDbLine
10
82.433691895325367
20
27.592121627841358
30
0
11
76.847235637299391
21
-30.188446095897547
31
0
0
LINE
5
142
100
AcDbEntity
8
CUTOUTS
100
AcDbLine
10
76.847235637299391
20
-30.188446095897543
30
0
11
71.024387727160246
21
-29.625469883846183
31
0
0
LINE
5
143
100
AcDbEntity
8
CUTOUTS
100
AcDbLine
10
71.024387727160246
20
-29.625469883846183
30
0
11
76.610843985186364
21
28.15509783989274
31
0
0
LINE
5
144
100
AcDbEntity
8
CUTOUTS
100
AcDbLine
10
85.098816181932904
20
-31.010071865778237
30
0
11
91.015883090874325
21
26.737575871558377
31
0
0
LINE
5
145
100
AcDbEntity
8
CUTOUTS
100
AcDbLine
10
91.015883090874325
20
26.737575871558377
30
0
11
96.835413483011195
21
26.141282307091505
31
0
0
LINE
5
146
100
AcDbEntity
8
CUTOUTS
100
AcDbLine
10
96.835413483011195
20
26.141282307091505
30
0
11
90.918346574066007
21
-31.606365430245589
31
0
0
LINE
5
147
100
AcDbEntity
8
CUTOUTS
100
AcDbLine
10
90.918346574066007
20
-31.606365430245589
30
0
11
85.098816181932904
21
-31.010071865778237
31
0
0
LINE
5
148
100
AcDbEntity
8
CUTOUTS
100
AcDbLine
10
111.22859549143928
20
24.608040360564615
30
0
11
104.98111178517263
21
-33.104795710282211
31
0
0
LINE
5
149
100
AcDbEntity
8
CUTOUTS
100
AcDbLine
10
104.98111178517263
20
-33.104795710282211
30
0
11
99.165089545463275
21
-32.475204329029353
31
0
0
LINE
5
14A
100
AcDbEntity
8
CUTOUTS
100
AcDbLine
10
99.165089545463275
20
-32.475204329029353
30
0
11
105.41257325174175
21
25.23763174181644
31
0
0
LINE
5
14B
100
AcDbEntity
8
CUTOUTS
100
AcDbLine
10
105.41257325174175
20
25.23763174181644
30
0
11
111.22859549143928
21
24.608040360564608
31
0
0
LINE
5
14C
100
AcDbEntity
8
CUTOUTS
100
AcDbLine
10
119.03507057135411
20
-34.683687849813971
30
0
11
113.22274700419098
21
-34.020819272749996
31
0
0
LINE
5
14D
100
AcDbEntity
8
CUTOUTS
100
AcDbLine
10
113.22274700419098
20
-34.020819272749996
30
0
11
119.8004428843155
21
23.655314586145764
31
0
0
LINE
5
14E
100
AcDbEntity
8
CUTOUTS
100
AcDbLine
10
119.8004428843155
20
23.655314586145764
30
0
11
125.61276645149337
21
22.992446009079529
31
0
0
LINE
5
14F
100
AcDbEntity
8
CUTOUTS
100
AcDbLine
10
125.61276645149337
20
22.992446009079529
30
0
11
119.03507057135411
21
-34.683687849813978
31
0
0
LINE
5
150
100
AcDbEntity
8
CUTOUTS
100
AcDbLine
10
134.1790206664709
20
21.990676235239583
30
0
11
139.9874551629494
21
21.294552180083262
31
0
0
LINE
5
151
100
AcDbEntity
8
CUTOUTS
100
AcDbLine
10
139.9874551629494
20
21.294552180083262
30
0
11
133.07976261562206
21
-36.342990131089167
31
0
0
LINE
5
152
100
AcDbEntity
8
CUTOUTS
100
AcDbLine
10
133.07976261562206
20
-36.342990131089167
30
0
11
127.27132811913094
21
-35.64686607593228
31
0
0
LINE
5
153
100
AcDbEntity
8
CUTOUTS
100
AcDbLine
10
127.27132811913094
20
-35.64686607593228
30
0
11
134.1790206664709
21
21.990676235239583
31
0
0
LINE
5
154
100
AcDbEntity
8
CUTOUTS
100
AcDbLine
10
154.3521907618159
20
19.514414488080508
30
0
11
147.11472781308885
21
-38.082648198019434
31
0
0
LINE
5
155
100
AcDbEntity
8
CUTOUTS
100
AcDbLine
10
147.11472781308885
20
-38.082648198019427
30
0
11
141.31037265864592
21
-37.35329146675079
31
0
0
LINE
5
156
100
AcDbEntity
8
CUTOUTS
100
AcDbLine
10
141.31037265864592
20
-37.35329146675079
30
0
11
148.54783560739961
21
20.243771219344985
31
0
0
LINE
5
157
100
AcDbEntity
8
CUTOUTS
100
AcDbLine
10
148.54783560739961
20
20.243771219344989
30
0
11
154.3521907618159
21
19.514414488080508
31
0
0
LINE
5
158
100
AcDbEntity
8
PERIMETER
100
AcDbLine
10
160.71340717001743
20
18.699425332044122
30
0
11
166.66289461897489
21
17.922508924917164
31
0
0
LINE
5
159
100
AcDbEntity
8
PERIMETER
100
AcDbLine
10
166.66289461897489
20
17.922508924917164
30
0
11
166.94128953315771
21
20.054407584849585
31
0
0
ARC
5
15A
100
AcDbEntity
8
PERIMETER
100
AcDbCircle
10
-166.85720961672138
20
-2535.5553795656774
30
0
40
2577.316981322685
210
0
220
-0
230
1
100
AcDbArc
50
82.558493820441385
51
90.001667308870111
0
LINE
5
15B
100
AcDbEntity
8
PERIMETER
100
AcDbLine
10
-166.93220961672512
20
41.761600665756013
30
0
11
-166.93220961672083
21
39.611601757007101
31
0
0
LINE
5
15C
100
AcDbEntity
8
PERIMETER
100
AcDbLine
10
-166.93220961672083
20
39.611601757007101
30
0
11
-160.93220961672165
21
39.611601757007101
31
0
0
LINE
5
15D
100
AcDbEntity
8
PERIMETER
100
AcDbLine
10
-160.93220961672165
20
39.611601757007101
30
0
11
-160.93220961672483
21
-18.438398242992896
31
0
0
LINE
5
15E
100
AcDbEntity
8
PERIMETER
100
AcDbLine
10
-160.93220961672483
20
-18.438398242992893
30
0
11
-166.93220961672409
21
-18.438398242992893
31
0
0
LINE
5
15F
100
AcDbEntity
8
PERIMETER
100
AcDbLine
10
-166.93220961672412
20
-18.438398242992893
30
0
11
-166.93220961672466
21
-20.588399361298784
31
0
0
ARC
5
160
100
AcDbEntity
8
PERIMETER
100
AcDbCircle
10
-166.85720961672573
20
-2535.5553795686192
30
0
40
2514.966981325626
210
0
220
-0
230
1
100
AcDbArc
50
82.558453880831962
51
90.001708644088041
0
LINE
5
161
100
AcDbEntity
8
PERIMETER
100
AcDbLine
10
158.86783319753076
20
-41.770682839211801
30
0
11
159.14622837850291
21
-39.638782136264929
31
0
0
LINE
5
162
100
AcDbEntity
8
PERIMETER
100
AcDbLine
10
159.14622837850291
20
-39.638782136264929
30
0
11
153.19674093199876
21
-38.86186572945828
31
0
0
LINE
5
163
100
AcDbEntity
8
PERIMETER
100
AcDbLine
10
153.19674093199876
20
-38.86186572945828
30
0
11
160.71340717001743
21
18.699425332044122
31
0
0
ENDSEC
0
SECTION
2
OBJECTS
0
DICTIONARY
5
C
100
AcDbDictionary
3
ACAD_GROUP
350
D
3
ACAD_MLINESTYLE
350
17
0
DICTIONARY
5
D
100
AcDbDictionary
0
DICTIONARY
5
1A
330
C
100
AcDbDictionary
0
DICTIONARY
5
17
100
AcDbDictionary
0
ENDSEC
0
EOF
