0
SECTION
2
HEADER
9
$INSUNITS
70
4
9
$ACADVER
1
AC1014
9
$HANDSEED
5
FFFF
0
ENDSEC
0
SECTION
2
TABLES
0
TABLE
2
VPORT
5
8
100
AcDbSymbolTable
0
ENDTAB
0
TABLE
2
LTYPE
5
5
100
AcDbSymbolTable
70
2
0
LTYPE
5
14
100
AcDbSymbolTableRecord
100
AcDbLinetypeTableRecord
2
BYBLOCK
70
0
0
LTYPE
5
15
100
AcDbSymbolTableRecord
100
AcDbLinetypeTableRecord
2
BYLAYER
70
0
0
ENDTAB
0
TABLE
2
LAYER
5
2
100
AcDbSymbolTable
70
3
0
LAYER
5
50
100
AcDbSymbolTableRecord
100
AcDbLayerTableRecord
2
0
70
0
6
CONTINUOUS
0
LAYER
5
51
100
AcDbSymbolTableRecord
100
AcDbLayerTableRecord
2
CUTOUTS
70
0
62
1
6
CONTINUOUS
0
LAYER
5
52
100
AcDbSymbolTableRecord
100
AcDbLayerTableRecord
2
PERIMETER
70
0
62
5
6
CONTINUOUS
0
ENDTAB
0
TABLE
2
STYLE
5
3
100
AcDbSymbolTable
70
1
0
STYLE
5
11
100
AcDbSymbolTableRecord
100
AcDbTextStyleTableRecord
2
STANDARD
70
0
0
ENDTAB
0
TABLE
2
VIEW
5
6
100
AcDbSymbolTable
0
ENDTAB
0
TABLE
2
UCS
5
7
100
AcDbSymbolTable
0
ENDTAB
0
TABLE
2
APPID
5
9
100
AcDbSymbolTable
70
1
0
APPID
5
12
100
AcDbSymbolTableRecord
100
AcDbRegAppTableRecord
2
ACAD
70
0
0
ENDTAB
0
TABLE
2
DIMSTYLE
5
A
100
AcDbSymbolTable
0
ENDTAB
0
TABLE
2
BLOCK_RECORD
5
1
100
AcDbSymbolTable
70
2
0
BLOCK_RECORD
5
1F
100
AcDbSymbolTableRecord
100
AcDbBlockTableRecord
2
*MODEL_SPACE
0
BLOCK_RECORD
5
1B
100
AcDbSymbolTableRecord
100
AcDbBlockTableRecord
2
*PAPER_SPACE
0
ENDTAB
0
ENDSEC
0
SECTION
2
BLOCKS
0
BLOCK
5
20
100
AcDbEntity
100
AcDbBlockBegin
2
*MODEL_SPACE
0
ENDBLK
5
21
100
AcDbEntity
100
AcDbBlockEnd
0
BLOCK
5
1C
100
AcDbEntity
100
AcDbBlockBegin
2
*PAPER_SPACE
0
ENDBLK
5
1D
100
AcDbEntity
100
AcDbBlockEnd
0
ENDSEC
0
SECTION
2
ENTITIES
0
LINE
5
100
100
AcDbEntity
8
CUTOUTS
100
AcDbLine
10
-155.13610396035477
20
-18.46834080135709
30
0
11
-154.8569262703088
21
39.580987875358815
31
0
0
LINE
5
101
100
AcDbEntity
8
CUTOUTS
100
AcDbLine
10
-154.8569262703088
20
39.580987875358815
30
0
11
-149.00699392304284
21
39.55285368954015
31
0
0
LINE
5
102
100
AcDbEntity
8
CUTOUTS
100
AcDbLine
10
-149.00699392304284
20
39.55285368954015
30
0
11
-149.2861716130887
21
-18.496474987175844
31
0
0
LINE
5
103
100
AcDbEntity
8
CUTOUTS
100
AcDbLine
10
-149.2861716130887
20
-18.496474987175844
30
0
11
-155.13610396035475
21
-18.46834080135709
31
0
0
LINE
5
104
100
AcDbEntity
8
CUTOUTS
100
AcDbLine
10
-140.99403037090013
20
-18.560084373611005
30
0
11
-140.38261700142857
21
39.486695672241993
31
0
0
LINE
5
105
100
AcDbEntity
8
CUTOUTS
100
AcDbLine
10
-140.38261700142857
20
39.486695672241993
30
0
11
-134.53294149293188
21
39.425080371442569
31
0
0
LINE
5
106
100
AcDbEntity
8
CUTOUTS
100
AcDbLine
10
-134.53294149293188
20
39.425080371442569
30
0
11
-135.14435486240254
21
-18.621699674410443
31
0
0
LINE
5
107
100
AcDbEntity
8
CUTOUTS
100
AcDbLine
10
-135.14435486240254
20
-18.621699674410443
30
0
11
-140.99403037090011
21
-18.560084373611005
31
0
0
LINE
5
108
100
AcDbEntity
8
CUTOUTS
100
AcDbLine
10
-126.8527135639083
20
-18.732766752344993
30
0
11
-125.90908445123904
21
39.309563181055644
31
0
0
LINE
5
109
100
AcDbEntity
8
CUTOUTS
100
AcDbLine
10
-125.90908445123904
20
39.309563181055644
30
0
11
-120.05985740368689
21
39.214468774352632
31
0
0
LINE
5
10A
100
AcDbEntity
8
CUTOUTS
100
AcDbLine
10
-120.05985740368689
20
39.214468774352632
30
0
11
-121.00348651635559
21
-18.82786115904802
31
0
0
LINE
5
10B
100
AcDbEntity
8
CUTOUTS
100
AcDbLine
10
-121.00348651635562
20
-18.827861159048016
30
0
11
-126.8527135639083
21
-18.732766752344993
31
0
0
LINE
5
10C
100
AcDbEntity
8
CUTOUTS
100
AcDbLine
10
-112.71261673174094
20
-18.986382283016621
30
0
11
-111.43680274374924
21
39.049596201610164
31
0
0
LINE
5
10D
100
AcDbEntity
8
CUTOUTS
100
AcDbLine
10
-111.43680274374924
20
39.049596201610164
30
0
11
-105.58821576467808
21
38.921025799719686
31
0
0
LINE
5
10E
100
AcDbEntity
8
CUTOUTS
100
AcDbLine
10
-105.58821576467808
20
38.921025799719686
30
0
11
-106.86402975266927
21
-19.114952684907109
31
0
0
LINE
5
10F
100
AcDbEntity
8
CUTOUTS
100
AcDbLine
10
-106.86402975266927
20
-19.114952684907109
30
0
11
-112.71261673174094
21
-18.986382283016621
31
0
0
LINE
5
110
100
AcDbEntity
8
CUTOUTS
100
AcDbLine
10
-98.574203019837512
20
-19.320922661456279
30
0
11
-96.966245964064299
21
38.70680324699908
31
0
0
LINE
5
111
100
AcDbEntity
8
CUTOUTS
100
AcDbLine
10
-96.966245964064299
20
38.70680324699908
30
0
11
-91.118490639956207
21
38.544761063084167
31
0
0
LINE
5
112
100
AcDbEntity
8
CUTOUTS
100
AcDbLine
10
-91.118490639956207
20
38.544761063084167
30
0
11
-92.726447695727998
21
-19.482964845371235
31
0
0
LINE
5
113
100
AcDbEntity
8
CUTOUTS
100
AcDbLine
10
-92.726447695727998
20
-19.482964845371235
30
0
11
-98.574203019837512
21
-19.320922661456279
31
0
0
LINE
5
114
100
AcDbEntity
8
CUTOUTS
100
AcDbLine
10
-78.591203492335239
20
-19.931885586760227
30
0
11
-84.437935602102186
21
-19.736376925409971
31
0
0
LINE
5
115
100
AcDbEntity
8
CUTOUTS
100
AcDbLine
10
-84.437935602102186
20
-19.736376925409971
30
0
11
-82.497888116392758
21
38.281195548395218
31
0
0
LINE
5
116
100
AcDbEntity
8
CUTOUTS
100
AcDbLine
10
-82.497888116392758
20
38.281195548395218
30
0
11
-76.651156006629265
21
38.085686887045071
31
0
0
LINE
5
117
100
AcDbEntity
8
CUTOUTS
100
AcDbLine
10
-76.651156006629265
20
38.085686887045071
30
0
11
-78.591203492335239
21
-19.931885586760227
31
0
0
LINE
5
118
100
AcDbEntity
8
CUTOUTS
100
AcDbLine
10
-68.032203155009682
20
37.772787045432935
30
0
11
-62.186685785326361
21
37.543818312336995
31
0
0
LINE
5
119
100
AcDbEntity
8
CUTOUTS
100
AcDbLine
10
-62.186685785326361
20
37.543818312336995
30
0
11
-64.458760136820956
21
-20.461700202208775
31
0
0
LINE
5
11A
100
AcDbEntity
8
CUTOUTS
100
AcDbLine
10
-64.458760136820956
20
-20.461700202208775
30
0
11
-70.304277506505088
21
-20.232731469112792
31
0
0
LINE
5
11B
100
AcDbEntity
8
CUTOUTS
100
AcDbLine
10
-70.304277506505088
20
-20.232731469112792
30
0
11
-68.032203155009682
21
37.772787045432935
31
0
0
LINE
5
11C
100
AcDbEntity
8
CUTOUTS
100
AcDbLine
10
-56.173691724510384
20
-20.809970032188588
30
0
11
-53.569664932310559
21
37.181594392869442
31
0
0
LINE
5
11D
100
AcDbEntity
8
CUTOUTS
100
AcDbLine
10
-53.569664932310559
20
37.181594392869442
30
0
11
-47.725553788700182
21
36.919173088228575
31
0
0
LINE
5
11E
100
AcDbEntity
8
CUTOUTS
100
AcDbLine
10
-47.725553788700182
20
36.919173088228575
30
0
11
-50.329580580899318
21
-21.072391336828844
31
0
0
LINE
5
11F
100
AcDbEntity
8
CUTOUTS
100
AcDbLine
10
-50.329580580899318
20
-21.072391336828844
30
0
11
-56.173691724510384
21
-20.809970032188588
31
0
0
LINE
5
120
100
AcDbEntity
8
CUTOUTS
100
AcDbLine
10
-33.268233725255655
20
36.211771676883032
30
0
11
-36.20412765128394
21
-21.763938985904616
31
0
0
LINE
5
121
100
AcDbEntity
8
CUTOUTS
100
AcDbLine
10
-36.20412765128394
20
-21.763938985904616
30
0
11
-42.046641128934453
21
-21.468073706536501
31
0
0
LINE
5
122
100
AcDbEntity
8
CUTOUTS
100
AcDbLine
10
-42.046641128934453
20
-21.468073706536501
30
0
11
-39.11074720290042
21
36.507636956249911
31
0
0
LINE
5
123
100
AcDbEntity
8
CUTOUTS
100
AcDbLine
10
-39.11074720290042
20
36.507636956249911
30
0
11
-33.268233725255655
21
36.211771676883039
31
0
0
LINE
5
124
100
AcDbEntity
8
CUTOUTS
100
AcDbLine
10
-24.655923605255143
20
35.750936811897766
30
0
11
-18.815199181016435
21
35.421637252054119
31
0
0
LINE
5
125
100
AcDbEntity
8
CUTOUTS
100
AcDbLine
10
-18.815199181016435
20
35.421637252054119
30
0
11
-22.082864044081365
21
-22.53632049615149
31
0
0
LINE
5
126
100
AcDbEntity
8
CUTOUTS
100
AcDbLine
10
-22.082864044081365
20
-22.53632049615149
30
0
11
-27.923588468323608
21
-22.207020936308155
31
0
0
LINE
5
127
100
AcDbEntity
8
CUTOUTS
100
AcDbLine
10
-27.923588468323608
20
-22.207020936308155
30
0
11
-24.655923605255143
21
35.750936811897766
31
0
0
LINE
5
128
100
AcDbEntity
8
CUTOUTS
100
AcDbLine
10
-10.205667623991079
20
34.911518749817965
30
0
11
-4.3669235823842456
21
34.548795692109536
31
0
0
LINE
5
129
100
AcDbEntity
8
CUTOUTS
100
AcDbLine
10
-4.3669235823842456
20
34.548795692109536
30
0
11
-7.9662523857954959
21
-23.389510566919629
31
0
0
LINE
5
12A
100
AcDbEntity
8
CUTOUTS
100
AcDbLine
10
-7.9662523857954959
20
-23.389510566919629
30
0
11
-13.804996427413094
21
-23.026787509210955
31
0
0
LINE
5
12B
100
AcDbEntity
8
CUTOUTS
100
AcDbLine
10
-13.804996427413094
20
-23.026787509210955
30
0
11
-10.205667623991079
21
34.911518749817965
31
0
0
LINE
5
12C
100
AcDbEntity
8
CUTOUTS
100
AcDbLine
10
6.1452449790785479
20
-24.323481249649319
30
0
11
0.30867258384837726
21
-23.927346581480915
31
0
0
LINE
5
12D
100
AcDbEntity
8
CUTOUTS
100
AcDbLine
10
0.30867258384837726
20
-23.927346581480915
30
0
11
4.2395473679854234
21
33.989410263421874
31
0
0
LINE
5
12E
100
AcDbEntity
8
CUTOUTS
100
AcDbLine
10
4.2395473679854234
20
33.989410263421874
30
0
11
10.076119763207281
21
33.593275595253836
31
0
0
LINE
5
12F
100
AcDbEntity
8
CUTOUTS
100
AcDbLine
10
10.076119763207281
20
33.593275595253836
30
0
11
6.1452449790785479
21
-24.323481249649319
31
0
0
LINE
5
130
100
AcDbEntity
8
CUTOUTS
100
AcDbLine
10
24.513457765313831
20
32.555108254745356
30
0
11
20.251165713336263
21
-25.338201950008838
31
0
0
LINE
5
131
100
AcDbEntity
8
CUTOUTS
100
AcDbLine
10
20.251165713336263
20
-25.338201950008845
30
0
11
14.416956157809224
21
-24.908668642444248
31
0
0
LINE
5
132
100
AcDbEntity
8
CUTOUTS
100
AcDbLine
10
14.416956157809224
20
-24.908668642444248
30
0
11
18.679248209796526
21
32.984641562309406
31
0
0
LINE
5
133
100
AcDbEntity
8
CUTOUTS
100
AcDbLine
10
18.679248209796526
20
32.984641562309406
30
0
11
24.513457765313831
21
32.555108254745356
31
0
0
LINE
5
134
100
AcDbEntity
8
CUTOUTS
100
AcDbLine
10
38.944617478610297
20
31.434327683455937
30
0
11
34.351047809421793
21
-26.433639428708901
31
0
0
LINE
5
135
100
AcDbEntity
8
CUTOUTS
100
AcDbLine
10
34.351047809421793
20
-26.433639428708897
30
0
11
28.5193922089681
21
-25.970721555069538
31
0
0
LINE
5
136
100
AcDbEntity
8
CUTOUTS
100
AcDbLine
10
28.5193922089681
20
-25.970721555069538
30
0
11
33.112961878158913
21
31.897245557095275
31
0
0
LINE
5
137
100
AcDbEntity
8
CUTOUTS
100
AcDbLine
10
33.112961878158913
20
31.897245557095268
30
0
11
38.944617478610297
21
31.434327683455937
31
0
0
LINE
5
138
100
AcDbEntity
8
CUTOUTS
100
AcDbLine
10
47.540215567901321
20
30.727257868473991
30
0
11
53.369126181502011
21
30.230970594159334
31
0
0
LINE
5
139
100
AcDbEntity
8
CUTOUTS
100
AcDbLine
10
53.369126181502011
20
30.230970594159334
30
0
11
48.444429382536782
21
-27.609757802348458
31
0
0
LINE
5
13A
100
AcDbEntity
8
CUTOUTS
100
AcDbLine
10
48.444429382536782
20
-27.609757802348458
30
0
11
42.615518768924616
21
-27.113470528032899
31
0
0
LINE
5
13B
100
AcDbEntity
8
CUTOUTS
100
AcDbLine
10
42.615518768924616
20
-27.113470528032899
30
0
11
47.540215567901321
21
30.727257868473991
31
0
0
LINE
5
13C
100
AcDbEntity
8
CUTOUTS
100
AcDbLine
10
62.530848747180023
20
-28.866518544022277
30
0
11
56.704874062561181
21
-28.336878124254838
31
0
0
LINE
5
13D
100
AcDbEntity
8
CUTOUTS
100
AcDbLine
10
56.704874062561181
20
-28.336878124254838
30
0
11
61.960536689468704
21
29.474716823060749
31
0
0
LINE
5
13E
100
AcDbEntity
8
CUTOUTS
100
AcDbLine
10
61.960536689468704
20
29.474716823060749
30
0
11
67.786511374081641
21
28.945076403295293
31
0
0
LINE
5
13F
100
AcDbEntity
8
CUTOUTS
100
AcDbLine
10
67.786511374081641
20
28.945076403295293
30
0
11
62.530848747180023
21
-28.866518544022274
31
0
0
LINE
5
140
100
AcDbEntity
8
CUTOUTS
100
AcDbLine
10
82.196300770877357
20
27.576687237008365
30
0
11
76.609844512851382
21
-30.20388048673054
31
0
0
LINE
5
141
100
AcDbEntity
8
CUTOUTS
100
AcDbLine
10
76.609844512851382
20
-30.203880486730537
30
0
11
70.786996602712236
21
-29.640904274679176
31
0
0
LINE
5
142
100
AcDbEntity
8
CUTOUTS
100
AcDbLine
10
70.786996602712236
20
-29.640904274679176
30
0
11
76.373452860738354
21
28.139663449059746
31
0
0
LINE
5
143
100
AcDbEntity
8
CUTOUTS
100
AcDbLine
10
76.373452860738354
20
28.139663449059746
30
0
11
82.196300770877357
21
27.576687237008365
31
0
0
LINE
5
144
100
AcDbEntity
8
CUTOUTS
100
AcDbLine
10
84.861425057484894
20
-31.02550625661123
30
0
11
90.778491966426316
21
26.722141480725384
31
0
0
LINE
5
145
100
AcDbEntity
8
CUTOUTS
100
AcDbLine
10
90.778491966426316
20
26.722141480725384
30
0
11
96.598022358563185
21
26.125847916258511
31
0
0
LINE
5
146
100
AcDbEntity
8
CUTOUTS
100
AcDbLine
10
96.598022358563185
20
26.125847916258511
30
0
11
90.680955449617997
21
-31.621799821078582
31
0
0
LINE
5
147
100
AcDbEntity
8
CUTOUTS
100
AcDbLine
10
90.680955449617997
20
-31.621799821078582
30
0
11
84.861425057484894
21
-31.02550625661123
31
0
0
LINE
5
148
100
AcDbEntity
8
CUTOUTS
100
AcDbLine
10
110.99120436699127
20
24.592605969731622
30
0
11
104.74372066072462
21
-33.120230101115204
31
0
0
LINE
5
149
100
AcDbEntity
8
CUTOUTS
100
AcDbLine
10
104.74372066072462
20
-33.120230101115204
30
0
11
98.927698421015265
21
-32.490638719862346
31
0
0
LINE
5
14A
100
AcDbEntity
8
CUTOUTS
100
AcDbLine
10
98.927698421015265
20
-32.490638719862346
30
0
11
105.17518212729374
21
25.222197350983446
31
0
0
LINE
5
14B
100
AcDbEntity
8
CUTOUTS
100
AcDbLine
10
105.17518212729374
20
25.22219735098345
30
0
11
110.99120436699127
21
24.592605969731622
31
0
0
LINE
5
14C
100
AcDbEntity
8
CUTOUTS
100
AcDbLine
10
118.79767944690606
20
-34.699122240646965
30
0
11
112.98535587974297
21
-34.036253663582983
31
0
0
LINE
5
14D
100
AcDbEntity
8
CUTOUTS
100
AcDbLine
10
112.98535587974297
20
-34.036253663582983
30
0
11
119.56305175986749
21
23.63988019531277
31
0
0
LINE
5
14E
100
AcDbEntity
8
CUTOUTS
100
AcDbLine
10
119.56305175986749
20
23.63988019531277
30
0
11
125.37537532704533
21
22.977011618246543
31
0
0
LINE
5
14F
100
AcDbEntity
8
CUTOUTS
100
AcDbLine
10
125.37537532704533
20
22.977011618246543
30
0
11
118.79767944690606
21
-34.699122240646965
31
0
0
LINE
5
150
100
AcDbEntity
8
CUTOUTS
100
AcDbLine
10
133.94162954202289
20
21.975241844406579
30
0
11
139.75006403850136
21
21.279117789250257
31
0
0
LINE
5
151
100
AcDbEntity
8
CUTOUTS
100
AcDbLine
10
139.75006403850136
20
21.279117789250257
30
0
11
132.84237149117405
21
-36.35842452192216
31
0
0
LINE
5
152
100
AcDbEntity
8
CUTOUTS
100
AcDbLine
10
132.84237149117405
20
-36.35842452192216
30
0
11
127.03393699468293
21
-35.662300466765267
31
0
0
LINE
5
153
100
AcDbEntity
8
CUTOUTS
100
AcDbLine
10
127.03393699468293
20
-35.662300466765267
30
0
11
133.94162954202289
21
21.975241844406579
31
0
0
LINE
5
154
100
AcDbEntity
8
CUTOUTS
100
AcDbLine
10
154.11479963736787
20
19.498980097247514
30
0
11
146.87733668864084
21
-38.098082588852428
31
0
0
LINE
5
155
100
AcDbEntity
8
CUTOUTS
100
AcDbLine
10
146.87733668864084
20
-38.098082588852421
30
0
11
141.07298153419791
21
-37.368725857583783
31
0
0
LINE
5
156
100
AcDbEntity
8
CUTOUTS
100
AcDbLine
10
141.07298153419791
20
-37.368725857583783
30
0
11
148.3104444829516
21
20.228336828511992
31
0
0
LINE
5
157
100
AcDbEntity
8
CUTOUTS
100
AcDbLine
10
148.3104444829516
20
20.228336828511996
30
0
11
154.11479963736787
21
19.498980097247514
31
0
0
LINE
5
158
100
AcDbEntity
8
PERIMETER
100
AcDbLine
10
160.47601604556942
20
18.683990941211128
30
0
11
166.42550349452688
21
17.90707453408417
31
0
0
LINE
5
159
100
AcDbEntity
8
PERIMETER
100
AcDbLine
10
166.42550349452688
20
17.90707453408417
30
0
11
167.17868065779288
21
23.67477108045108
31
0
0
ARC
5
15A
100
AcDbEntity
8
PERIMETER
100
AcDbCircle
10
-167.09460074116942
20
-2535.5708139563076
30
0
40
2580.9836479891483
210
0
220
-0
230
1
100
AcDbArc
50
82.558496109125215
51
90.001664940212748
0
LINE
5
15B
100
AcDbEntity
8
PERIMETER
100
AcDbLine
10
-167.16960074116957
20
45.412832943139847
30
0
11
-167.16960074116898
21
39.596167366174107
31
0
0
LINE
5
15C
100
AcDbEntity
8
PERIMETER
100
AcDbLine
10
-167.16960074116898
20
39.596167366174107
30
0
11
-161.16960074116972
21
39.596167366174107
31
0
0
LINE
5
15D
100
AcDbEntity
8
PERIMETER
100
AcDbLine
10
-161.16960074116969
20
39.596167366174107
30
0
11
-161.16960074117284
21
-18.45383263382589
31
0
0
LINE
5
15E
100
AcDbEntity
8
PERIMETER
100
AcDbLine
10
-161.16960074117284
20
-18.453832633825886
30
0
11
-167.16960074117213
21
-18.453832633825886
31
0
0
LINE
5
15F
100
AcDbEntity
8
PERIMETER
100
AcDbLine
10
-167.16960074117213
20
-18.453832633825886
30
0
11
-167.16960074117264
21
-24.27050042043021
31
0
0
ARC
5
160
100
AcDbEntity
8
PERIMETER
100
AcDbCircle
10
-167.0946007411772
20
-2535.5708139597127
30
0
40
2511.3003146592205
210
0
220
-0
230
1
100
AcDbArc
50
82.558451470327483
51
90.001711138822714
0
LINE
5
161
100
AcDbEntity
8
PERIMETER
100
AcDbLine
10
158.15565982399181
20
-45.421915116555454
30
0
11
158.90883725405484
21
-39.654216527097915
31
0
0
LINE
5
162
100
AcDbEntity
8
PERIMETER
100
AcDbLine
10
158.90883725405484
20
-39.654216527097915
30
0
11
152.95934980755075
21
-38.877300120291274
31
0
0
LINE
5
163
100
AcDbEntity
8
PERIMETER
100
AcDbLine
10
152.95934980755075
20
-38.877300120291274
30
0
11
160.47601604556942
21
18.683990941211128
31
0
0
ENDSEC
0
SECTION
2
OBJECTS
0
DICTIONARY
5
C
100
AcDbDictionary
3
ACAD_GROUP
350
D
3
ACAD_MLINESTYLE
350
17
0
DICTIONARY
5
D
100
AcDbDictionary
0
DICTIONARY
5
1A
330
C
100
AcDbDictionary
0
DICTIONARY
5
17
100
AcDbDictionary
0
ENDSEC
0
EOF
