0
SECTION
2
HEADER
9
$INSUNITS
70
4
9
$ACADVER
1
AC1014
9
$HANDSEED
5
FFFF
0
ENDSEC
0
SECTION
2
TABLES
0
TABLE
2
VPORT
5
8
100
AcDbSymbolTable
0
ENDTAB
0
TABLE
2
LTYPE
5
5
100
AcDbSymbolTable
70
2
0
LTYPE
5
14
100
AcDbSymbolTableRecord
100
AcDbLinetypeTableRecord
2
BYBLOCK
70
0
0
LTYPE
5
15
100
AcDbSymbolTableRecord
100
AcDbLinetypeTableRecord
2
BYLAYER
70
0
0
ENDTAB
0
TABLE
2
LAYER
5
2
100
AcDbSymbolTable
70
3
0
LAYER
5
50
100
AcDbSymbolTableRecord
100
AcDbLayerTableRecord
2
0
70
0
6
CONTINUOUS
0
LAYER
5
51
100
AcDbSymbolTableRecord
100
AcDbLayerTableRecord
2
CUTOUTS
70
0
62
1
6
CONTINUOUS
0
LAYER
5
52
100
AcDbSymbolTableRecord
100
AcDbLayerTableRecord
2
PERIMETER
70
0
62
5
6
CONTINUOUS
0
ENDTAB
0
TABLE
2
STYLE
5
3
100
AcDbSymbolTable
70
1
0
STYLE
5
11
100
AcDbSymbolTableRecord
100
AcDbTextStyleTableRecord
2
STANDARD
70
0
0
ENDTAB
0
TABLE
2
VIEW
5
6
100
AcDbSymbolTable
0
ENDTAB
0
TABLE
2
UCS
5
7
100
AcDbSymbolTable
0
ENDTAB
0
TABLE
2
APPID
5
9
100
AcDbSymbolTable
70
1
0
APPID
5
12
100
AcDbSymbolTableRecord
100
AcDbRegAppTableRecord
2
ACAD
70
0
0
ENDTAB
0
TABLE
2
DIMSTYLE
5
A
100
AcDbSymbolTable
0
ENDTAB
0
TABLE
2
BLOCK_RECORD
5
1
100
AcDbSymbolTable
70
2
0
BLOCK_RECORD
5
1F
100
AcDbSymbolTableRecord
100
AcDbBlockTableRecord
2
*MODEL_SPACE
0
BLOCK_RECORD
5
1B
100
AcDbSymbolTableRecord
100
AcDbBlockTableRecord
2
*PAPER_SPACE
0
ENDTAB
0
ENDSEC
0
SECTION
2
BLOCKS
0
BLOCK
5
20
100
AcDbEntity
100
AcDbBlockBegin
2
*MODEL_SPACE
0
ENDBLK
5
21
100
AcDbEntity
100
AcDbBlockEnd
0
BLOCK
5
1C
100
AcDbEntity
100
AcDbBlockBegin
2
*PAPER_SPACE
0
ENDBLK
5
1D
100
AcDbEntity
100
AcDbBlockEnd
0
ENDSEC
0
SECTION
2
ENTITIES
0
LINE
5
100
100
AcDbEntity
8
CUTOUTS
100
AcDbLine
10
-154.90118471630964
20
-13.234558433150276
30
0
11
-154.47941756418834
21
44.813909354289201
31
0
0
LINE
5
101
100
AcDbEntity
8
CUTOUTS
100
AcDbLine
10
-154.47941756418834
20
44.813909354289201
30
0
11
-148.62957197320608
21
44.771405687796303
31
0
0
LINE
5
102
100
AcDbEntity
8
CUTOUTS
100
AcDbLine
10
-148.62957197320608
20
44.771405687796303
30
0
11
-149.05133912532727
21
-13.277062099643278
31
0
0
LINE
5
103
100
AcDbEntity
8
CUTOUTS
100
AcDbLine
10
-149.05133912532727
20
-13.277062099643286
30
0
11
-154.90118471630964
21
-13.234558433150276
31
0
0
LINE
5
104
100
AcDbEntity
8
CUTOUTS
100
AcDbLine
10
-134.11808146285716
20
44.577931198470594
30
0
11
-135.04175726578069
21
-13.464719697324075
31
0
0
LINE
5
105
100
AcDbEntity
8
CUTOUTS
100
AcDbLine
10
-135.04175726578069
20
-13.464719697324066
30
0
11
-140.89101665838092
21
-13.37163608927745
31
0
0
LINE
5
106
100
AcDbEntity
8
CUTOUTS
100
AcDbLine
10
-140.89101665838092
20
-13.37163608927745
30
0
11
-139.96734085545648
21
44.671014806517206
31
0
0
LINE
5
107
100
AcDbEntity
8
CUTOUTS
100
AcDbLine
10
-139.96734085545648
20
44.671014806517206
30
0
11
-134.11808146285716
21
44.577931198470594
31
0
0
LINE
5
108
100
AcDbEntity
8
CUTOUTS
100
AcDbLine
10
-126.88255752680584
20
-13.629849265283482
30
0
11
-125.45704222500916
21
44.40264513332346
31
0
0
LINE
5
109
100
AcDbEntity
8
CUTOUTS
100
AcDbLine
10
-125.45704222500916
20
44.40264513332346
30
0
11
-119.60880635538201
21
44.258988552522339
31
0
0
LINE
5
10A
100
AcDbEntity
8
CUTOUTS
100
AcDbLine
10
-119.608806355382
20
44.258988552522339
30
0
11
-121.03432165717814
21
-13.773505846084602
31
0
0
LINE
5
10B
100
AcDbEntity
8
CUTOUTS
100
AcDbLine
10
-121.03432165717817
20
-13.773505846084602
30
0
11
-126.88255752680587
21
-13.629849265283482
31
0
0
LINE
5
10C
100
AcDbEntity
8
CUTOUTS
100
AcDbLine
10
-110.94960653179136
20
44.008820402096617
30
0
11
-105.10283143311838
21
43.814601593688081
31
0
0
LINE
5
10D
100
AcDbEntity
8
CUTOUTS
100
AcDbLine
10
-105.10283143311838
20
43.814601593688081
30
0
11
-107.03007960886566
21
-14.203397462372767
31
0
0
LINE
5
10E
100
AcDbEntity
8
CUTOUTS
100
AcDbLine
10
-107.03007960886566
20
-14.203397462372767
30
0
11
-112.87685470753925
21
-14.009178653964227
31
0
0
LINE
5
10F
100
AcDbEntity
8
CUTOUTS
100
AcDbLine
10
-112.87685470753925
20
-14.009178653964227
30
0
11
-110.94960653179137
21
44.008820402096617
31
0
0
LINE
5
110
100
AcDbEntity
8
CUTOUTS
100
AcDbLine
10
-93.030078287656409
20
-14.754362409067951
30
0
11
-98.874955476006818
21
-14.509595881292423
31
0
0
LINE
5
111
100
AcDbEntity
8
CUTOUTS
100
AcDbLine
10
-98.874955476006818
20
-14.509595881292423
30
0
11
-96.446118392694132
21
43.489570064630712
31
0
0
LINE
5
112
100
AcDbEntity
8
CUTOUTS
100
AcDbLine
10
-96.446118392694132
20
43.489570064630712
30
0
11
-90.601241204345172
21
43.24480353685523
31
0
0
LINE
5
113
100
AcDbEntity
8
CUTOUTS
100
AcDbLine
10
-90.601241204345158
20
43.24480353685523
30
0
11
-93.030078287656409
21
-14.754362409067951
31
0
0
LINE
5
114
100
AcDbEntity
8
CUTOUTS
100
AcDbLine
10
-84.877906519433139
20
-15.131063550642718
30
0
11
-81.947662218492781
21
42.844932933564507
31
0
0
LINE
5
115
100
AcDbEntity
8
CUTOUTS
100
AcDbLine
10
-81.947662218492781
20
42.844932933564507
30
0
11
-76.105119937138554
21
42.549636996260872
31
0
0
LINE
5
116
100
AcDbEntity
8
CUTOUTS
100
AcDbLine
10
-76.105119937138554
20
42.549636996260872
30
0
11
-79.035364238075459
21
-15.426359487946524
31
0
0
LINE
5
117
100
AcDbEntity
8
CUTOUTS
100
AcDbLine
10
-79.035364238075459
20
-15.426359487946533
30
0
11
-84.877906519433139
21
-15.131063550642718
31
0
0
LINE
5
118
100
AcDbEntity
8
CUTOUTS
100
AcDbLine
10
-61.615551399474541
20
41.729153935042831
30
0
11
-65.046983927300744
21
-16.219338459556738
31
0
0
LINE
5
119
100
AcDbEntity
8
CUTOUTS
100
AcDbLine
10
-65.046983927300744
20
-16.219338459556745
30
0
11
-70.886754478695508
21
-15.873535181559104
31
0
0
LINE
5
11A
100
AcDbEntity
8
CUTOUTS
100
AcDbLine
10
-70.886754478695508
20
-15.873535181559104
30
0
11
-67.455321950868523
21
42.074957213040413
31
0
0
LINE
5
11B
100
AcDbEntity
8
CUTOUTS
100
AcDbLine
10
-67.455321950868523
20
42.074957213040413
30
0
11
-61.615551399474541
21
41.729153935042831
31
0
0
LINE
5
11C
100
AcDbEntity
8
CUTOUTS
100
AcDbLine
10
-56.902545245729748
20
-16.736955282707964
30
0
11
-52.970181164952606
21
41.179700462736207
31
0
0
LINE
5
11D
100
AcDbEntity
8
CUTOUTS
100
AcDbLine
10
-52.970181164952606
20
41.179700462736207
30
0
11
-47.13361895804772
21
40.783415710409265
31
0
0
LINE
5
11E
100
AcDbEntity
8
CUTOUTS
100
AcDbLine
10
-47.13361895804772
20
40.783415710409265
30
0
11
-51.065983038824228
21
-17.133240035034298
31
0
0
LINE
5
11F
100
AcDbEntity
8
CUTOUTS
100
AcDbLine
10
-51.065983038824228
20
-17.133240035034298
30
0
11
-56.902545245729748
21
-16.736955282707964
31
0
0
LINE
5
120
100
AcDbEntity
8
CUTOUTS
100
AcDbLine
10
-32.660405304022326
20
39.712493014092516
30
0
11
-37.093407071538692
21
-18.167995886134129
31
0
0
LINE
5
121
100
AcDbEntity
8
CUTOUTS
100
AcDbLine
10
-37.093407071538692
20
-18.167995886134129
30
0
11
-42.926324557612823
21
-17.721259273902781
31
0
0
LINE
5
122
100
AcDbEntity
8
CUTOUTS
100
AcDbLine
10
-42.926324557612823
20
-17.721259273902781
30
0
11
-38.493322790090772
21
40.159229626322485
31
0
0
LINE
5
123
100
AcDbEntity
8
CUTOUTS
100
AcDbLine
10
-38.493322790090772
20
40.159229626322485
30
0
11
-32.660405304022326
21
39.712493014092516
31
0
0
LINE
5
124
100
AcDbEntity
8
CUTOUTS
100
AcDbLine
10
-24.025829233576879
20
39.013620993845265
30
0
11
-18.196992571135304
21
38.516465924895996
31
0
0
LINE
5
125
100
AcDbEntity
8
CUTOUTS
100
AcDbLine
10
-18.196992571135304
20
38.516465924895996
30
0
11
-23.130300563017698
21
-19.32352864855816
31
0
0
LINE
5
126
100
AcDbEntity
8
CUTOUTS
100
AcDbLine
10
-23.130300563017698
20
-19.32352864855816
30
0
11
-28.959137225462666
21
-18.826373579609125
31
0
0
LINE
5
127
100
AcDbEntity
8
CUTOUTS
100
AcDbLine
10
-28.959137225462666
20
-18.826373579609125
30
0
11
-24.025829233576879
21
39.013620993845265
31
0
0
LINE
5
128
100
AcDbEntity
8
CUTOUTS
100
AcDbLine
10
-15.002027489317946
20
-20.052215579665162
30
0
11
-9.5687821717066335
21
37.742960216578268
31
0
0
LINE
5
129
100
AcDbEntity
8
CUTOUTS
100
AcDbLine
10
-9.5687821717066335
20
37.742960216578268
30
0
11
-3.7444621302262604
21
37.195423866742352
31
0
0
LINE
5
12A
100
AcDbEntity
8
CUTOUTS
100
AcDbLine
10
-3.7444621302262604
20
37.195423866742352
30
0
11
-9.1777074478268439
21
-20.599751929501672
31
0
0
LINE
5
12B
100
AcDbEntity
8
CUTOUTS
100
AcDbLine
10
-9.1777074478268439
20
-20.599751929501664
30
0
11
-15.002027489317946
21
-20.052215579665162
31
0
0
LINE
5
12C
100
AcDbEntity
8
CUTOUTS
100
AcDbLine
10
-1.0560388549610522
20
-21.398693625239488
30
0
11
4.8767375059579621
21
36.347342296296318
31
0
0
LINE
5
12D
100
AcDbEntity
8
CUTOUTS
100
AcDbLine
10
4.8767375059579621
20
36.347342296296318
30
0
11
10.696105467041264
21
35.749465608762783
31
0
0
LINE
5
12E
100
AcDbEntity
8
CUTOUTS
100
AcDbLine
10
10.696105467041264
20
35.749465608762783
30
0
11
4.7633291061305627
21
-21.99657031277367
31
0
0
LINE
5
12F
100
AcDbEntity
8
CUTOUTS
100
AcDbLine
10
4.7633291061305627
20
-21.996570312773677
30
0
11
-1.0560388549610522
21
-21.398693625239488
31
0
0
LINE
5
130
100
AcDbEntity
8
CUTOUTS
100
AcDbLine
10
25.123630614670027
20
34.178699241887706
30
0
11
18.691766611951408
21
-23.513879357535139
31
0
0
LINE
5
131
100
AcDbEntity
8
CUTOUTS
100
AcDbLine
10
18.691766611951408
20
-23.513879357535139
30
0
11
12.877785822854051
21
-22.865707016174703
31
0
0
LINE
5
132
100
AcDbEntity
8
CUTOUTS
100
AcDbLine
10
12.877785822854051
20
-22.865707016174703
30
0
11
19.309649825582476
21
34.826871583247254
31
0
0
LINE
5
133
100
AcDbEntity
8
CUTOUTS
100
AcDbLine
10
19.309649825582476
20
34.826871583247247
30
0
11
25.123630614670027
21
34.178699241887706
31
0
0
LINE
5
134
100
AcDbEntity
8
CUTOUTS
100
AcDbLine
10
33.728875637494404
20
33.181661748532335
30
0
11
39.537034568787242
21
32.483242226437923
31
0
0
LINE
5
135
100
AcDbEntity
8
CUTOUTS
100
AcDbLine
10
39.537034568787242
20
32.483242226437923
30
0
11
32.606563926466769
21
-25.151565630238313
31
0
0
LINE
5
136
100
AcDbEntity
8
CUTOUTS
100
AcDbLine
10
32.606563926466769
20
-25.151565630238313
30
0
11
26.798404995172085
21
-24.45314610814382
31
0
0
LINE
5
137
100
AcDbEntity
8
CUTOUTS
100
AcDbLine
10
26.798404995172085
20
-24.45314610814382
30
0
11
33.728875637494404
21
33.181661748532335
31
0
0
LINE
5
138
100
AcDbEntity
8
CUTOUTS
100
AcDbLine
10
40.704777748110068
20
-26.160892192076268
30
0
11
48.133336920740319
21
31.411835801469373
31
0
0
LINE
5
139
100
AcDbEntity
8
CUTOUTS
100
AcDbLine
10
48.133336920740319
20
31.411835801469373
30
0
11
53.935239741793026
21
30.66322131120538
31
0
0
LINE
5
13A
100
AcDbEntity
8
CUTOUTS
100
AcDbLine
10
53.935239741793026
20
30.66322131120538
30
0
11
46.506680569174215
21
-26.909506682341664
31
0
0
LINE
5
13B
100
AcDbEntity
8
CUTOUTS
100
AcDbLine
10
46.506680569174215
20
-26.909506682341664
30
0
11
40.704777748110068
21
-26.160892192076268
31
0
0
LINE
5
13C
100
AcDbEntity
8
CUTOUTS
100
AcDbLine
10
60.391077344594528
20
-28.787571083272503
30
0
11
54.595864417661559
21
-27.988817597169195
31
0
0
LINE
5
13D
100
AcDbEntity
8
CUTOUTS
100
AcDbLine
10
54.595864417661559
20
-27.988817597169195
30
0
11
62.521956702824326
21
29.517526062353589
31
0
0
LINE
5
13E
100
AcDbEntity
8
CUTOUTS
100
AcDbLine
10
62.521956702824326
20
29.517526062353589
30
0
11
68.31716962975139
21
28.718772576252544
31
0
0
LINE
5
13F
100
AcDbEntity
8
CUTOUTS
100
AcDbLine
10
68.31716962975139
20
28.718772576252544
30
0
11
60.391077344594528
21
-28.7875710832725
31
0
0
LINE
5
140
100
AcDbEntity
8
CUTOUTS
100
AcDbLine
10
76.893659200047068
20
27.498874159440234
30
0
11
82.681748949899401
21
26.650041403484153
31
0
0
LINE
5
141
100
AcDbEntity
8
CUTOUTS
100
AcDbLine
10
82.681748949899401
20
26.650041403484153
30
0
11
74.258716217738012
21
-30.785618422037196
31
0
0
LINE
5
142
100
AcDbEntity
8
CUTOUTS
100
AcDbLine
10
74.258716217738012
20
-30.785618422037196
30
0
11
68.470626467885225
21
-29.9367856660811
31
0
0
LINE
5
143
100
AcDbEntity
8
CUTOUTS
100
AcDbLine
10
68.470626467885225
20
-29.9367856660811
30
0
11
76.893659200047068
21
27.498874159440234
31
0
0
LINE
5
144
100
AcDbEntity
8
CUTOUTS
100
AcDbLine
10
82.328026425486058
20
-32.004650732636996
30
0
11
91.24736994121929
21
25.35603102105533
31
0
0
LINE
5
145
100
AcDbEntity
8
CUTOUTS
100
AcDbLine
10
91.24736994121929
20
25.35603102105533
30
0
11
97.02790376136015
21
24.457182449702476
31
0
0
LINE
5
146
100
AcDbEntity
8
CUTOUTS
100
AcDbLine
10
97.02790376136015
20
24.457182449702476
30
0
11
88.108560245622982
21
-32.903499303990117
31
0
0
LINE
5
147
100
AcDbEntity
8
CUTOUTS
100
AcDbLine
10
88.108560245622982
20
-32.90349930399011
30
0
11
82.328026425486058
21
-32.004650732636996
31
0
0
LINE
5
148
100
AcDbEntity
8
CUTOUTS
100
AcDbLine
10
96.167028366680086
20
-34.192258220434233
30
0
11
105.58201572429546
21
23.089156855103514
31
0
0
LINE
5
149
100
AcDbEntity
8
CUTOUTS
100
AcDbLine
10
105.58201572429546
20
23.089156855103514
30
0
11
111.35456142957952
21
22.140359679531343
31
0
0
LINE
5
14A
100
AcDbEntity
8
CUTOUTS
100
AcDbLine
10
111.35456142957952
20
22.140359679531343
30
0
11
101.93957407197601
21
-35.141055396008113
31
0
0
LINE
5
14B
100
AcDbEntity
8
CUTOUTS
100
AcDbLine
10
101.93957407197601
20
-35.141055396008113
30
0
11
96.167028366680086
21
-34.192258220434233
31
0
0
LINE
5
14C
100
AcDbEntity
8
CUTOUTS
100
AcDbLine
10
115.75072352338137
20
-37.498119397980631
30
0
11
109.98659752266963
21
-36.499444552108351
31
0
0
LINE
5
14D
100
AcDbEntity
8
CUTOUTS
100
AcDbLine
10
109.98659752266963
20
-36.499444552108351
30
0
11
119.89652483943703
21
20.698421147378873
31
0
0
LINE
5
14E
100
AcDbEntity
8
CUTOUTS
100
AcDbLine
10
119.89652483943703
20
20.698421147378873
30
0
11
125.6606508401629
21
19.699746301503549
31
0
0
LINE
5
14F
100
AcDbEntity
8
CUTOUTS
100
AcDbLine
10
125.6606508401629
20
19.699746301503549
30
0
11
115.75072352338137
21
-37.498119397980631
31
0
0
LINE
5
150
100
AcDbEntity
8
CUTOUTS
100
AcDbLine
10
129.54097606377476
20
-39.974515089179363
30
0
11
123.78570072647253
21
-38.926037243923432
31
0
0
LINE
5
151
100
AcDbEntity
8
CUTOUTS
100
AcDbLine
10
123.78570072647253
20
-38.926037243923432
30
0
11
134.18982703709878
21
18.184002641483001
31
0
0
LINE
5
152
100
AcDbEntity
8
CUTOUTS
100
AcDbLine
10
134.18982703709878
20
18.184002641483001
30
0
11
139.94510237438874
21
17.135524796228367
31
0
0
LINE
5
153
100
AcDbEntity
8
CUTOUTS
100
AcDbLine
10
139.94510237438874
20
17.135524796228367
30
0
11
129.54097606377476
21
-39.974515089179363
31
0
0
LINE
5
154
100
AcDbEntity
8
CUTOUTS
100
AcDbLine
10
148.46085369388564
20
15.546089330142989
30
0
11
154.20684806886132
21
14.447886870337829
31
0
0
LINE
5
155
100
AcDbEntity
8
CUTOUTS
100
AcDbLine
10
154.20684806886132
20
14.447886870337829
30
0
11
143.30930058306916
21
-42.570057312130302
31
0
0
LINE
5
156
100
AcDbEntity
8
CUTOUTS
100
AcDbLine
10
143.30930058306916
20
-42.570057312130302
30
0
11
137.56330620806747
21
-41.471854852319375
31
0
0
LINE
5
157
100
AcDbEntity
8
CUTOUTS
100
AcDbLine
10
137.56330620806747
20
-41.471854852319375
30
0
11
148.46085369388564
21
15.546089330142987
31
0
0
LINE
5
158
100
AcDbEntity
8
PERIMETER
100
AcDbLine
10
160.53331902425555
20
13.214709952098351
30
0
11
166.4182371509149
21
12.045206358416202
31
0
0
LINE
5
159
100
AcDbEntity
8
PERIMETER
100
AcDbLine
10
166.4182371509149
20
12.045206358416202
30
0
11
166.83730895785055
21
14.153967105949716
31
0
0
ARC
5
15A
100
AcDbEntity
8
PERIMETER
100
AcDbCircle
10
-166.74912900050998
20
-1664.0651255092353
30
0
40
1711.0520840722188
210
0
220
-0
230
1
100
AcDbArc
50
78.75762252106216
51
90.002511427620732
0
LINE
5
15B
100
AcDbEntity
8
PERIMETER
100
AcDbLine
10
-166.82412900050332
20
46.986956919257622
30
0
11
-166.82412900050355
21
44.836958562987093
31
0
0
LINE
5
15C
100
AcDbEntity
8
PERIMETER
100
AcDbLine
10
-166.82412900050355
20
44.836958562987093
30
0
11
-160.82412900050429
21
44.836958562987093
31
0
0
LINE
5
15D
100
AcDbEntity
8
PERIMETER
100
AcDbLine
10
-160.82412900050426
20
44.836958562987093
30
0
11
-160.82412900050741
21
-13.213041437012905
31
0
0
LINE
5
15E
100
AcDbEntity
8
PERIMETER
100
AcDbLine
10
-160.82412900050741
20
-13.213041437012896
30
0
11
-166.82412900050673
21
-13.213041437012896
31
0
0
LINE
5
15F
100
AcDbEntity
8
PERIMETER
100
AcDbLine
10
-166.82412900050673
20
-13.213041437012896
30
0
11
-166.82412900050673
21
-15.363043142899544
31
0
0
ARC
5
160
100
AcDbEntity
8
PERIMETER
100
AcDbCircle
10
-166.74912900050998
20
-1664.0651255092353
30
0
40
1648.7020840722234
210
0
220
-0
230
1
100
AcDbArc
50
78.757528470254599
51
90.002606403853221
0
LINE
5
161
100
AcDbEntity
8
PERIMETER
100
AcDbLine
10
154.68421743456383
20
-47.000140475039885
30
0
11
155.10328988167504
21
-44.891376506157471
31
0
0
LINE
5
162
100
AcDbEntity
8
PERIMETER
100
AcDbLine
10
155.10328988167504
20
-44.891376506157471
30
0
11
149.21837175744224
21
-43.721872912957537
31
0
0
LINE
5
163
100
AcDbEntity
8
PERIMETER
100
AcDbLine
10
149.21837175744224
20
-43.721872912957537
30
0
11
160.53331902425555
21
13.214709952098351
31
0
0
ENDSEC
0
SECTION
2
OBJECTS
0
DICTIONARY
5
C
100
AcDbDictionary
3
ACAD_GROUP
350
D
3
ACAD_MLINESTYLE
350
17
0
DICTIONARY
5
D
100
AcDbDictionary
0
DICTIONARY
5
1A
330
C
100
AcDbDictionary
0
DICTIONARY
5
17
100
AcDbDictionary
0
ENDSEC
0
EOF
