0
SECTION
2
HEADER
9
$INSUNITS
70
4
9
$ACADVER
1
AC1014
9
$HANDSEED
5
FFFF
0
ENDSEC
0
SECTION
2
TABLES
0
TABLE
2
VPORT
5
8
100
AcDbSymbolTable
0
ENDTAB
0
TABLE
2
LTYPE
5
5
100
AcDbSymbolTable
70
2
0
LTYPE
5
14
100
AcDbSymbolTableRecord
100
AcDbLinetypeTableRecord
2
BYBLOCK
70
0
0
LTYPE
5
15
100
AcDbSymbolTableRecord
100
AcDbLinetypeTableRecord
2
BYLAYER
70
0
0
ENDTAB
0
TABLE
2
LAYER
5
2
100
AcDbSymbolTable
70
3
0
LAYER
5
50
100
AcDbSymbolTableRecord
100
AcDbLayerTableRecord
2
0
70
0
6
CONTINUOUS
0
LAYER
5
51
100
AcDbSymbolTableRecord
100
AcDbLayerTableRecord
2
CUTOUTS
70
0
62
1
6
CONTINUOUS
0
LAYER
5
52
100
AcDbSymbolTableRecord
100
AcDbLayerTableRecord
2
PERIMETER
70
0
62
5
6
CONTINUOUS
0
ENDTAB
0
TABLE
2
STYLE
5
3
100
AcDbSymbolTable
70
1
0
STYLE
5
11
100
AcDbSymbolTableRecord
100
AcDbTextStyleTableRecord
2
STANDARD
70
0
0
ENDTAB
0
TABLE
2
VIEW
5
6
100
AcDbSymbolTable
0
ENDTAB
0
TABLE
2
UCS
5
7
100
AcDbSymbolTable
0
ENDTAB
0
TABLE
2
APPID
5
9
100
AcDbSymbolTable
70
1
0
APPID
5
12
100
AcDbSymbolTableRecord
100
AcDbRegAppTableRecord
2
ACAD
70
0
0
ENDTAB
0
TABLE
2
DIMSTYLE
5
A
100
AcDbSymbolTable
0
ENDTAB
0
TABLE
2
BLOCK_RECORD
5
1
100
AcDbSymbolTable
70
2
0
BLOCK_RECORD
5
1F
100
AcDbSymbolTableRecord
100
AcDbBlockTableRecord
2
*MODEL_SPACE
0
BLOCK_RECORD
5
1B
100
AcDbSymbolTableRecord
100
AcDbBlockTableRecord
2
*PAPER_SPACE
0
ENDTAB
0
ENDSEC
0
SECTION
2
BLOCKS
0
BLOCK
5
20
100
AcDbEntity
100
AcDbBlockBegin
2
*MODEL_SPACE
0
ENDBLK
5
21
100
AcDbEntity
100
AcDbBlockEnd
0
BLOCK
5
1C
100
AcDbEntity
100
AcDbBlockBegin
2
*PAPER_SPACE
0
ENDBLK
5
1D
100
AcDbEntity
100
AcDbBlockEnd
0
ENDSEC
0
SECTION
2
ENTITIES
0
LINE
5
100
100
AcDbEntity
8
CUTOUTS
100
AcDbLine
10
-155.25852659315774
20
-13.269720833017375
30
0
11
-154.8367625152319
21
44.77874697675847
31
0
0
LINE
5
101
100
AcDbEntity
8
CUTOUTS
100
AcDbLine
10
-154.8367625152319
20
44.77874697675847
30
0
11
-148.98691692199867
21
44.736243620068173
31
0
0
LINE
5
102
100
AcDbEntity
8
CUTOUTS
100
AcDbLine
10
-148.98691692199867
20
44.736243620068173
30
0
11
-149.4086809999244
21
-13.312224189707749
31
0
0
LINE
5
103
100
AcDbEntity
8
CUTOUTS
100
AcDbLine
10
-149.4086809999244
20
-13.312224189707749
30
0
11
-155.25852659315774
21
-13.269720833017375
31
0
0
LINE
5
104
100
AcDbEntity
8
CUTOUTS
100
AcDbLine
10
-134.47542651372405
20
44.542769162408774
30
0
11
-135.39909876515878
21
-13.499881789903236
31
0
0
LINE
5
105
100
AcDbEntity
8
CUTOUTS
100
AcDbLine
10
-135.39909876515878
20
-13.499881789903236
30
0
11
-141.24835816345461
21
-13.406798539758604
31
0
0
LINE
5
106
100
AcDbEntity
8
CUTOUTS
100
AcDbLine
10
-141.24835816345461
20
-13.406798539758604
30
0
11
-140.32468591201894
21
44.635852412553433
31
0
0
LINE
5
107
100
AcDbEntity
8
CUTOUTS
100
AcDbLine
10
-140.32468591201894
20
44.635852412553433
30
0
11
-134.47542651372405
21
44.542769162408774
31
0
0
LINE
5
108
100
AcDbEntity
8
CUTOUTS
100
AcDbLine
10
-127.23989793045435
20
-13.665011838278156
30
0
11
-125.8143875995473
21
44.367482682433931
31
0
0
LINE
5
109
100
AcDbEntity
8
CUTOUTS
100
AcDbLine
10
-125.8143875995473
20
44.367482682433931
30
0
11
-119.96615171761498
21
44.22382660257518
31
0
0
LINE
5
10A
100
AcDbEntity
8
CUTOUTS
100
AcDbLine
10
-119.96615171761498
20
44.22382660257518
30
0
11
-121.39166204852145
21
-13.808667918136912
31
0
0
LINE
5
10B
100
AcDbEntity
8
CUTOUTS
100
AcDbLine
10
-121.39166204852145
20
-13.808667918136912
30
0
11
-127.23989793045433
21
-13.665011838278156
31
0
0
LINE
5
10C
100
AcDbEntity
8
CUTOUTS
100
AcDbLine
10
-113.23419408831137
20
-14.044341360897166
30
0
11
-111.30695220099881
21
43.973657904053248
31
0
0
LINE
5
10D
100
AcDbEntity
8
CUTOUTS
100
AcDbLine
10
-111.30695220099881
20
43.973657904053248
30
0
11
-105.46017708127494
21
43.779439729362963
31
0
0
LINE
5
10E
100
AcDbEntity
8
CUTOUTS
100
AcDbLine
10
-105.46017708127494
20
43.779439729362963
30
0
11
-107.38741896858699
21
-14.238559535587427
31
0
0
LINE
5
10F
100
AcDbEntity
8
CUTOUTS
100
AcDbLine
10
-107.38741896858699
20
-14.238559535587427
30
0
11
-113.23419408831136
21
-14.044341360897166
31
0
0
LINE
5
110
100
AcDbEntity
8
CUTOUTS
100
AcDbLine
10
-93.387417576445344
20
-14.789524523492066
30
0
11
-99.232294791667357
21
-14.544758637397228
31
0
0
LINE
5
111
100
AcDbEntity
8
CUTOUTS
100
AcDbLine
10
-99.232294791667371
20
-14.544758637397228
30
0
11
-96.8034640758016
21
43.454407575175715
31
0
0
LINE
5
112
100
AcDbEntity
8
CUTOUTS
100
AcDbLine
10
-96.8034640758016
20
43.454407575175715
30
0
11
-90.958586860580951
21
43.209641689080911
31
0
0
LINE
5
113
100
AcDbEntity
8
CUTOUTS
100
AcDbLine
10
-90.958586860580951
20
43.209641689080911
30
0
11
-93.387417576445344
21
-14.789524523492066
31
0
0
LINE
5
114
100
AcDbEntity
8
CUTOUTS
100
AcDbLine
10
-82.305008289331155
20
42.809770388566065
30
0
11
-76.462465966751253
21
42.514475266926588
31
0
0
LINE
5
115
100
AcDbEntity
8
CUTOUTS
100
AcDbLine
10
-76.462465966751253
20
42.514475266926588
30
0
11
-79.392702173789957
21
-15.461521626364965
31
0
0
LINE
5
116
100
AcDbEntity
8
CUTOUTS
100
AcDbLine
10
-79.392702173789957
20
-15.461521626364965
30
0
11
-85.235244496373241
21
-15.166226504725309
31
0
0
LINE
5
117
100
AcDbEntity
8
CUTOUTS
100
AcDbLine
10
-85.235244496373241
20
-15.166226504725309
30
0
11
-82.305008289331155
21
42.809770388566065
31
0
0
LINE
5
118
100
AcDbEntity
8
CUTOUTS
100
AcDbLine
10
-61.972897646322203
20
41.693992286708585
30
0
11
-65.404321043908894
21
-16.25450064853915
31
0
0
LINE
5
119
100
AcDbEntity
8
CUTOUTS
100
AcDbLine
10
-65.404321043908894
20
-16.25450064853915
30
0
11
-71.244091649787606
21
-15.908698290643191
31
0
0
LINE
5
11A
100
AcDbEntity
8
CUTOUTS
100
AcDbLine
10
-71.244091649787606
20
-15.908698290643191
30
0
11
-67.812668252200126
21
42.039794644604513
31
0
0
LINE
5
11B
100
AcDbEntity
8
CUTOUTS
100
AcDbLine
10
-67.812668252200126
20
42.039794644604513
30
0
11
-61.972897646322203
21
41.693992286708585
31
0
0
LINE
5
11C
100
AcDbEntity
8
CUTOUTS
100
AcDbLine
10
-57.259882288755932
20
-16.772118470556929
30
0
11
-53.327527496584288
21
41.144537905554337
31
0
0
LINE
5
11D
100
AcDbEntity
8
CUTOUTS
100
AcDbLine
10
-53.327527496584288
20
41.144537905554337
30
0
11
-47.490965226123834
21
40.748254089288395
31
0
0
LINE
5
11E
100
AcDbEntity
8
CUTOUTS
100
AcDbLine
10
-47.490965226123834
20
40.748254089288395
30
0
11
-51.423320018294838
21
-17.168402286822236
31
0
0
LINE
5
11F
100
AcDbEntity
8
CUTOUTS
100
AcDbLine
10
-51.423320018294838
20
-17.168402286822236
30
0
11
-57.259882288755932
21
-16.772118470556929
31
0
0
LINE
5
120
100
AcDbEntity
8
CUTOUTS
100
AcDbLine
10
-38.850669632719374
20
40.124067010917216
30
0
11
-33.017752057480024
21
39.677331562963843
31
0
0
LINE
5
121
100
AcDbEntity
8
CUTOUTS
100
AcDbLine
10
-33.017752057480024
20
39.67733156296385
30
0
11
-37.450742271789927
21
-18.203158222108581
31
0
0
LINE
5
122
100
AcDbEntity
8
CUTOUTS
100
AcDbLine
10
-37.450742271789927
20
-18.203158222108584
30
0
11
-43.283659847035061
21
-17.756422774153819
31
0
0
LINE
5
123
100
AcDbEntity
8
CUTOUTS
100
AcDbLine
10
-43.283659847035061
20
-17.756422774153819
30
0
11
-38.850669632719374
21
40.12406701091723
31
0
0
LINE
5
124
100
AcDbEntity
8
CUTOUTS
100
AcDbLine
10
-29.316471926393
20
-18.861537247194555
30
0
11
-24.383176241234708
21
38.978458375927751
31
0
0
LINE
5
125
100
AcDbEntity
8
CUTOUTS
100
AcDbLine
10
-24.383176241234708
20
38.978458375927751
30
0
11
-18.554339473012398
21
38.481304547191336
31
0
0
LINE
5
126
100
AcDbEntity
8
CUTOUTS
100
AcDbLine
10
-18.554339473012398
20
38.481304547191336
30
0
11
-23.48763515816719
21
-19.358691075930786
31
0
0
LINE
5
127
100
AcDbEntity
8
CUTOUTS
100
AcDbLine
10
-23.48763515816719
20
-19.358691075930786
30
0
11
-29.316471926393
21
-18.861537247194555
31
0
0
LINE
5
128
100
AcDbEntity
8
CUTOUTS
100
AcDbLine
10
-15.359361764816217
20
-20.087379399078262
30
0
11
-9.926129295772288
21
37.707797605039701
31
0
0
LINE
5
129
100
AcDbEntity
8
CUTOUTS
100
AcDbLine
10
-9.926129295772288
20
37.707797605039701
30
0
11
-4.1018091325668138
21
37.160262550020498
31
0
0
LINE
5
12A
100
AcDbEntity
8
CUTOUTS
100
AcDbLine
10
-4.1018091325668138
20
37.160262550020498
30
0
11
-9.5350416016003514
21
-20.634914454098016
31
0
0
LINE
5
12B
100
AcDbEntity
8
CUTOUTS
100
AcDbLine
10
-9.5350416016003514
20
-20.634914454098016
30
0
11
-15.359361764816217
21
-20.087379399078262
31
0
0
LINE
5
12C
100
AcDbEntity
8
CUTOUTS
100
AcDbLine
10
-1.4133725772142114
20
-21.433857625807669
30
0
11
4.519390227503628
21
36.312179688478238
31
0
0
LINE
5
12D
100
AcDbEntity
8
CUTOUTS
100
AcDbLine
10
4.519390227503628
20
36.312179688478238
30
0
11
10.338758328942674
21
35.714304367073389
31
0
0
LINE
5
12E
100
AcDbEntity
8
CUTOUTS
100
AcDbLine
10
10.338758328942674
20
35.714304367073389
30
0
11
4.4059955242332194
21
-22.031732947213186
31
0
0
LINE
5
12F
100
AcDbEntity
8
CUTOUTS
100
AcDbLine
10
4.4059955242332194
20
-22.03173294721319
30
0
11
-1.4133725772142114
21
-21.433857625807669
31
0
0
LINE
5
130
100
AcDbEntity
8
CUTOUTS
100
AcDbLine
10
12.520453911325227
20
-22.900871431456711
30
0
11
18.952302017286478
21
34.791708940215536
31
0
0
LINE
5
131
100
AcDbEntity
8
CUTOUTS
100
AcDbLine
10
18.952302017286478
20
34.791708940215528
30
0
11
24.766282984974417
21
34.14353820085563
31
0
0
LINE
5
132
100
AcDbEntity
8
CUTOUTS
100
AcDbLine
10
24.766282984974417
20
34.14353820085563
30
0
11
18.334434879022972
21
-23.549042170817525
31
0
0
LINE
5
133
100
AcDbEntity
8
CUTOUTS
100
AcDbLine
10
18.334434879022972
20
-23.549042170817522
30
0
11
12.520453911325227
21
-22.900871431456711
31
0
0
LINE
5
134
100
AcDbEntity
8
CUTOUTS
100
AcDbLine
10
26.441073346088295
20
-24.488310681593983
30
0
11
33.371527763490647
21
33.146499126093573
31
0
0
LINE
5
135
100
AcDbEntity
8
CUTOUTS
100
AcDbLine
10
33.371527763490647
20
33.146499126093573
30
0
11
39.179686891397161
21
32.448081239068614
31
0
0
LINE
5
136
100
AcDbEntity
8
CUTOUTS
100
AcDbLine
10
39.179686891397161
20
32.448081239068614
30
0
11
32.249232473997118
21
-25.186728568619074
31
0
0
LINE
5
137
100
AcDbEntity
8
CUTOUTS
100
AcDbLine
10
32.249232473997118
20
-25.186728568619074
30
0
11
26.441073346088295
21
-24.488310681593983
31
0
0
LINE
5
138
100
AcDbEntity
8
CUTOUTS
100
AcDbLine
10
40.347447605460225
20
-26.196057172092111
30
0
11
47.775988607629429
21
31.376673165968896
31
0
0
LINE
5
139
100
AcDbEntity
8
CUTOUTS
100
AcDbLine
10
47.775988607629429
20
31.376673165968896
30
0
11
53.577891664953547
21
30.628060506836302
31
0
0
LINE
5
13A
100
AcDbEntity
8
CUTOUTS
100
AcDbLine
10
53.577891664953547
20
30.628060506836302
30
0
11
46.149350662795818
21
-26.944669831226079
31
0
0
LINE
5
13B
100
AcDbEntity
8
CUTOUTS
100
AcDbLine
10
46.149350662795818
20
-26.944669831226076
30
0
11
40.347447605460225
21
-26.196057172092111
31
0
0
LINE
5
13C
100
AcDbEntity
8
CUTOUTS
100
AcDbLine
10
60.033748831468792
20
-28.822734458744748
30
0
11
54.238535627907076
21
-28.023982979665139
31
0
0
LINE
5
13D
100
AcDbEntity
8
CUTOUTS
100
AcDbLine
10
54.238535627907076
20
-28.023982979665139
30
0
11
62.164607997217587
21
29.482363424852977
31
0
0
LINE
5
13E
100
AcDbEntity
8
CUTOUTS
100
AcDbLine
10
62.164607997217587
20
29.482363424852977
30
0
11
67.959821200773405
21
28.683611945775617
31
0
0
LINE
5
13F
100
AcDbEntity
8
CUTOUTS
100
AcDbLine
10
67.959821200773405
20
28.683611945775617
30
0
11
60.033748831468792
21
-28.822734458744751
31
0
0
LINE
5
140
100
AcDbEntity
8
CUTOUTS
100
AcDbLine
10
76.536310395552434
20
27.463711548448938
30
0
11
82.324400446826971
21
26.614880847858654
31
0
0
LINE
5
141
100
AcDbEntity
8
CUTOUTS
100
AcDbLine
10
82.324400446826971
20
26.61488084785865
30
0
11
73.901388110218306
21
-30.820781968699286
31
0
0
LINE
5
142
100
AcDbEntity
8
CUTOUTS
100
AcDbLine
10
73.901388110218306
20
-30.820781968699286
30
0
11
68.113298058943911
21
-29.971951268109045
31
0
0
LINE
5
143
100
AcDbEntity
8
CUTOUTS
100
AcDbLine
10
68.113298058943911
20
-29.971951268109045
30
0
11
76.536310395552434
21
27.463711548448934
31
0
0
LINE
5
144
100
AcDbEntity
8
CUTOUTS
100
AcDbLine
10
81.97069888142245
20
-32.039816669375512
30
0
11
90.890020891475416
21
25.320868428354252
31
0
0
LINE
5
145
100
AcDbEntity
8
CUTOUTS
100
AcDbLine
10
90.890020891475416
20
25.320868428354252
30
0
11
96.670555048610851
21
24.422022024240711
31
0
0
LINE
5
146
100
AcDbEntity
8
CUTOUTS
100
AcDbLine
10
96.670555048610851
20
24.422022024240711
30
0
11
87.751233038554233
21
-32.938663073489323
31
0
0
LINE
5
147
100
AcDbEntity
8
CUTOUTS
100
AcDbLine
10
87.751233038554233
20
-32.938663073489323
30
0
11
81.97069888142245
21
-32.039816669375512
31
0
0
LINE
5
148
100
AcDbEntity
8
CUTOUTS
100
AcDbLine
10
105.22466645757618
20
23.053994286281544
30
0
11
110.99721253546242
21
22.10519937762372
31
0
0
LINE
5
149
100
AcDbEntity
8
CUTOUTS
100
AcDbLine
10
110.99721253546242
20
22.105199377623723
30
0
11
101.58224767263067
21
-35.17621939523508
31
0
0
LINE
5
14A
100
AcDbEntity
8
CUTOUTS
100
AcDbLine
10
101.58224767263067
20
-35.17621939523508
30
0
11
95.809701594732815
21
-34.227424486575579
31
0
0
LINE
5
14B
100
AcDbEntity
8
CUTOUTS
100
AcDbLine
10
95.809701594732815
20
-34.227424486575579
30
0
11
105.22466645757618
21
23.053994286281547
31
0
0
LINE
5
14C
100
AcDbEntity
8
CUTOUTS
100
AcDbLine
10
125.30330166163932
20
19.664586170079467
30
0
11
115.39339831543352
21
-37.533283682467264
31
0
0
LINE
5
14D
100
AcDbEntity
8
CUTOUTS
100
AcDbLine
10
115.39339831543352
20
-37.533283682467264
30
0
11
109.62927189620288
21
-36.534611252235578
31
0
0
LINE
5
14E
100
AcDbEntity
8
CUTOUTS
100
AcDbLine
10
109.62927189620288
20
-36.534611252235578
30
0
11
119.53917524239384
21
20.663258600314272
31
0
0
LINE
5
14F
100
AcDbEntity
8
CUTOUTS
100
AcDbLine
10
119.53917524239384
20
20.663258600314272
30
0
11
125.30330166163932
21
19.664586170079467
31
0
0
LINE
5
150
100
AcDbEntity
8
CUTOUTS
100
AcDbLine
10
123.42837543617513
20
-38.961204197180528
30
0
11
133.83247735655021
21
18.14884013155817
31
0
0
LINE
5
151
100
AcDbEntity
8
CUTOUTS
100
AcDbLine
10
133.83247735655021
20
18.14884013155817
30
0
11
139.58775314162273
21
17.10036474423493
31
0
0
LINE
5
152
100
AcDbEntity
8
CUTOUTS
100
AcDbLine
10
139.58775314162273
20
17.10036474423493
30
0
11
129.18365122126031
21
-40.009679584505122
31
0
0
LINE
5
153
100
AcDbEntity
8
CUTOUTS
100
AcDbLine
10
129.18365122126031
20
-40.009679584505122
30
0
11
123.42837543617513
21
-38.961204197180528
31
0
0
LINE
5
154
100
AcDbEntity
8
CUTOUTS
100
AcDbLine
10
153.8494984799955
20
14.412727030532723
30
0
11
142.95197721351971
21
-42.605222163091561
31
0
0
LINE
5
155
100
AcDbEntity
8
CUTOUTS
100
AcDbLine
10
142.95197721351971
20
-42.605222163091561
30
0
11
137.20598233350546
21
-41.507022345534892
31
0
0
LINE
5
156
100
AcDbEntity
8
CUTOUTS
100
AcDbLine
10
137.20598233350546
20
-41.507022345534892
30
0
11
148.10350360000794
21
15.510926848083484
31
0
0
LINE
5
157
100
AcDbEntity
8
CUTOUTS
100
AcDbLine
10
148.10350360000794
20
15.510926848083482
30
0
11
153.8494984799955
21
14.412727030532723
31
0
0
LINE
5
158
100
AcDbEntity
8
PERIMETER
100
AcDbLine
10
160.17596876537243
20
13.179547504093341
30
0
11
166.06088744469037
21
12.010046697985937
31
0
0
LINE
5
159
100
AcDbEntity
8
PERIMETER
100
AcDbLine
10
166.06088744469037
20
12.010046697985937
30
0
11
167.19465318402226
21
17.715146806537227
31
0
0
ARC
5
15A
100
AcDbEntity
8
PERIMETER
100
AcDbCircle
10
-167.10647326065768
20
-1664.1003618190443
30
0
40
1714.7188248210568
210
0
220
-0
230
1
100
AcDbArc
50
78.757628608907766
51
90.002506057204286
0
LINE
5
15B
100
AcDbEntity
8
PERIMETER
100
AcDbLine
10
-167.18147326064735
20
50.618461361801359
30
0
11
-167.18147326064735
21
44.801796335345792
31
0
0
LINE
5
15C
100
AcDbEntity
8
PERIMETER
100
AcDbLine
10
-167.18147326064735
20
44.801796335345792
30
0
11
-161.18147326064809
21
44.801796335345792
31
0
0
LINE
5
15D
100
AcDbEntity
8
PERIMETER
100
AcDbLine
10
-161.18147326064809
20
44.801796335345792
30
0
11
-161.18147326065125
21
-13.248203664654206
31
0
0
LINE
5
15E
100
AcDbEntity
8
PERIMETER
100
AcDbLine
10
-161.18147326065125
20
-13.248203664654197
30
0
11
-167.18147326065053
21
-13.248203664654197
31
0
0
LINE
5
15F
100
AcDbEntity
8
PERIMETER
100
AcDbLine
10
-167.18147326065053
20
-13.248203664654197
30
0
11
-167.18147326065107
21
-19.064872041009842
31
0
0
ARC
5
160
100
AcDbEntity
8
PERIMETER
100
AcDbCircle
10
-167.10647326065768
20
-1664.1003618190443
30
0
40
1645.0354914877244
210
0
220
-0
230
1
100
AcDbArc
50
78.757522370315172
51
90.002612213223856
0
LINE
5
161
100
AcDbEntity
8
PERIMETER
100
AcDbLine
10
153.61220074950754
20
-50.631644925091173
30
0
11
154.74596714280838
21
-44.92654152577451
31
0
0
LINE
5
162
100
AcDbEntity
8
PERIMETER
100
AcDbLine
10
154.74596714280838
20
-44.92654152577451
30
0
11
148.86104846591681
21
-43.757040720149256
31
0
0
LINE
5
163
100
AcDbEntity
8
PERIMETER
100
AcDbLine
10
148.86104846591681
20
-43.757040720149256
30
0
11
160.17596876537243
21
13.179547504093341
31
0
0
ENDSEC
0
SECTION
2
OBJECTS
0
DICTIONARY
5
C
100
AcDbDictionary
3
ACAD_GROUP
350
D
3
ACAD_MLINESTYLE
350
17
0
DICTIONARY
5
D
100
AcDbDictionary
0
DICTIONARY
5
1A
330
C
100
AcDbDictionary
0
DICTIONARY
5
17
100
AcDbDictionary
0
ENDSEC
0
EOF
