0
SECTION
2
HEADER
9
$INSUNITS
70
4
9
$ACADVER
1
AC1014
9
$HANDSEED
5
FFFF
0
ENDSEC
0
SECTION
2
TABLES
0
TABLE
2
VPORT
5
8
100
AcDbSymbolTable
0
ENDTAB
0
TABLE
2
LTYPE
5
5
100
AcDbSymbolTable
70
2
0
LTYPE
5
14
100
AcDbSymbolTableRecord
100
AcDbLinetypeTableRecord
2
BYBLOCK
70
0
0
LTYPE
5
15
100
AcDbSymbolTableRecord
100
AcDbLinetypeTableRecord
2
BYLAYER
70
0
0
ENDTAB
0
TABLE
2
LAYER
5
2
100
AcDbSymbolTable
70
3
0
LAYER
5
50
100
AcDbSymbolTableRecord
100
AcDbLayerTableRecord
2
0
70
0
6
CONTINUOUS
0
LAYER
5
51
100
AcDbSymbolTableRecord
100
AcDbLayerTableRecord
2
CUTOUTS
70
0
62
1
6
CONTINUOUS
0
LAYER
5
52
100
AcDbSymbolTableRecord
100
AcDbLayerTableRecord
2
PERIMETER
70
0
62
5
6
CONTINUOUS
0
ENDTAB
0
TABLE
2
STYLE
5
3
100
AcDbSymbolTable
70
1
0
STYLE
5
11
100
AcDbSymbolTableRecord
100
AcDbTextStyleTableRecord
2
STANDARD
70
0
0
ENDTAB
0
TABLE
2
VIEW
5
6
100
AcDbSymbolTable
0
ENDTAB
0
TABLE
2
UCS
5
7
100
AcDbSymbolTable
0
ENDTAB
0
TABLE
2
APPID
5
9
100
AcDbSymbolTable
70
1
0
APPID
5
12
100
AcDbSymbolTableRecord
100
AcDbRegAppTableRecord
2
ACAD
70
0
0
ENDTAB
0
TABLE
2
DIMSTYLE
5
A
100
AcDbSymbolTable
0
ENDTAB
0
TABLE
2
BLOCK_RECORD
5
1
100
AcDbSymbolTable
70
2
0
BLOCK_RECORD
5
1F
100
AcDbSymbolTableRecord
100
AcDbBlockTableRecord
2
*MODEL_SPACE
0
BLOCK_RECORD
5
1B
100
AcDbSymbolTableRecord
100
AcDbBlockTableRecord
2
*PAPER_SPACE
0
ENDTAB
0
ENDSEC
0
SECTION
2
BLOCKS
0
BLOCK
5
20
100
AcDbEntity
100
AcDbBlockBegin
2
*MODEL_SPACE
0
ENDBLK
5
21
100
AcDbEntity
100
AcDbBlockEnd
0
BLOCK
5
1C
100
AcDbEntity
100
AcDbBlockBegin
2
*PAPER_SPACE
0
ENDBLK
5
1D
100
AcDbEntity
100
AcDbBlockEnd
0
ENDSEC
0
SECTION
2
ENTITIES
0
LINE
5
100
100
AcDbEntity
8
CUTOUTS
100
AcDbLine
10
154.07499999999993
20
29.024999999999999
30
0
11
154.07499999999965
21
-29.024999999999999
31
0
0
LINE
5
101
100
AcDbEntity
8
CUTOUTS
100
AcDbLine
10
154.07499999999965
20
-29.024999999999999
30
0
11
148.22499999999977
21
-29.024999999999999
31
0
0
LINE
5
102
100
AcDbEntity
8
CUTOUTS
100
AcDbLine
10
148.22499999999977
20
-29.024999999999999
30
0
11
148.22500000000005
21
29.024999999999999
31
0
0
LINE
5
103
100
AcDbEntity
8
CUTOUTS
100
AcDbLine
10
148.22500000000005
20
29.024999999999999
30
0
11
154.07499999999993
21
29.024999999999999
31
0
0
LINE
5
104
100
AcDbEntity
8
CUTOUTS
100
AcDbLine
10
133.8250000000001
20
29.024999999999999
30
0
11
139.67499999999998
21
29.024999999999999
31
0
0
LINE
5
105
100
AcDbEntity
8
CUTOUTS
100
AcDbLine
10
139.67499999999998
20
29.024999999999999
30
0
11
139.67499999999956
21
-29.024999999999999
31
0
0
LINE
5
106
100
AcDbEntity
8
CUTOUTS
100
AcDbLine
10
139.67499999999956
20
-29.024999999999999
30
0
11
133.82499999999982
21
-29.024999999999999
31
0
0
LINE
5
107
100
AcDbEntity
8
CUTOUTS
100
AcDbLine
10
133.82499999999982
20
-29.024999999999999
30
0
11
133.8250000000001
21
29.024999999999999
31
0
0
LINE
5
108
100
AcDbEntity
8
CUTOUTS
100
AcDbLine
10
119.42500000000038
20
29.024999999999995
30
0
11
125.27499999999996
21
29.025000000000002
31
0
0
LINE
5
109
100
AcDbEntity
8
CUTOUTS
100
AcDbLine
10
125.27499999999996
20
29.025000000000002
30
0
11
125.27499999999968
21
-29.024999999999995
31
0
0
LINE
5
10A
100
AcDbEntity
8
CUTOUTS
100
AcDbLine
10
125.27499999999968
20
-29.024999999999995
30
0
11
119.42499999999953
21
-29.025000000000002
31
0
0
LINE
5
10B
100
AcDbEntity
8
CUTOUTS
100
AcDbLine
10
119.42499999999953
20
-29.025000000000002
30
0
11
119.42500000000038
21
29.024999999999995
31
0
0
LINE
5
10C
100
AcDbEntity
8
CUTOUTS
100
AcDbLine
10
105.02500000000029
20
29.024999999999995
30
0
11
110.87500000000003
21
29.025000000000002
31
0
0
LINE
5
10D
100
AcDbEntity
8
CUTOUTS
100
AcDbLine
10
110.87500000000003
20
29.025000000000002
30
0
11
110.87499999999974
21
-29.024999999999995
31
0
0
LINE
5
10E
100
AcDbEntity
8
CUTOUTS
100
AcDbLine
10
110.87499999999974
20
-29.024999999999995
30
0
11
105.02499999999972
21
-29.025000000000002
31
0
0
LINE
5
10F
100
AcDbEntity
8
CUTOUTS
100
AcDbLine
10
105.02499999999972
20
-29.025000000000002
30
0
11
105.02500000000029
21
29.024999999999995
31
0
0
LINE
5
110
100
AcDbEntity
8
CUTOUTS
100
AcDbLine
10
96.474999999999795
20
-29.024999999999999
30
0
11
90.624999999999645
21
-29.024999999999999
31
0
0
LINE
5
111
100
AcDbEntity
8
CUTOUTS
100
AcDbLine
10
90.624999999999645
20
-29.024999999999999
30
0
11
90.625000000000497
21
29.024999999999999
31
0
0
LINE
5
112
100
AcDbEntity
8
CUTOUTS
100
AcDbLine
10
90.625000000000497
20
29.024999999999999
30
0
11
96.47500000000008
21
29.024999999999999
31
0
0
LINE
5
113
100
AcDbEntity
8
CUTOUTS
100
AcDbLine
10
96.47500000000008
20
29.024999999999999
30
0
11
96.474999999999795
21
-29.024999999999999
31
0
0
LINE
5
114
100
AcDbEntity
8
CUTOUTS
100
AcDbLine
10
82.074999999999989
20
29.024999999999999
30
0
11
82.075000000000273
21
-29.024999999999999
31
0
0
LINE
5
115
100
AcDbEntity
8
CUTOUTS
100
AcDbLine
10
82.075000000000273
20
-29.024999999999999
30
0
11
76.224999999999909
21
-29.024999999999999
31
0
0
LINE
5
116
100
AcDbEntity
8
CUTOUTS
100
AcDbLine
10
76.224999999999909
20
-29.024999999999999
30
0
11
76.225000000000051
21
29.024999999999999
31
0
0
LINE
5
117
100
AcDbEntity
8
CUTOUTS
100
AcDbLine
10
76.225000000000051
20
29.024999999999999
30
0
11
82.074999999999989
21
29.024999999999999
31
0
0
LINE
5
118
100
AcDbEntity
8
CUTOUTS
100
AcDbLine
10
61.825000000000152
20
29.024999999999995
30
0
11
67.675000000000097
21
29.025000000000002
31
0
0
LINE
5
119
100
AcDbEntity
8
CUTOUTS
100
AcDbLine
10
67.675000000000097
20
29.025000000000002
30
0
11
67.675000000000239
21
-29.024999999999995
31
0
0
LINE
5
11A
100
AcDbEntity
8
CUTOUTS
100
AcDbLine
10
67.675000000000239
20
-29.024999999999995
30
0
11
61.82500000000001
21
-29.025000000000002
31
0
0
LINE
5
11B
100
AcDbEntity
8
CUTOUTS
100
AcDbLine
10
61.82500000000001
20
-29.025000000000002
30
0
11
61.825000000000152
21
29.024999999999995
31
0
0
LINE
5
11C
100
AcDbEntity
8
CUTOUTS
100
AcDbLine
10
47.425000000000317
20
-29.024999999999999
30
0
11
47.425000000000033
21
29.024999999999999
31
0
0
LINE
5
11D
100
AcDbEntity
8
CUTOUTS
100
AcDbLine
10
47.425000000000033
20
29.024999999999999
30
0
11
53.275000000000183
21
29.024999999999999
31
0
0
LINE
5
11E
100
AcDbEntity
8
CUTOUTS
100
AcDbLine
10
53.275000000000183
20
29.024999999999999
30
0
11
53.275000000000183
21
-29.024999999999999
31
0
0
LINE
5
11F
100
AcDbEntity
8
CUTOUTS
100
AcDbLine
10
53.275000000000183
20
-29.024999999999999
30
0
11
47.425000000000317
21
-29.024999999999999
31
0
0
LINE
5
120
100
AcDbEntity
8
CUTOUTS
100
AcDbLine
10
33.025000000000198
20
-29.024999999999999
30
0
11
33.025000000000055
21
29.024999999999999
31
0
0
LINE
5
121
100
AcDbEntity
8
CUTOUTS
100
AcDbLine
10
33.025000000000055
20
29.024999999999999
30
0
11
38.875000000000135
21
29.024999999999999
31
0
0
LINE
5
122
100
AcDbEntity
8
CUTOUTS
100
AcDbLine
10
38.875000000000135
20
29.024999999999999
30
0
11
38.875000000000348
21
-29.024999999999999
31
0
0
LINE
5
123
100
AcDbEntity
8
CUTOUTS
100
AcDbLine
10
38.875000000000348
20
-29.024999999999999
30
0
11
33.025000000000198
21
-29.024999999999999
31
0
0
LINE
5
124
100
AcDbEntity
8
CUTOUTS
100
AcDbLine
10
24.475000000000158
20
29.024999999999999
30
0
11
24.4750000000003
21
-29.024999999999999
31
0
0
LINE
5
125
100
AcDbEntity
8
CUTOUTS
100
AcDbLine
10
24.4750000000003
20
-29.024999999999999
30
0
11
18.625000000000291
21
-29.024999999999999
31
0
0
LINE
5
126
100
AcDbEntity
8
CUTOUTS
100
AcDbLine
10
18.625000000000291
20
-29.024999999999999
30
0
11
18.625000000000007
21
29.024999999999999
31
0
0
LINE
5
127
100
AcDbEntity
8
CUTOUTS
100
AcDbLine
10
18.625000000000007
20
29.024999999999999
30
0
11
24.475000000000158
21
29.024999999999999
31
0
0
LINE
5
128
100
AcDbEntity
8
CUTOUTS
100
AcDbLine
10
10.075000000000109
20
29.024999999999999
30
0
11
10.075000000000536
21
-29.024999999999999
31
0
0
LINE
5
129
100
AcDbEntity
8
CUTOUTS
100
AcDbLine
10
10.075000000000536
20
-29.024999999999999
30
0
11
4.225000000000172
21
-29.024999999999999
31
0
0
LINE
5
12A
100
AcDbEntity
8
CUTOUTS
100
AcDbLine
10
4.225000000000172
20
-29.024999999999999
30
0
11
4.2250000000000298
21
29.024999999999999
31
0
0
LINE
5
12B
100
AcDbEntity
8
CUTOUTS
100
AcDbLine
10
4.2250000000000298
20
29.024999999999999
30
0
11
10.075000000000109
21
29.024999999999999
31
0
0
LINE
5
12C
100
AcDbEntity
8
CUTOUTS
100
AcDbLine
10
-10.174999999999983
20
29.024999999999995
30
0
11
-4.3249999999998678
21
29.025000000000002
31
0
0
LINE
5
12D
100
AcDbEntity
8
CUTOUTS
100
AcDbLine
10
-4.3249999999998678
20
29.025000000000002
30
0
11
-4.3249999999997968
21
-29.024999999999995
31
0
0
LINE
5
12E
100
AcDbEntity
8
CUTOUTS
100
AcDbLine
10
-4.3249999999997968
20
-29.024999999999995
30
0
11
-10.17499999999977
21
-29.025000000000002
31
0
0
LINE
5
12F
100
AcDbEntity
8
CUTOUTS
100
AcDbLine
10
-10.17499999999977
20
-29.025000000000002
30
0
11
-10.174999999999983
21
29.024999999999995
31
0
0
LINE
5
130
100
AcDbEntity
8
CUTOUTS
100
AcDbLine
10
-18.724999999999881
20
29.024999999999999
30
0
11
-18.72499999999981
21
-29.024999999999999
31
0
0
LINE
5
131
100
AcDbEntity
8
CUTOUTS
100
AcDbLine
10
-18.72499999999981
20
-29.024999999999999
30
0
11
-24.574999999999783
21
-29.024999999999999
31
0
0
LINE
5
132
100
AcDbEntity
8
CUTOUTS
100
AcDbLine
10
-24.574999999999783
20
-29.024999999999999
30
0
11
-24.57499999999996
21
29.024999999999999
31
0
0
LINE
5
133
100
AcDbEntity
8
CUTOUTS
100
AcDbLine
10
-24.57499999999996
20
29.024999999999999
30
0
11
-18.724999999999881
21
29.024999999999999
31
0
0
LINE
5
134
100
AcDbEntity
8
CUTOUTS
100
AcDbLine
10
-33.124999999999929
20
29.025000000000002
30
0
11
-33.125
21
-29.024999999999995
31
0
0
LINE
5
135
100
AcDbEntity
8
CUTOUTS
100
AcDbLine
10
-33.125
20
-29.024999999999995
30
0
11
-38.974999999999973
21
-29.025000000000002
31
0
0
LINE
5
136
100
AcDbEntity
8
CUTOUTS
100
AcDbLine
10
-38.974999999999973
20
-29.025000000000002
30
0
11
-38.974999999999866
21
29.024999999999995
31
0
0
LINE
5
137
100
AcDbEntity
8
CUTOUTS
100
AcDbLine
10
-38.974999999999866
20
29.024999999999995
30
0
11
-33.124999999999929
21
29.025000000000002
31
0
0
LINE
5
138
100
AcDbEntity
8
CUTOUTS
100
AcDbLine
10
-53.374999999999986
20
-29.024999999999999
30
0
11
-53.374999999999879
21
29.024999999999999
31
0
0
LINE
5
139
100
AcDbEntity
8
CUTOUTS
100
AcDbLine
10
-53.374999999999879
20
29.024999999999999
30
0
11
-47.524999999999942
21
29.024999999999999
31
0
0
LINE
5
13A
100
AcDbEntity
8
CUTOUTS
100
AcDbLine
10
-47.524999999999942
20
29.024999999999999
30
0
11
-47.525000000000084
21
-29.024999999999999
31
0
0
LINE
5
13B
100
AcDbEntity
8
CUTOUTS
100
AcDbLine
10
-47.525000000000084
20
-29.024999999999999
30
0
11
-53.374999999999986
21
-29.024999999999999
31
0
0
LINE
5
13C
100
AcDbEntity
8
CUTOUTS
100
AcDbLine
10
-67.77500000000002
20
-29.025000000000002
30
0
11
-67.774999999999835
21
29.024999999999995
31
0
0
LINE
5
13D
100
AcDbEntity
8
CUTOUTS
100
AcDbLine
10
-67.774999999999835
20
29.024999999999995
30
0
11
-61.92499999999994
21
29.025000000000002
31
0
0
LINE
5
13E
100
AcDbEntity
8
CUTOUTS
100
AcDbLine
10
-61.92499999999994
20
29.025000000000002
30
0
11
-61.92500000000004
21
-29.024999999999995
31
0
0
LINE
5
13F
100
AcDbEntity
8
CUTOUTS
100
AcDbLine
10
-61.92500000000004
20
-29.024999999999995
30
0
11
-67.77500000000002
21
-29.025000000000002
31
0
0
LINE
5
140
100
AcDbEntity
8
CUTOUTS
100
AcDbLine
10
-76.324999999999918
20
-29.024999999999999
30
0
11
-82.174999999999926
21
-29.024999999999999
31
0
0
LINE
5
141
100
AcDbEntity
8
CUTOUTS
100
AcDbLine
10
-82.174999999999926
20
-29.024999999999999
30
0
11
-82.174999999999883
21
29.024999999999999
31
0
0
LINE
5
142
100
AcDbEntity
8
CUTOUTS
100
AcDbLine
10
-82.174999999999883
20
29.024999999999999
30
0
11
-76.324999999999918
21
29.024999999999999
31
0
0
LINE
5
143
100
AcDbEntity
8
CUTOUTS
100
AcDbLine
10
-76.324999999999918
20
29.024999999999999
30
0
11
-76.324999999999918
21
-29.024999999999999
31
0
0
LINE
5
144
100
AcDbEntity
8
CUTOUTS
100
AcDbLine
10
-96.574999999999903
20
29.024999999999995
30
0
11
-90.724999999999895
21
29.025000000000002
31
0
0
LINE
5
145
100
AcDbEntity
8
CUTOUTS
100
AcDbLine
10
-90.724999999999895
20
29.025000000000002
30
0
11
-90.724999999999923
21
-29.024999999999995
31
0
0
LINE
5
146
100
AcDbEntity
8
CUTOUTS
100
AcDbLine
10
-90.724999999999923
20
-29.024999999999995
30
0
11
-96.574999999999861
21
-29.025000000000002
31
0
0
LINE
5
147
100
AcDbEntity
8
CUTOUTS
100
AcDbLine
10
-96.574999999999861
20
-29.025000000000002
30
0
11
-96.574999999999903
21
29.024999999999995
31
0
0
LINE
5
148
100
AcDbEntity
8
CUTOUTS
100
AcDbLine
10
-105.12499999999996
20
29.024999999999999
30
0
11
-105.12499999999977
21
-29.024999999999999
31
0
0
LINE
5
149
100
AcDbEntity
8
CUTOUTS
100
AcDbLine
10
-105.12499999999977
20
-29.024999999999999
30
0
11
-110.97499999999988
21
-29.024999999999999
31
0
0
LINE
5
14A
100
AcDbEntity
8
CUTOUTS
100
AcDbLine
10
-110.97499999999988
20
-29.024999999999999
30
0
11
-110.97500000000002
21
29.024999999999999
31
0
0
LINE
5
14B
100
AcDbEntity
8
CUTOUTS
100
AcDbLine
10
-110.97500000000002
20
29.024999999999999
30
0
11
-105.12499999999996
21
29.024999999999999
31
0
0
LINE
5
14C
100
AcDbEntity
8
CUTOUTS
100
AcDbLine
10
-119.52499999999992
20
29.025000000000002
30
0
11
-119.52499999999992
21
-29.024999999999995
31
0
0
LINE
5
14D
100
AcDbEntity
8
CUTOUTS
100
AcDbLine
10
-119.52499999999992
20
-29.024999999999995
30
0
11
-125.37499999999993
21
-29.025000000000002
31
0
0
LINE
5
14E
100
AcDbEntity
8
CUTOUTS
100
AcDbLine
10
-125.37499999999993
20
-29.025000000000002
30
0
11
-125.37499999999991
21
29.025000000000002
31
0
0
LINE
5
14F
100
AcDbEntity
8
CUTOUTS
100
AcDbLine
10
-125.37499999999991
20
29.025000000000002
30
0
11
-119.52499999999992
21
29.025000000000002
31
0
0
LINE
5
150
100
AcDbEntity
8
CUTOUTS
100
AcDbLine
10
-139.77499999999989
20
-29.025000000000002
30
0
11
-139.77499999999989
21
29.024999999999995
31
0
0
LINE
5
151
100
AcDbEntity
8
CUTOUTS
100
AcDbLine
10
-139.77499999999989
20
29.024999999999995
30
0
11
-133.9249999999999
21
29.025000000000002
31
0
0
LINE
5
152
100
AcDbEntity
8
CUTOUTS
100
AcDbLine
10
-133.9249999999999
20
29.025000000000002
30
0
11
-133.9249999999999
21
-29.025000000000002
31
0
0
LINE
5
153
100
AcDbEntity
8
CUTOUTS
100
AcDbLine
10
-133.9249999999999
20
-29.025000000000002
30
0
11
-139.77499999999989
21
-29.025000000000002
31
0
0
LINE
5
154
100
AcDbEntity
8
CUTOUTS
100
AcDbLine
10
-148.3249999999999
20
29.025000000000002
30
0
11
-148.3249999999999
21
-29.024999999999995
31
0
0
LINE
5
155
100
AcDbEntity
8
CUTOUTS
100
AcDbLine
10
-148.32499999999987
20
-29.024999999999995
30
0
11
-154.1749999999999
21
-29.025000000000002
31
0
0
LINE
5
156
100
AcDbEntity
8
CUTOUTS
100
AcDbLine
10
-154.1749999999999
20
-29.025000000000002
30
0
11
-154.1749999999999
21
29.025000000000002
31
0
0
LINE
5
157
100
AcDbEntity
8
CUTOUTS
100
AcDbLine
10
-154.1749999999999
20
29.025000000000002
30
0
11
-148.32499999999987
21
29.025000000000002
31
0
0
LINE
5
158
100
AcDbEntity
8
PERIMETER
100
AcDbLine
10
-160.4249999999999
20
-29.024999999999995
30
0
11
-166.4249999999999
21
-29.025000000000002
31
0
0
LINE
5
159
100
AcDbEntity
8
PERIMETER
100
AcDbLine
10
-166.4249999999999
20
-29.025000000000002
30
0
11
-166.4249999999999
21
-31.175000000000001
31
0
0
LINE
5
15A
100
AcDbEntity
8
PERIMETER
100
AcDbLine
10
-166.4249999999999
20
-31.175000000000001
30
0
11
166.42499999999905
21
-31.175000000000001
31
0
0
LINE
5
15B
100
AcDbEntity
8
PERIMETER
100
AcDbLine
10
166.4249999999991
20
-31.175000000000001
30
0
11
166.4249999999991
21
-29.025000000000002
31
0
0
LINE
5
15C
100
AcDbEntity
8
PERIMETER
100
AcDbLine
10
166.4249999999991
20
-29.025000000000002
30
0
11
160.42499999999959
21
-29.025000000000002
31
0
0
LINE
5
15D
100
AcDbEntity
8
PERIMETER
100
AcDbLine
10
160.42499999999959
20
-29.025000000000002
30
0
11
160.42500000000044
21
29.024999999999995
31
0
0
LINE
5
15E
100
AcDbEntity
8
PERIMETER
100
AcDbLine
10
160.42500000000044
20
29.024999999999995
30
0
11
166.4249999999991
21
29.025000000000002
31
0
0
LINE
5
15F
100
AcDbEntity
8
PERIMETER
100
AcDbLine
10
166.4249999999991
20
29.025000000000002
30
0
11
166.42499999999995
21
31.175000000000001
31
0
0
LINE
5
160
100
AcDbEntity
8
PERIMETER
100
AcDbLine
10
166.42499999999995
20
31.175000000000001
30
0
11
-166.42499999999987
21
31.175000000000001
31
0
0
LINE
5
161
100
AcDbEntity
8
PERIMETER
100
AcDbLine
10
-166.42499999999987
20
31.175000000000001
30
0
11
-166.4249999999999
21
29.025000000000002
31
0
0
LINE
5
162
100
AcDbEntity
8
PERIMETER
100
AcDbLine
10
-166.4249999999999
20
29.025000000000002
30
0
11
-160.4249999999999
21
29.025000000000002
31
0
0
LINE
5
163
100
AcDbEntity
8
PERIMETER
100
AcDbLine
10
-160.4249999999999
20
29.025000000000002
30
0
11
-160.4249999999999
21
-29.024999999999995
31
0
0
ENDSEC
0
SECTION
2
OBJECTS
0
DICTIONARY
5
C
100
AcDbDictionary
3
ACAD_GROUP
350
D
3
ACAD_MLINESTYLE
350
17
0
DICTIONARY
5
D
100
AcDbDictionary
0
DICTIONARY
5
1A
330
C
100
AcDbDictionary
0
DICTIONARY
5
17
100
AcDbDictionary
0
ENDSEC
0
EOF
