0
SECTION
2
HEADER
9
$INSUNITS
70
4
9
$ACADVER
1
AC1014
9
$HANDSEED
5
FFFF
0
ENDSEC
0
SECTION
2
TABLES
0
TABLE
2
VPORT
5
8
100
AcDbSymbolTable
0
ENDTAB
0
TABLE
2
LTYPE
5
5
100
AcDbSymbolTable
70
2
0
LTYPE
5
14
100
AcDbSymbolTableRecord
100
AcDbLinetypeTableRecord
2
BYBLOCK
70
0
0
LTYPE
5
15
100
AcDbSymbolTableRecord
100
AcDbLinetypeTableRecord
2
BYLAYER
70
0
0
ENDTAB
0
TABLE
2
LAYER
5
2
100
AcDbSymbolTable
70
3
0
LAYER
5
50
100
AcDbSymbolTableRecord
100
AcDbLayerTableRecord
2
0
70
0
6
CONTINUOUS
0
LAYER
5
51
100
AcDbSymbolTableRecord
100
AcDbLayerTableRecord
2
CUTOUTS
70
0
62
1
6
CONTINUOUS
0
LAYER
5
52
100
AcDbSymbolTableRecord
100
AcDbLayerTableRecord
2
PERIMETER
70
0
62
5
6
CONTINUOUS
0
ENDTAB
0
TABLE
2
STYLE
5
3
100
AcDbSymbolTable
70
1
0
STYLE
5
11
100
AcDbSymbolTableRecord
100
AcDbTextStyleTableRecord
2
STANDARD
70
0
0
ENDTAB
0
TABLE
2
VIEW
5
6
100
AcDbSymbolTable
0
ENDTAB
0
TABLE
2
UCS
5
7
100
AcDbSymbolTable
0
ENDTAB
0
TABLE
2
APPID
5
9
100
AcDbSymbolTable
70
1
0
APPID
5
12
100
AcDbSymbolTableRecord
100
AcDbRegAppTableRecord
2
ACAD
70
0
0
ENDTAB
0
TABLE
2
DIMSTYLE
5
A
100
AcDbSymbolTable
0
ENDTAB
0
TABLE
2
BLOCK_RECORD
5
1
100
AcDbSymbolTable
70
2
0
BLOCK_RECORD
5
1F
100
AcDbSymbolTableRecord
100
AcDbBlockTableRecord
2
*MODEL_SPACE
0
BLOCK_RECORD
5
1B
100
AcDbSymbolTableRecord
100
AcDbBlockTableRecord
2
*PAPER_SPACE
0
ENDTAB
0
ENDSEC
0
SECTION
2
BLOCKS
0
BLOCK
5
20
100
AcDbEntity
100
AcDbBlockBegin
2
*MODEL_SPACE
0
ENDBLK
5
21
100
AcDbEntity
100
AcDbBlockEnd
0
BLOCK
5
1C
100
AcDbEntity
100
AcDbBlockBegin
2
*PAPER_SPACE
0
ENDBLK
5
1D
100
AcDbEntity
100
AcDbBlockEnd
0
ENDSEC
0
SECTION
2
ENTITIES
0
LINE
5
100
100
AcDbEntity
8
CUTOUTS
100
AcDbLine
10
-154.92636569604244
20
-13.259376133682279
30
0
11
-154.50423526472036
21
44.839090334021996
31
0
0
LINE
5
101
100
AcDbEntity
8
CUTOUTS
100
AcDbLine
10
-154.50423526472036
20
44.839090334021996
30
0
11
-148.60439099347329
21
44.796223388328301
31
0
0
LINE
5
102
100
AcDbEntity
8
CUTOUTS
100
AcDbLine
10
-148.60439099347329
20
44.796223388328301
30
0
11
-149.02652142479528
21
-13.30224307937609
31
0
0
LINE
5
103
100
AcDbEntity
8
CUTOUTS
100
AcDbLine
10
-149.02652142479528
20
-13.30224307937609
30
0
11
-154.92636569604244
21
-13.259376133682279
31
0
0
LINE
5
104
100
AcDbEntity
8
CUTOUTS
100
AcDbLine
10
-134.09268683464924
20
44.602530240284928
30
0
11
-135.01715822396633
21
-13.490114325531968
31
0
0
LINE
5
105
100
AcDbEntity
8
CUTOUTS
100
AcDbLine
10
-135.01715822396636
20
-13.490114325531968
30
0
11
-140.91641128658881
21
-13.396235131091796
31
0
0
LINE
5
106
100
AcDbEntity
8
CUTOUTS
100
AcDbLine
10
-140.91641128658881
20
-13.396235131091796
30
0
11
-139.99193989727078
21
44.696409434725098
31
0
0
LINE
5
107
100
AcDbEntity
8
CUTOUTS
100
AcDbLine
10
-139.99193989727078
20
44.696409434725098
30
0
11
-134.09268683464924
21
44.602530240284928
31
0
0
LINE
5
108
100
AcDbEntity
8
CUTOUTS
100
AcDbLine
10
-126.90816390479912
20
-13.654227809252824
30
0
11
-125.4814207689785
21
44.428251511316752
31
0
0
LINE
5
109
100
AcDbEntity
8
CUTOUTS
100
AcDbLine
10
-125.4814207689785
20
44.428251511316752
30
0
11
-119.58319997738872
21
44.283367096491673
31
0
0
LINE
5
10A
100
AcDbEntity
8
CUTOUTS
100
AcDbLine
10
-119.58319997738872
20
44.283367096491673
30
0
11
-121.00994311320882
21
-13.79911222407789
31
0
0
LINE
5
10B
100
AcDbEntity
8
CUTOUTS
100
AcDbLine
10
-121.00994311320882
20
-13.79911222407789
30
0
11
-126.90816390479912
21
-13.654227809252824
31
0
0
LINE
5
10C
100
AcDbEntity
8
CUTOUTS
100
AcDbLine
10
-110.97376275525403
20
44.03463661537473
30
0
11
-105.07701521984025
21
43.838757817150757
31
0
0
LINE
5
10D
100
AcDbEntity
8
CUTOUTS
100
AcDbLine
10
-105.07701521984025
20
43.838757817150757
30
0
11
-107.00592338540301
21
-14.229213675650909
31
0
0
LINE
5
10E
100
AcDbEntity
8
CUTOUTS
100
AcDbLine
10
-107.00592338540301
20
-14.229213675650909
30
0
11
-112.90267092081736
21
-14.033334877426888
31
0
0
LINE
5
10F
100
AcDbEntity
8
CUTOUTS
100
AcDbLine
10
-112.90267092081736
20
-14.033334877426888
30
0
11
-110.97376275525403
21
44.03463661537473
31
0
0
LINE
5
110
100
AcDbEntity
8
CUTOUTS
100
AcDbLine
10
-98.900979594451783
20
-14.533527978132472
30
0
11
-96.47005048953416
21
43.515594183075677
31
0
0
LINE
5
111
100
AcDbEntity
8
CUTOUTS
100
AcDbLine
10
-96.470050489534174
20
43.515594183075677
30
0
11
-90.575217085900192
21
43.268735633695279
31
0
0
LINE
5
112
100
AcDbEntity
8
CUTOUTS
100
AcDbLine
10
-90.575217085900192
20
43.268735633695279
30
0
11
-93.006146190816352
21
-14.780386527512928
31
0
0
LINE
5
113
100
AcDbEntity
8
CUTOUTS
100
AcDbLine
10
-93.006146190816352
20
-14.780386527512928
30
0
11
-98.900979594451783
21
-14.533527978132472
31
0
0
LINE
5
114
100
AcDbEntity
8
CUTOUTS
100
AcDbLine
10
-81.971368399450256
20
42.871163011422041
30
0
11
-76.078889859281006
21
42.573343177218348
31
0
0
LINE
5
115
100
AcDbEntity
8
CUTOUTS
100
AcDbLine
10
-76.078889859281006
20
42.573343177218348
30
0
11
-79.01165805711797
21
-15.452589565804056
31
0
0
LINE
5
116
100
AcDbEntity
8
CUTOUTS
100
AcDbLine
10
-79.01165805711797
20
-15.452589565804056
30
0
11
-84.904136597290659
21
-15.154769731600206
31
0
0
LINE
5
117
100
AcDbEntity
8
CUTOUTS
100
AcDbLine
10
-84.904136597290659
20
-15.154769731600206
30
0
11
-81.971368399450256
21
42.871163011422041
31
0
0
LINE
5
118
100
AcDbEntity
8
CUTOUTS
100
AcDbLine
10
-67.478800443489874
20
42.101391289234378
30
0
11
-61.589117323280576
21
41.752632427664167
31
0
0
LINE
5
119
100
AcDbEntity
8
CUTOUTS
100
AcDbLine
10
-61.589117323280576
20
41.752632427664167
30
0
11
-65.023505434679393
21
-16.245772535750696
31
0
0
LINE
5
11A
100
AcDbEntity
8
CUTOUTS
100
AcDbLine
10
-65.023505434679393
20
-16.245772535750696
30
0
11
-70.913188554889487
21
-15.897013674180451
31
0
0
LINE
5
11B
100
AcDbEntity
8
CUTOUTS
100
AcDbLine
10
-70.913188554889487
20
-15.897013674180451
30
0
11
-67.478800443489874
21
42.101391289234378
31
0
0
LINE
5
11C
100
AcDbEntity
8
CUTOUTS
100
AcDbLine
10
-56.929181343846125
20
-16.76020433165916
30
0
11
-52.993430213903814
21
41.206336560852591
31
0
0
LINE
5
11D
100
AcDbEntity
8
CUTOUTS
100
AcDbLine
10
-52.993430213903814
20
41.206336560852591
30
0
11
-47.106982859931335
21
40.806664759360451
31
0
0
LINE
5
11E
100
AcDbEntity
8
CUTOUTS
100
AcDbLine
10
-47.106982859931335
20
40.806664759360451
30
0
11
-51.042733989873028
21
-17.159876133150664
31
0
0
LINE
5
11F
100
AcDbEntity
8
CUTOUTS
100
AcDbLine
10
-51.042733989873028
20
-17.159876133150664
30
0
11
-56.929181343846125
21
-16.76020433165916
31
0
0
LINE
5
120
100
AcDbEntity
8
CUTOUTS
100
AcDbLine
10
-38.516340657073002
20
40.186065754947684
30
0
11
-32.633569175397135
21
39.735510881074724
31
0
0
LINE
5
121
100
AcDbEntity
8
CUTOUTS
100
AcDbLine
10
-32.633569175397135
20
39.735510881074731
30
0
11
-37.070389204556484
21
-18.194832014759335
31
0
0
LINE
5
122
100
AcDbEntity
8
CUTOUTS
100
AcDbLine
10
-37.070389204556484
20
-18.194832014759335
30
0
11
-42.953160686238036
21
-17.744277140884989
31
0
0
LINE
5
123
100
AcDbEntity
8
CUTOUTS
100
AcDbLine
10
-42.953160686238036
20
-17.744277140884989
30
0
11
-38.516340657073002
21
40.186065754947691
31
0
0
LINE
5
124
100
AcDbEntity
8
CUTOUTS
100
AcDbLine
10
-24.048614197651634
20
39.040655146543514
30
0
11
-18.169958418437044
21
38.539250888970741
31
0
0
LINE
5
125
100
AcDbEntity
8
CUTOUTS
100
AcDbLine
10
-18.169958418437044
20
38.539250888970741
30
0
11
-23.107515598942943
21
-19.350562801256398
31
0
0
LINE
5
126
100
AcDbEntity
8
CUTOUTS
100
AcDbLine
10
-23.107515598942943
20
-19.350562801256402
30
0
11
-28.986171378160925
21
-18.849158543683878
31
0
0
LINE
5
127
100
AcDbEntity
8
CUTOUTS
100
AcDbLine
10
-28.986171378160925
20
-18.849158543683878
30
0
11
-24.048614197651634
21
39.040655146543514
31
0
0
LINE
5
128
100
AcDbEntity
8
CUTOUTS
100
AcDbLine
10
-9.1551570901702561
20
-20.626982085020138
30
0
11
-15.029257644836402
21
-20.074765937321768
31
0
0
LINE
5
129
100
AcDbEntity
8
CUTOUTS
100
AcDbLine
10
-15.029257644836402
20
-20.074765937321768
30
0
11
-9.5913325293632212
21
37.770190372096721
31
0
0
LINE
5
12A
100
AcDbEntity
8
CUTOUTS
100
AcDbLine
10
-9.5913325293632212
20
37.770190372096721
30
0
11
-3.717231974707822
21
37.217974224398958
31
0
0
LINE
5
12B
100
AcDbEntity
8
CUTOUTS
100
AcDbLine
10
-3.717231974707822
20
37.217974224398958
30
0
11
-9.1551570901702561
21
-20.626982085020138
31
0
0
LINE
5
12C
100
AcDbEntity
8
CUTOUTS
100
AcDbLine
10
4.7856431714021497
20
-22.023994435203686
30
0
11
-1.0834629773910365
21
-21.421007690511082
31
0
0
LINE
5
12D
100
AcDbEntity
8
CUTOUTS
100
AcDbLine
10
-1.0834629773910365
20
-21.421007690511082
30
0
11
4.8544234406863751
21
36.374766418726324
31
0
0
LINE
5
12E
100
AcDbEntity
8
CUTOUTS
100
AcDbLine
10
4.8544234406863751
20
36.374766418726324
30
0
11
10.723529589471283
21
35.771779674034377
31
0
0
LINE
5
12F
100
AcDbEntity
8
CUTOUTS
100
AcDbLine
10
10.723529589471283
20
35.771779674034377
30
0
11
4.7856431714021497
21
-22.02399443520369
31
0
0
LINE
5
130
100
AcDbEntity
8
CUTOUTS
100
AcDbLine
10
25.151246653688979
20
34.200775346365162
30
0
11
18.713842716428886
21
-23.541495396554112
31
0
0
LINE
5
131
100
AcDbEntity
8
CUTOUTS
100
AcDbLine
10
18.713842716428886
20
-23.541495396554105
30
0
11
12.850169783835064
21
-22.887783120652152
31
0
0
LINE
5
132
100
AcDbEntity
8
CUTOUTS
100
AcDbLine
10
12.850169783835064
20
-22.887783120652152
30
0
11
19.287573721105034
21
34.854487622266234
31
0
0
LINE
5
133
100
AcDbEntity
8
CUTOUTS
100
AcDbLine
10
19.287573721105034
20
34.854487622266234
30
0
11
25.151246653688979
21
34.200775346365162
31
0
0
LINE
5
134
100
AcDbEntity
8
CUTOUTS
100
AcDbLine
10
39.564840459613677
20
32.50507871963962
30
0
11
32.628400419668466
21
-25.179371521064748
31
0
0
LINE
5
135
100
AcDbEntity
8
CUTOUTS
100
AcDbLine
10
32.628400419668466
20
-25.179371521064748
30
0
11
26.770599104345649
21
-24.474982601345516
31
0
0
LINE
5
136
100
AcDbEntity
8
CUTOUTS
100
AcDbLine
10
26.770599104345649
20
-24.474982601345516
30
0
11
33.707039144292708
21
33.209467639358778
31
0
0
LINE
5
137
100
AcDbEntity
8
CUTOUTS
100
AcDbLine
10
33.707039144292708
20
33.209467639358778
30
0
11
39.564840459613677
21
32.50507871963962
31
0
0
LINE
5
138
100
AcDbEntity
8
CUTOUTS
100
AcDbLine
10
40.676784084386455
20
-26.182487441353139
30
0
11
48.111741671463442
21
31.439829465192961
31
0
0
LINE
5
139
100
AcDbEntity
8
CUTOUTS
100
AcDbLine
10
48.111741671463442
20
31.439829465192961
30
0
11
53.963233405516604
21
30.684816560482247
31
0
0
LINE
5
13A
100
AcDbEntity
8
CUTOUTS
100
AcDbLine
10
53.963233405516604
20
30.684816560482247
30
0
11
46.528275818451128
21
-26.937500346065235
31
0
0
LINE
5
13B
100
AcDbEntity
8
CUTOUTS
100
AcDbLine
10
46.528275818451128
20
-26.937500346065235
30
0
11
40.676784084386455
21
-26.182487441353139
31
0
0
LINE
5
13C
100
AcDbEntity
8
CUTOUTS
100
AcDbLine
10
60.41242973536729
20
-28.815750426917937
30
0
11
54.567685074016126
21
-28.010169987941957
31
0
0
LINE
5
13D
100
AcDbEntity
8
CUTOUTS
100
AcDbLine
10
54.567685074016126
20
-28.010169987941957
30
0
11
62.500604312051564
21
29.545705405999012
31
0
0
LINE
5
13E
100
AcDbEntity
8
CUTOUTS
100
AcDbLine
10
62.500604312051564
20
29.545705405999012
30
0
11
68.345348973396796
21
28.740124967025306
31
0
0
LINE
5
13F
100
AcDbEntity
8
CUTOUTS
100
AcDbLine
10
68.345348973396796
20
28.740124967025306
30
0
11
60.41242973536729
21
-28.815750426917944
31
0
0
LINE
5
140
100
AcDbEntity
8
CUTOUTS
100
AcDbLine
10
82.710111866590921
20
26.67114933935553
30
0
11
74.279824153609411
21
-30.813981338728716
31
0
0
LINE
5
141
100
AcDbEntity
8
CUTOUTS
100
AcDbLine
10
74.279824153609411
20
-30.813981338728709
30
0
11
68.442263551193719
21
-29.957893601952463
31
0
0
LINE
5
142
100
AcDbEntity
8
CUTOUTS
100
AcDbLine
10
68.442263551193719
20
-29.957893601952463
30
0
11
76.872551264175684
21
27.527237076131755
31
0
0
LINE
5
143
100
AcDbEntity
8
CUTOUTS
100
AcDbLine
10
76.872551264175684
20
27.527237076131755
30
0
11
82.710111866590921
21
26.67114933935553
31
0
0
LINE
5
144
100
AcDbEntity
8
CUTOUTS
100
AcDbLine
10
88.129422148395548
20
-32.932043673184538
30
0
11
82.299482056291637
21
-32.025512635409598
31
0
0
LINE
5
145
100
AcDbEntity
8
CUTOUTS
100
AcDbLine
10
82.299482056291637
20
-32.025512635409598
30
0
11
91.226508038446667
21
25.384575390249758
31
0
0
LINE
5
146
100
AcDbEntity
8
CUTOUTS
100
AcDbLine
10
91.226508038446667
20
25.384575390249758
30
0
11
97.056448130554571
21
24.478044352475081
31
0
0
LINE
5
147
100
AcDbEntity
8
CUTOUTS
100
AcDbLine
10
97.056448130554571
20
24.478044352475081
30
0
11
88.129422148395548
21
-32.932043673184538
31
0
0
LINE
5
148
100
AcDbEntity
8
CUTOUTS
100
AcDbLine
10
111.38328511710458
20
22.160973989487388
30
0
11
101.96018838193204
21
-35.169779083533143
31
0
0
LINE
5
149
100
AcDbEntity
8
CUTOUTS
100
AcDbLine
10
101.96018838193204
20
-35.169779083533143
30
0
11
96.138304679155027
21
-34.212872530390271
31
0
0
LINE
5
14A
100
AcDbEntity
8
CUTOUTS
100
AcDbLine
10
96.138304679155027
20
-34.212872530390271
30
0
11
105.56140141433943
21
23.117880542628555
31
0
0
LINE
5
14B
100
AcDbEntity
8
CUTOUTS
100
AcDbLine
10
105.56140141433943
20
23.117880542628555
30
0
11
111.38328511710458
21
22.160973989487388
31
0
0
LINE
5
14C
100
AcDbEntity
8
CUTOUTS
100
AcDbLine
10
115.77108869925674
20
-37.52702025629943
30
0
11
109.95769666435081
21
-36.51980972798377
31
0
0
LINE
5
14D
100
AcDbEntity
8
CUTOUTS
100
AcDbLine
10
109.95769666435081
20
-36.51980972798377
30
0
11
119.87615966356159
21
20.727322005697665
31
0
0
LINE
5
14E
100
AcDbEntity
8
CUTOUTS
100
AcDbLine
10
119.87615966356159
20
20.727322005697665
30
0
11
125.68955169848169
21
19.720111477378975
31
0
0
LINE
5
14F
100
AcDbEntity
8
CUTOUTS
100
AcDbLine
10
125.68955169848169
20
19.720111477378975
30
0
11
115.77108869925674
21
-37.52702025629943
31
0
0
LINE
5
150
100
AcDbEntity
8
CUTOUTS
100
AcDbLine
10
123.75662485817105
20
-38.946151763120163
30
0
11
134.1697125179021
21
18.213078509784467
31
0
0
LINE
5
151
100
AcDbEntity
8
CUTOUTS
100
AcDbLine
10
134.1697125179021
20
18.213078509784467
30
0
11
139.97417824269019
21
17.155639315425098
31
0
0
LINE
5
152
100
AcDbEntity
8
CUTOUTS
100
AcDbLine
10
139.97417824269019
20
17.155639315425098
30
0
11
129.56109058297153
21
-40.00359095748081
31
0
0
LINE
5
153
100
AcDbEntity
8
CUTOUTS
100
AcDbLine
10
129.56109058297153
20
-40.003590957480817
30
0
11
123.75662485817105
21
-38.946151763120163
31
0
0
LINE
5
154
100
AcDbEntity
8
CUTOUTS
100
AcDbLine
10
154.23609677328346
20
14.467749228949668
30
0
11
143.32916294168098
21
-42.599306016552418
31
0
0
LINE
5
155
100
AcDbEntity
8
CUTOUTS
100
AcDbLine
10
143.32916294168098
20
-42.599306016552426
30
0
11
137.53405750364533
21
-41.491717210931199
31
0
0
LINE
5
156
100
AcDbEntity
8
CUTOUTS
100
AcDbLine
10
137.53405750364533
20
-41.491717210931199
30
0
11
148.44099133527385
21
15.575338034565114
31
0
0
LINE
5
157
100
AcDbEntity
8
CUTOUTS
100
AcDbLine
10
148.44099133527385
20
15.575338034565117
30
0
11
154.23609677328346
21
14.467749228949668
31
0
0
LINE
5
158
100
AcDbEntity
8
PERIMETER
100
AcDbLine
10
155.0738964578446
20
-44.911024066707753
30
0
11
149.18897833361285
21
-43.741520473508039
31
0
0
LINE
5
159
100
AcDbEntity
8
PERIMETER
100
AcDbLine
10
149.18897833361285
20
-43.741520473508039
30
0
11
160.51367146370501
21
13.244103375927745
31
0
0
LINE
5
15A
100
AcDbEntity
8
PERIMETER
100
AcDbLine
10
160.51367146370501
20
13.244103375927745
30
0
11
166.39858959036553
21
12.074599782245405
31
0
0
LINE
5
15B
100
AcDbEntity
8
PERIMETER
100
AcDbLine
10
166.39858959036553
20
12.074599782245405
30
0
11
166.80791570993179
21
14.134320430583598
31
0
0
ARC
5
15C
100
AcDbEntity
8
PERIMETER
100
AcDbCircle
10
-166.74912900050998
20
-1664.0651255092353
30
0
40
1711.0270840722185
210
0
220
-0
230
1
100
AcDbArc
50
78.758459639497133
51
90.001674309543333
0
LINE
5
15D
100
AcDbEntity
8
PERIMETER
100
AcDbLine
10
-166.79912900050425
20
46.961957832427885
30
0
11
-166.79912900050354
21
44.861958562987105
31
0
0
LINE
5
15E
100
AcDbEntity
8
PERIMETER
100
AcDbLine
10
-166.79912900050354
20
44.861958562987105
30
0
11
-160.79912900050428
21
44.861958562987105
31
0
0
LINE
5
15F
100
AcDbEntity
8
PERIMETER
100
AcDbLine
10
-160.79912900050425
20
44.861958562987105
30
0
11
-160.79912900050741
21
-13.2380414370129
31
0
0
LINE
5
160
100
AcDbEntity
8
PERIMETER
100
AcDbLine
10
-160.79912900050743
20
-13.238041437012908
30
0
11
-166.79912900050675
21
-13.2380414370129
31
0
0
LINE
5
161
100
AcDbEntity
8
PERIMETER
100
AcDbLine
10
-166.7991290005067
20
-13.2380414370129
30
0
11
-166.79912900050675
21
-15.338042195172834
31
0
0
ARC
5
162
100
AcDbEntity
8
PERIMETER
100
AcDbCircle
10
-166.74912900050998
20
-1664.0651255092353
30
0
40
1648.7270840722235
210
0
220
-0
230
1
100
AcDbArc
50
78.758397297501915
51
90.001737576220776
0
LINE
5
163
100
AcDbEntity
8
PERIMETER
100
AcDbLine
10
154.66457005658285
20
-46.970746132529555
30
0
11
155.0738964578446
21
-44.911024066707753
31
0
0
ENDSEC
0
SECTION
2
OBJECTS
0
DICTIONARY
5
C
100
AcDbDictionary
3
ACAD_GROUP
350
D
3
ACAD_MLINESTYLE
350
17
0
DICTIONARY
5
D
100
AcDbDictionary
0
DICTIONARY
5
1A
330
C
100
AcDbDictionary
0
DICTIONARY
5
17
100
AcDbDictionary
0
ENDSEC
0
EOF
