0
SECTION
2
HEADER
9
$INSUNITS
70
4
9
$ACADVER
1
AC1014
9
$HANDSEED
5
FFFF
0
ENDSEC
0
SECTION
2
TABLES
0
TABLE
2
VPORT
5
8
100
AcDbSymbolTable
0
ENDTAB
0
TABLE
2
LTYPE
5
5
100
AcDbSymbolTable
70
2
0
LTYPE
5
14
100
AcDbSymbolTableRecord
100
AcDbLinetypeTableRecord
2
BYBLOCK
70
0
0
LTYPE
5
15
100
AcDbSymbolTableRecord
100
AcDbLinetypeTableRecord
2
BYLAYER
70
0
0
ENDTAB
0
TABLE
2
LAYER
5
2
100
AcDbSymbolTable
70
3
0
LAYER
5
50
100
AcDbSymbolTableRecord
100
AcDbLayerTableRecord
2
0
70
0
6
CONTINUOUS
0
LAYER
5
51
100
AcDbSymbolTableRecord
100
AcDbLayerTableRecord
2
CUTOUTS
70
0
62
1
6
CONTINUOUS
0
LAYER
5
52
100
AcDbSymbolTableRecord
100
AcDbLayerTableRecord
2
PERIMETER
70
0
62
5
6
CONTINUOUS
0
ENDTAB
0
TABLE
2
STYLE
5
3
100
AcDbSymbolTable
70
1
0
STYLE
5
11
100
AcDbSymbolTableRecord
100
AcDbTextStyleTableRecord
2
STANDARD
70
0
0
ENDTAB
0
TABLE
2
VIEW
5
6
100
AcDbSymbolTable
0
ENDTAB
0
TABLE
2
UCS
5
7
100
AcDbSymbolTable
0
ENDTAB
0
TABLE
2
APPID
5
9
100
AcDbSymbolTable
70
1
0
APPID
5
12
100
AcDbSymbolTableRecord
100
AcDbRegAppTableRecord
2
ACAD
70
0
0
ENDTAB
0
TABLE
2
DIMSTYLE
5
A
100
AcDbSymbolTable
0
ENDTAB
0
TABLE
2
BLOCK_RECORD
5
1
100
AcDbSymbolTable
70
2
0
BLOCK_RECORD
5
1F
100
AcDbSymbolTableRecord
100
AcDbBlockTableRecord
2
*MODEL_SPACE
0
BLOCK_RECORD
5
1B
100
AcDbSymbolTableRecord
100
AcDbBlockTableRecord
2
*PAPER_SPACE
0
ENDTAB
0
ENDSEC
0
SECTION
2
BLOCKS
0
BLOCK
5
20
100
AcDbEntity
100
AcDbBlockBegin
2
*MODEL_SPACE
0
ENDBLK
5
21
100
AcDbEntity
100
AcDbBlockEnd
0
BLOCK
5
1C
100
AcDbEntity
100
AcDbBlockBegin
2
*PAPER_SPACE
0
ENDBLK
5
1D
100
AcDbEntity
100
AcDbBlockEnd
0
ENDSEC
0
SECTION
2
ENTITIES
0
LINE
5
100
100
AcDbEntity
8
CUTOUTS
100
AcDbLine
10
-154.97672765550806
20
-13.309011534746293
30
0
11
-154.55387066578439
21
44.889452293487594
31
0
0
LINE
5
101
100
AcDbEntity
8
CUTOUTS
100
AcDbLine
10
-154.55387066578436
20
44.889452293487594
30
0
11
-148.55402903400767
21
44.845858789392317
31
0
0
LINE
5
102
100
AcDbEntity
8
CUTOUTS
100
AcDbLine
10
-148.55402903400767
20
44.845858789392317
30
0
11
-148.97688602373125
21
-13.352605038841681
31
0
0
LINE
5
103
100
AcDbEntity
8
CUTOUTS
100
AcDbLine
10
-148.97688602373125
20
-13.352605038841689
30
0
11
-154.97672765550803
21
-13.309011534746293
31
0
0
LINE
5
104
100
AcDbEntity
8
CUTOUTS
100
AcDbLine
10
-134.04189757823349
20
44.651728323913588
30
0
11
-134.96796014033771
21
-13.540903581947754
31
0
0
LINE
5
105
100
AcDbEntity
8
CUTOUTS
100
AcDbLine
10
-134.96796014033771
20
-13.540903581947754
30
0
11
-140.96720054300459
21
-13.445433214720444
31
0
0
LINE
5
106
100
AcDbEntity
8
CUTOUTS
100
AcDbLine
10
-140.96720054300459
20
-13.445433214720444
30
0
11
-140.04113798089946
21
44.747198691140881
31
0
0
LINE
5
107
100
AcDbEntity
8
CUTOUTS
100
AcDbLine
10
-140.04113798089946
20
44.747198691140881
30
0
11
-134.04189757823349
21
44.651728323913588
31
0
0
LINE
5
108
100
AcDbEntity
8
CUTOUTS
100
AcDbLine
10
-126.95937666078569
20
-13.702984897191506
30
0
11
-125.53017785691719
21
44.4794642673033
31
0
0
LINE
5
109
100
AcDbEntity
8
CUTOUTS
100
AcDbLine
10
-125.53017785691719
20
44.4794642673033
30
0
11
-119.53198722140216
21
44.332124184430356
31
0
0
LINE
5
10A
100
AcDbEntity
8
CUTOUTS
100
AcDbLine
10
-119.53198722140215
20
44.332124184430356
30
0
11
-120.96118602527012
21
-13.850324980064448
31
0
0
LINE
5
10B
100
AcDbEntity
8
CUTOUTS
100
AcDbLine
10
-120.96118602527014
20
-13.850324980064448
30
0
11
-126.95937666078571
21
-13.702984897191506
31
0
0
LINE
5
10C
100
AcDbEntity
8
CUTOUTS
100
AcDbLine
10
-112.95430334737361
20
-14.081647324352229
30
0
11
-111.02207520217937
21
44.08626904193099
31
0
0
LINE
5
10D
100
AcDbEntity
8
CUTOUTS
100
AcDbLine
10
-111.02207520217938
20
44.08626904193099
30
0
11
-105.02538279328402
21
43.887070264076087
31
0
0
LINE
5
10E
100
AcDbEntity
8
CUTOUTS
100
AcDbLine
10
-105.02538279328402
20
43.887070264076087
30
0
11
-106.95761093847767
21
-14.280846102207168
31
0
0
LINE
5
10F
100
AcDbEntity
8
CUTOUTS
100
AcDbLine
10
-106.95761093847766
20
-14.280846102207159
30
0
11
-112.95430334737361
21
-14.081647324352229
31
0
0
LINE
5
110
100
AcDbEntity
8
CUTOUTS
100
AcDbLine
10
-98.953027831341728
20
-14.581392171812588
30
0
11
-96.517914683214272
21
43.567642419965637
31
0
0
LINE
5
111
100
AcDbEntity
8
CUTOUTS
100
AcDbLine
10
-96.517914683214272
20
43.567642419965637
30
0
11
-90.523168849010233
21
43.316599827375398
31
0
0
LINE
5
112
100
AcDbEntity
8
CUTOUTS
100
AcDbLine
10
-90.523168849010247
20
43.316599827375398
30
0
11
-92.958281997136254
21
-14.83243476440288
31
0
0
LINE
5
113
100
AcDbEntity
8
CUTOUTS
100
AcDbLine
10
-92.95828199713624
20
-14.83243476440288
30
0
11
-98.953027831341728
21
-14.581392171812588
31
0
0
LINE
5
114
100
AcDbEntity
8
CUTOUTS
100
AcDbLine
10
-82.018780761365221
20
42.923623167137052
30
0
11
-76.026429703565995
21
42.620755539133306
31
0
0
LINE
5
115
100
AcDbEntity
8
CUTOUTS
100
AcDbLine
10
-76.026429703565995
20
42.620755539133306
30
0
11
-78.964245695203005
21
-15.505049721519075
31
0
0
LINE
5
116
100
AcDbEntity
8
CUTOUTS
100
AcDbLine
10
-78.964245695203005
20
-15.505049721519066
30
0
11
-84.956596753005698
21
-15.202182093515164
31
0
0
LINE
5
117
100
AcDbEntity
8
CUTOUTS
100
AcDbLine
10
-84.956596753005698
20
-15.202182093515164
30
0
11
-82.018780761365221
21
42.923623167137052
31
0
0
LINE
5
118
100
AcDbEntity
8
CUTOUTS
100
AcDbLine
10
-67.525757428732561
20
42.154259441622344
30
0
11
-61.536249170892603
21
41.799589412906869
31
0
0
LINE
5
119
100
AcDbEntity
8
CUTOUTS
100
AcDbLine
10
-61.536249170892603
20
41.799589412906869
30
0
11
-64.976548449436692
21
-16.298640688138679
31
0
0
LINE
5
11A
100
AcDbEntity
8
CUTOUTS
100
AcDbLine
10
-64.976548449436692
20
-16.298640688138679
30
0
11
-70.96605670727746
21
-15.943970659423155
31
0
0
LINE
5
11B
100
AcDbEntity
8
CUTOUTS
100
AcDbLine
10
-70.96605670727746
20
-15.943970659423155
30
0
11
-67.525757428732561
21
42.154259441622344
31
0
0
LINE
5
11C
100
AcDbEntity
8
CUTOUTS
100
AcDbLine
10
-56.982453540078865
20
-16.80670242956154
30
0
11
-53.039928311806186
21
41.259608757085346
31
0
0
LINE
5
11D
100
AcDbEntity
8
CUTOUTS
100
AcDbLine
10
-53.039928311806186
20
41.259608757085346
30
0
11
-47.053710663698602
21
40.853162857262824
31
0
0
LINE
5
11E
100
AcDbEntity
8
CUTOUTS
100
AcDbLine
10
-47.053710663698602
20
40.853162857262824
30
0
11
-50.996235891970656
21
-17.213148329383419
31
0
0
LINE
5
11F
100
AcDbEntity
8
CUTOUTS
100
AcDbLine
10
-50.996235891970656
20
-17.213148329383408
30
0
11
-56.982453540078865
21
-16.80670242956154
31
0
0
LINE
5
120
100
AcDbEntity
8
CUTOUTS
100
AcDbLine
10
-38.562376391037425
20
40.23973801219811
30
0
11
-32.579896918146702
21
39.781546615039169
31
0
0
LINE
5
121
100
AcDbEntity
8
CUTOUTS
100
AcDbLine
10
-32.579896918146702
20
39.781546615039169
30
0
11
-37.02435347059204
21
-18.248504272009761
31
0
0
LINE
5
122
100
AcDbEntity
8
CUTOUTS
100
AcDbLine
10
-37.02435347059204
20
-18.248504272009765
30
0
11
-43.006832943488469
21
-17.790312874849423
31
0
0
LINE
5
123
100
AcDbEntity
8
CUTOUTS
100
AcDbLine
10
-43.006832943488469
20
-17.790312874849423
30
0
11
-38.562376391037425
21
40.23973801219811
31
0
0
LINE
5
124
100
AcDbEntity
8
CUTOUTS
100
AcDbLine
10
-24.094184125801128
20
39.094723451940013
30
0
11
-18.115890113040543
21
38.584820817120253
31
0
0
LINE
5
125
100
AcDbEntity
8
CUTOUTS
100
AcDbLine
10
-18.115890113040543
20
38.584820817120253
30
0
11
-23.061945670793449
21
-19.404631106652914
31
0
0
LINE
5
126
100
AcDbEntity
8
CUTOUTS
100
AcDbLine
10
-23.061945670793449
20
-19.404631106652914
30
0
11
-29.040239683557427
21
-18.894728471833389
31
0
0
LINE
5
127
100
AcDbEntity
8
CUTOUTS
100
AcDbLine
10
-29.040239683557427
20
-18.894728471833389
30
0
11
-24.094184125801128
21
39.094723451940013
31
0
0
LINE
5
128
100
AcDbEntity
8
CUTOUTS
100
AcDbLine
10
-15.083717955873315
20
-20.11986665263499
30
0
11
-9.6364332446764323
21
37.824650683133648
31
0
0
LINE
5
129
100
AcDbEntity
8
CUTOUTS
100
AcDbLine
10
-9.6364332446764323
20
37.824650683133648
30
0
11
-3.6627716636709096
21
37.263074939712169
31
0
0
LINE
5
12A
100
AcDbEntity
8
CUTOUTS
100
AcDbLine
10
-3.6627716636709096
20
37.263074939712169
30
0
11
-9.1100563748570274
21
-20.681442396057037
31
0
0
LINE
5
12B
100
AcDbEntity
8
CUTOUTS
100
AcDbLine
10
-9.1100563748570274
20
-20.681442396057037
30
0
11
-15.083717955873315
21
-20.11986665263499
31
0
0
LINE
5
12C
100
AcDbEntity
8
CUTOUTS
100
AcDbLine
10
4.8302713019453236
20
-22.078842680063666
30
0
11
-1.1383112222510405
21
-21.465635821054249
31
0
0
LINE
5
12D
100
AcDbEntity
8
CUTOUTS
100
AcDbLine
10
-1.1383112222510405
20
-21.465635821054249
30
0
11
4.8097953101432012
21
36.429614663586307
31
0
0
LINE
5
12E
100
AcDbEntity
8
CUTOUTS
100
AcDbLine
10
4.8097953101432012
20
36.429614663586307
30
0
11
10.778377834331252
21
35.816407804577544
31
0
0
LINE
5
12F
100
AcDbEntity
8
CUTOUTS
100
AcDbLine
10
10.778377834331252
20
35.816407804577544
30
0
11
4.8302713019453236
21
-22.078842680063669
31
0
0
LINE
5
130
100
AcDbEntity
8
CUTOUTS
100
AcDbLine
10
25.206478731727024
20
34.244927555320125
30
0
11
18.757994925383841
21
-23.596727474592164
31
0
0
LINE
5
131
100
AcDbEntity
8
CUTOUTS
100
AcDbLine
10
18.757994925383841
20
-23.596727474592171
30
0
11
12.794937705797018
21
-22.931935329607114
31
0
0
LINE
5
132
100
AcDbEntity
8
CUTOUTS
100
AcDbLine
10
12.794937705797018
20
-22.931935329607114
30
0
11
19.243421512150078
21
34.909719700304265
31
0
0
LINE
5
133
100
AcDbEntity
8
CUTOUTS
100
AcDbLine
10
19.243421512150078
20
34.909719700304265
30
0
11
25.206478731727024
21
34.244927555320125
31
0
0
LINE
5
134
100
AcDbEntity
8
CUTOUTS
100
AcDbLine
10
39.620452241266548
20
32.548751706043014
30
0
11
32.67207340607186
21
-25.234983302717602
31
0
0
LINE
5
135
100
AcDbEntity
8
CUTOUTS
100
AcDbLine
10
32.67207340607186
20
-25.234983302717602
30
0
11
26.714987322692778
21
-24.51865558774891
31
0
0
LINE
5
136
100
AcDbEntity
8
CUTOUTS
100
AcDbLine
10
26.714987322692778
20
-24.51865558774891
30
0
11
33.663366157889314
21
33.265079421011649
31
0
0
LINE
5
137
100
AcDbEntity
8
CUTOUTS
100
AcDbLine
10
33.663366157889314
20
33.265079421011649
30
0
11
39.620452241266548
21
32.548751706043014
31
0
0
LINE
5
138
100
AcDbEntity
8
CUTOUTS
100
AcDbLine
10
48.068551172909686
20
31.495816792640127
30
0
11
54.01922073296376
21
30.728007059036024
31
0
0
LINE
5
139
100
AcDbEntity
8
CUTOUTS
100
AcDbLine
10
54.01922073296376
20
30.728007059036024
30
0
11
46.571466317004884
21
-26.993487673512409
31
0
0
LINE
5
13A
100
AcDbEntity
8
CUTOUTS
100
AcDbLine
10
46.571466317004884
20
-26.993487673512409
30
0
11
40.620796756939299
21
-26.225677939906909
31
0
0
LINE
5
13B
100
AcDbEntity
8
CUTOUTS
100
AcDbLine
10
40.620796756939299
20
-26.225677939906909
30
0
11
48.068551172909686
21
31.495816792640127
31
0
0
LINE
5
13C
100
AcDbEntity
8
CUTOUTS
100
AcDbLine
10
60.455134516912814
20
-28.872109114208804
30
0
11
54.511326386725258
21
-28.05287476948747
31
0
0
LINE
5
13D
100
AcDbEntity
8
CUTOUTS
100
AcDbLine
10
54.511326386725258
20
-28.05287476948747
30
0
11
62.45789953050604
21
29.602064093289879
31
0
0
LINE
5
13E
100
AcDbEntity
8
CUTOUTS
100
AcDbLine
10
62.45789953050604
20
29.602064093289879
30
0
11
68.401707660687663
21
28.782829748570844
31
0
0
LINE
5
13F
100
AcDbEntity
8
CUTOUTS
100
AcDbLine
10
68.401707660687663
20
28.782829748570844
30
0
11
60.455134516912814
21
-28.872109114208804
31
0
0
LINE
5
140
100
AcDbEntity
8
CUTOUTS
100
AcDbLine
10
82.766837699973934
20
26.713365211098292
30
0
11
74.32204002535218
21
-30.870707172111782
31
0
0
LINE
5
141
100
AcDbEntity
8
CUTOUTS
100
AcDbLine
10
74.32204002535218
20
-30.870707172111782
30
0
11
68.385537717810678
21
-30.000109473695229
31
0
0
LINE
5
142
100
AcDbEntity
8
CUTOUTS
100
AcDbLine
10
68.385537717810678
20
-30.000109473695229
30
0
11
76.8303353924329
21
27.58396290951481
31
0
0
LINE
5
143
100
AcDbEntity
8
CUTOUTS
100
AcDbLine
10
76.8303353924329
20
27.58396290951481
30
0
11
82.766837699973934
21
26.713365211098292
31
0
0
LINE
5
144
100
AcDbEntity
8
CUTOUTS
100
AcDbLine
10
82.242393317902838
20
-32.067236440954765
30
0
11
91.184784232901492
21
25.441664128638564
31
0
0
LINE
5
145
100
AcDbEntity
8
CUTOUTS
100
AcDbLine
10
91.184784232901492
20
25.441664128638564
30
0
11
97.113536868943385
21
24.519768158020263
31
0
0
LINE
5
146
100
AcDbEntity
8
CUTOUTS
100
AcDbLine
10
97.113536868943385
20
24.519768158020263
30
0
11
88.171145953940737
21
-32.989132411573358
31
0
0
LINE
5
147
100
AcDbEntity
8
CUTOUTS
100
AcDbLine
10
88.171145953940737
20
-32.989132411573358
30
0
11
82.242393317902838
21
-32.067236440954765
31
0
0
LINE
5
148
100
AcDbEntity
8
CUTOUTS
100
AcDbLine
10
111.44073249215467
20
22.202202609399482
30
0
11
102.00141700184415
21
-35.227226458583225
31
0
0
LINE
5
149
100
AcDbEntity
8
CUTOUTS
100
AcDbLine
10
102.00141700184415
20
-35.227226458583225
30
0
11
96.080857304104939
21
-34.254101150302375
31
0
0
LINE
5
14A
100
AcDbEntity
8
CUTOUTS
100
AcDbLine
10
96.080857304104939
20
-34.254101150302375
30
0
11
105.52017279442734
21
23.175327917678644
31
0
0
LINE
5
14B
100
AcDbEntity
8
CUTOUTS
100
AcDbLine
10
105.52017279442734
20
23.175327917678644
30
0
11
111.44073249215467
21
22.202202609399482
31
0
0
LINE
5
14C
100
AcDbEntity
8
CUTOUTS
100
AcDbLine
10
115.81181905100756
20
-37.584821972937021
30
0
11
109.89989494771322
21
-36.560540079734622
31
0
0
LINE
5
14D
100
AcDbEntity
8
CUTOUTS
100
AcDbLine
10
109.89989494771322
20
-36.560540079734622
30
0
11
119.83542931181077
21
20.785123722335275
31
0
0
LINE
5
14E
100
AcDbEntity
8
CUTOUTS
100
AcDbLine
10
119.83542931181077
20
20.785123722335275
30
0
11
125.74735341511932
21
19.760841829129816
31
0
0
LINE
5
14F
100
AcDbEntity
8
CUTOUTS
100
AcDbLine
10
125.74735341511932
20
19.760841829129816
30
0
11
115.81181905100756
21
-37.584821972937021
31
0
0
LINE
5
150
100
AcDbEntity
8
CUTOUTS
100
AcDbLine
10
134.12948347950868
20
18.271230246387404
30
0
11
140.03232997929314
21
17.195868353818554
31
0
0
LINE
5
151
100
AcDbEntity
8
CUTOUTS
100
AcDbLine
10
140.03232997929314
20
17.195868353818554
30
0
11
129.60131962136495
21
-40.061742694083748
31
0
0
LINE
5
152
100
AcDbEntity
8
CUTOUTS
100
AcDbLine
10
129.60131962136495
20
-40.061742694083748
30
0
11
123.6984731215681
21
-38.986380801513633
31
0
0
LINE
5
153
100
AcDbEntity
8
CUTOUTS
100
AcDbLine
10
123.6984731215681
20
-38.986380801513633
30
0
11
134.12948347950868
21
18.271230246387404
31
0
0
LINE
5
154
100
AcDbEntity
8
CUTOUTS
100
AcDbLine
10
148.40126661805019
20
15.633835443409421
30
0
11
154.29459418212781
21
14.507473946173361
31
0
0
LINE
5
155
100
AcDbEntity
8
CUTOUTS
100
AcDbLine
10
154.29459418212781
20
14.507473946173361
30
0
11
143.36888765890464
21
-42.65780342539675
31
0
0
LINE
5
156
100
AcDbEntity
8
CUTOUTS
100
AcDbLine
10
143.36888765890464
20
-42.65780342539675
30
0
11
137.47556009480095
21
-41.531441928154891
31
0
0
LINE
5
157
100
AcDbEntity
8
CUTOUTS
100
AcDbLine
10
137.47556009480095
20
-41.531441928154891
30
0
11
148.40126661805019
21
15.633835443409421
31
0
0
LINE
5
158
100
AcDbEntity
8
PERIMETER
100
AcDbLine
10
160.47437634260405
20
13.302890223586559
30
0
11
166.35929446926662
21
12.133386629903784
31
0
0
LINE
5
159
100
AcDbEntity
8
PERIMETER
100
AcDbLine
10
166.35929446926662
20
12.133386629903784
30
0
11
166.74912900050671
21
14.095026005082714
31
0
0
ARC
5
15A
100
AcDbEntity
8
PERIMETER
100
AcDbCircle
10
-166.74912900050998
20
-1664.0651255092353
30
0
40
1710.977084072219
210
0
220
-0
230
1
100
AcDbArc
50
78.760133949755755
51
89.999999999999801
0
LINE
5
15B
100
AcDbEntity
8
PERIMETER
100
AcDbLine
10
-166.74912900050452
20
46.911958562983394
30
0
11
-166.74912900050356
21
44.911958562987095
31
0
0
LINE
5
15C
100
AcDbEntity
8
PERIMETER
100
AcDbLine
10
-166.74912900050356
20
44.911958562987095
30
0
11
-160.7491290005043
21
44.911958562987095
31
0
0
LINE
5
15D
100
AcDbEntity
8
PERIMETER
100
AcDbLine
10
-160.74912900050424
20
44.911958562987095
30
0
11
-160.74912900050742
21
-13.288041437012907
31
0
0
LINE
5
15E
100
AcDbEntity
8
PERIMETER
100
AcDbLine
10
-160.74912900050745
20
-13.288041437012899
30
0
11
-166.74912900050674
21
-13.288041437012899
31
0
0
LINE
5
15F
100
AcDbEntity
8
PERIMETER
100
AcDbLine
10
-166.74912900050671
20
-13.288041437012899
30
0
11
-166.74912900050674
21
-15.288041437011879
31
0
0
ARC
5
160
100
AcDbEntity
8
PERIMETER
100
AcDbCircle
10
-166.74912900050998
20
-1664.0651255092353
30
0
40
1648.7770840722233
210
0
220
-0
230
1
100
AcDbArc
50
78.760134872952705
51
89.999999999999901
0
LINE
5
161
100
AcDbEntity
8
PERIMETER
100
AcDbLine
10
154.62527507894322
20
-46.91195856298738
30
0
11
155.01510961018369
21
-44.950319187808319
31
0
0
LINE
5
162
100
AcDbEntity
8
PERIMETER
100
AcDbLine
10
155.01510961018369
20
-44.950319187808319
30
0
11
149.13019148595401
21
-43.780815594609017
31
0
0
LINE
5
163
100
AcDbEntity
8
PERIMETER
100
AcDbLine
10
149.13019148595401
20
-43.780815594609017
30
0
11
160.47437634260405
21
13.302890223586559
31
0
0
ENDSEC
0
SECTION
2
OBJECTS
0
DICTIONARY
5
C
100
AcDbDictionary
3
ACAD_GROUP
350
D
3
ACAD_MLINESTYLE
350
17
0
DICTIONARY
5
D
100
AcDbDictionary
0
DICTIONARY
5
1A
330
C
100
AcDbDictionary
0
DICTIONARY
5
17
100
AcDbDictionary
0
ENDSEC
0
EOF
