0
SECTION
2
HEADER
9
$INSUNITS
70
4
9
$ACADVER
1
AC1014
9
$HANDSEED
5
FFFF
0
ENDSEC
0
SECTION
2
TABLES
0
TABLE
2
VPORT
5
8
100
AcDbSymbolTable
0
ENDTAB
0
TABLE
2
LTYPE
5
5
100
AcDbSymbolTable
70
2
0
LTYPE
5
14
100
AcDbSymbolTableRecord
100
AcDbLinetypeTableRecord
2
BYBLOCK
70
0
0
LTYPE
5
15
100
AcDbSymbolTableRecord
100
AcDbLinetypeTableRecord
2
BYLAYER
70
0
0
ENDTAB
0
TABLE
2
LAYER
5
2
100
AcDbSymbolTable
70
3
0
LAYER
5
50
100
AcDbSymbolTableRecord
100
AcDbLayerTableRecord
2
0
70
0
6
CONTINUOUS
0
LAYER
5
51
100
AcDbSymbolTableRecord
100
AcDbLayerTableRecord
2
CUTOUTS
70
0
62
1
6
CONTINUOUS
0
LAYER
5
52
100
AcDbSymbolTableRecord
100
AcDbLayerTableRecord
2
PERIMETER
70
0
62
5
6
CONTINUOUS
0
ENDTAB
0
TABLE
2
STYLE
5
3
100
AcDbSymbolTable
70
1
0
STYLE
5
11
100
AcDbSymbolTableRecord
100
AcDbTextStyleTableRecord
2
STANDARD
70
0
0
ENDTAB
0
TABLE
2
VIEW
5
6
100
AcDbSymbolTable
0
ENDTAB
0
TABLE
2
UCS
5
7
100
AcDbSymbolTable
0
ENDTAB
0
TABLE
2
APPID
5
9
100
AcDbSymbolTable
70
1
0
APPID
5
12
100
AcDbSymbolTableRecord
100
AcDbRegAppTableRecord
2
ACAD
70
0
0
ENDTAB
0
TABLE
2
DIMSTYLE
5
A
100
AcDbSymbolTable
0
ENDTAB
0
TABLE
2
BLOCK_RECORD
5
1
100
AcDbSymbolTable
70
2
0
BLOCK_RECORD
5
1F
100
AcDbSymbolTableRecord
100
AcDbBlockTableRecord
2
*MODEL_SPACE
0
BLOCK_RECORD
5
1B
100
AcDbSymbolTableRecord
100
AcDbBlockTableRecord
2
*PAPER_SPACE
0
ENDTAB
0
ENDSEC
0
SECTION
2
BLOCKS
0
BLOCK
5
20
100
AcDbEntity
100
AcDbBlockBegin
2
*MODEL_SPACE
0
ENDBLK
5
21
100
AcDbEntity
100
AcDbBlockEnd
0
BLOCK
5
1C
100
AcDbEntity
100
AcDbBlockBegin
2
*PAPER_SPACE
0
ENDBLK
5
1D
100
AcDbEntity
100
AcDbBlockEnd
0
ENDSEC
0
SECTION
2
ENTITIES
0
CIRCLE
5
100
100
AcDbEntity
8
CUTOUTS
100
AcDbCircle
10
29.475000000000009
20
-19.800000000000001
30
0
40
0.67499999999999893
210
0
220
0
230
1
0
CIRCLE
5
101
100
AcDbEntity
8
CUTOUTS
100
AcDbCircle
10
16.375000000000011
20
-19.800000000000001
30
0
40
0.67499999999999893
210
0
220
0
230
1
0
CIRCLE
5
102
100
AcDbEntity
8
CUTOUTS
100
AcDbCircle
10
3.2750000000000057
20
-19.800000000000001
30
0
40
0.67500000000000004
210
0
220
0
230
1
0
CIRCLE
5
103
100
AcDbEntity
8
CUTOUTS
100
AcDbCircle
10
-9.8249999999999993
20
-19.800000000000001
30
0
40
0.67500000000000004
210
0
220
0
230
1
0
CIRCLE
5
104
100
AcDbEntity
8
CUTOUTS
100
AcDbCircle
10
-22.925000000000001
20
-19.800000000000001
30
0
40
0.67499999999999893
210
0
220
0
230
1
0
CIRCLE
5
105
100
AcDbEntity
8
CUTOUTS
100
AcDbCircle
10
-36.024999999999999
20
-19.800000000000001
30
0
40
0.67499999999999893
210
0
220
0
230
1
0
CIRCLE
5
106
100
AcDbEntity
8
CUTOUTS
100
AcDbCircle
10
-29.474999999999998
20
-19.800000000000001
30
0
40
0.67499999999999893
210
0
220
0
230
1
0
CIRCLE
5
107
100
AcDbEntity
8
CUTOUTS
100
AcDbCircle
10
-16.374999999999996
20
-19.800000000000001
30
0
40
0.67499999999999893
210
0
220
0
230
1
0
CIRCLE
5
108
100
AcDbEntity
8
CUTOUTS
100
AcDbCircle
10
-3.2749999999999968
20
-19.800000000000001
30
0
40
0.67500000000000004
210
0
220
0
230
1
0
CIRCLE
5
109
100
AcDbEntity
8
CUTOUTS
100
AcDbCircle
10
9.8250000000000082
20
-19.800000000000001
30
0
40
0.67499999999999893
210
0
220
0
230
1
0
CIRCLE
5
10A
100
AcDbEntity
8
CUTOUTS
100
AcDbCircle
10
22.925000000000004
20
-19.800000000000001
30
0
40
0.67499999999999893
210
0
220
0
230
1
0
CIRCLE
5
10B
100
AcDbEntity
8
CUTOUTS
100
AcDbCircle
10
36.024999999999999
20
-19.800000000000001
30
0
40
0.67499999999999893
210
0
220
0
230
1
0
CIRCLE
5
10C
100
AcDbEntity
8
CUTOUTS
100
AcDbCircle
10
42.574999999999996
20
13.800000000000001
30
0
40
0.67499999999999893
210
0
220
0
230
1
0
CIRCLE
5
10D
100
AcDbEntity
8
CUTOUTS
100
AcDbCircle
10
42.574999999999996
20
19.800000000000001
30
0
40
0.67499999999999893
210
0
220
0
230
1
0
CIRCLE
5
10E
100
AcDbEntity
8
CUTOUTS
100
AcDbCircle
10
42.574999999999996
20
-13.800000000000001
30
0
40
0.67499999999999893
210
0
220
0
230
1
0
CIRCLE
5
10F
100
AcDbEntity
8
CUTOUTS
100
AcDbCircle
10
42.574999999999996
20
-19.800000000000001
30
0
40
0.67499999999999893
210
0
220
0
230
1
0
CIRCLE
5
110
100
AcDbEntity
8
CUTOUTS
100
AcDbCircle
10
22.925000000000004
20
19.800000000000001
30
0
40
0.67499999999999893
210
0
220
0
230
1
0
CIRCLE
5
111
100
AcDbEntity
8
CUTOUTS
100
AcDbCircle
10
22.924999999999997
20
-13.800000000000001
30
0
40
0.67499999999999893
210
0
220
0
230
1
0
CIRCLE
5
112
100
AcDbEntity
8
CUTOUTS
100
AcDbCircle
10
22.924999999999997
20
13.800000000000001
30
0
40
0.67499999999999893
210
0
220
0
230
1
0
CIRCLE
5
113
100
AcDbEntity
8
CUTOUTS
100
AcDbCircle
10
16.375000000000011
20
19.800000000000001
30
0
40
0.67499999999999893
210
0
220
0
230
1
0
CIRCLE
5
114
100
AcDbEntity
8
CUTOUTS
100
AcDbCircle
10
16.375
20
-13.800000000000001
30
0
40
0.67499999999999893
210
0
220
0
230
1
0
CIRCLE
5
115
100
AcDbEntity
8
CUTOUTS
100
AcDbCircle
10
16.375
20
13.800000000000001
30
0
40
0.67499999999999893
210
0
220
0
230
1
0
CIRCLE
5
116
100
AcDbEntity
8
CUTOUTS
100
AcDbCircle
10
-3.2749999999999968
20
19.800000000000001
30
0
40
0.67500000000000004
210
0
220
0
230
1
0
CIRCLE
5
117
100
AcDbEntity
8
CUTOUTS
100
AcDbCircle
10
-3.2750000000000057
20
-13.800000000000001
30
0
40
0.67500000000000004
210
0
220
0
230
1
0
CIRCLE
5
118
100
AcDbEntity
8
CUTOUTS
100
AcDbCircle
10
-3.2750000000000057
20
13.800000000000001
30
0
40
0.67500000000000004
210
0
220
0
230
1
0
CIRCLE
5
119
100
AcDbEntity
8
CUTOUTS
100
AcDbCircle
10
-9.8249999999999993
20
19.800000000000001
30
0
40
0.67500000000000004
210
0
220
0
230
1
0
CIRCLE
5
11A
100
AcDbEntity
8
CUTOUTS
100
AcDbCircle
10
-9.8249999999999993
20
-13.800000000000001
30
0
40
0.67500000000000004
210
0
220
0
230
1
0
CIRCLE
5
11B
100
AcDbEntity
8
CUTOUTS
100
AcDbCircle
10
-9.8249999999999993
20
13.800000000000001
30
0
40
0.67500000000000004
210
0
220
0
230
1
0
CIRCLE
5
11C
100
AcDbEntity
8
CUTOUTS
100
AcDbCircle
10
-29.474999999999998
20
19.800000000000001
30
0
40
0.67499999999999893
210
0
220
0
230
1
0
CIRCLE
5
11D
100
AcDbEntity
8
CUTOUTS
100
AcDbCircle
10
-29.475000000000001
20
-13.800000000000001
30
0
40
0.67499999999999893
210
0
220
0
230
1
0
CIRCLE
5
11E
100
AcDbEntity
8
CUTOUTS
100
AcDbCircle
10
-29.475000000000001
20
13.800000000000001
30
0
40
0.67499999999999893
210
0
220
0
230
1
0
CIRCLE
5
11F
100
AcDbEntity
8
CUTOUTS
100
AcDbCircle
10
-42.575000000000003
20
13.800000000000001
30
0
40
0.67499999999999893
210
0
220
0
230
1
0
CIRCLE
5
120
100
AcDbEntity
8
CUTOUTS
100
AcDbCircle
10
-42.575000000000003
20
19.800000000000001
30
0
40
0.67499999999999893
210
0
220
0
230
1
0
CIRCLE
5
121
100
AcDbEntity
8
CUTOUTS
100
AcDbCircle
10
-42.575000000000003
20
-13.800000000000001
30
0
40
0.67499999999999893
210
0
220
0
230
1
0
CIRCLE
5
122
100
AcDbEntity
8
CUTOUTS
100
AcDbCircle
10
-42.575000000000003
20
-19.800000000000001
30
0
40
0.67499999999999893
210
0
220
0
230
1
0
CIRCLE
5
123
100
AcDbEntity
8
CUTOUTS
100
AcDbCircle
10
-36.024999999999999
20
13.800000000000001
30
0
40
0.67499999999999893
210
0
220
0
230
1
0
CIRCLE
5
124
100
AcDbEntity
8
CUTOUTS
100
AcDbCircle
10
-36.024999999999999
20
-13.800000000000001
30
0
40
0.67499999999999893
210
0
220
0
230
1
0
CIRCLE
5
125
100
AcDbEntity
8
CUTOUTS
100
AcDbCircle
10
-36.024999999999999
20
19.800000000000001
30
0
40
0.67499999999999893
210
0
220
0
230
1
0
CIRCLE
5
126
100
AcDbEntity
8
CUTOUTS
100
AcDbCircle
10
-22.925000000000001
20
13.800000000000001
30
0
40
0.67499999999999893
210
0
220
0
230
1
0
CIRCLE
5
127
100
AcDbEntity
8
CUTOUTS
100
AcDbCircle
10
-22.925000000000001
20
-13.800000000000001
30
0
40
0.67499999999999893
210
0
220
0
230
1
0
CIRCLE
5
128
100
AcDbEntity
8
CUTOUTS
100
AcDbCircle
10
-22.925000000000001
20
19.800000000000001
30
0
40
0.67499999999999893
210
0
220
0
230
1
0
CIRCLE
5
129
100
AcDbEntity
8
CUTOUTS
100
AcDbCircle
10
-16.374999999999996
20
13.800000000000001
30
0
40
0.67499999999999893
210
0
220
0
230
1
0
CIRCLE
5
12A
100
AcDbEntity
8
CUTOUTS
100
AcDbCircle
10
-16.374999999999996
20
-13.800000000000001
30
0
40
0.67499999999999893
210
0
220
0
230
1
0
CIRCLE
5
12B
100
AcDbEntity
8
CUTOUTS
100
AcDbCircle
10
-16.374999999999996
20
19.800000000000001
30
0
40
0.67499999999999893
210
0
220
0
230
1
0
CIRCLE
5
12C
100
AcDbEntity
8
CUTOUTS
100
AcDbCircle
10
3.2749999999999968
20
13.800000000000001
30
0
40
0.67500000000000004
210
0
220
0
230
1
0
CIRCLE
5
12D
100
AcDbEntity
8
CUTOUTS
100
AcDbCircle
10
3.2749999999999968
20
-13.800000000000001
30
0
40
0.67500000000000004
210
0
220
0
230
1
0
CIRCLE
5
12E
100
AcDbEntity
8
CUTOUTS
100
AcDbCircle
10
3.2750000000000057
20
19.800000000000001
30
0
40
0.67500000000000004
210
0
220
0
230
1
0
CIRCLE
5
12F
100
AcDbEntity
8
CUTOUTS
100
AcDbCircle
10
9.8249999999999993
20
13.800000000000001
30
0
40
0.67499999999999893
210
0
220
0
230
1
0
CIRCLE
5
130
100
AcDbEntity
8
CUTOUTS
100
AcDbCircle
10
9.8249999999999993
20
-13.800000000000001
30
0
40
0.67499999999999893
210
0
220
0
230
1
0
CIRCLE
5
131
100
AcDbEntity
8
CUTOUTS
100
AcDbCircle
10
9.8250000000000082
20
19.800000000000001
30
0
40
0.67499999999999893
210
0
220
0
230
1
0
CIRCLE
5
132
100
AcDbEntity
8
CUTOUTS
100
AcDbCircle
10
29.475000000000009
20
13.800000000000001
30
0
40
0.67499999999999893
210
0
220
0
230
1
0
CIRCLE
5
133
100
AcDbEntity
8
CUTOUTS
100
AcDbCircle
10
29.475000000000009
20
-13.800000000000001
30
0
40
0.67499999999999893
210
0
220
0
230
1
0
CIRCLE
5
134
100
AcDbEntity
8
CUTOUTS
100
AcDbCircle
10
29.475000000000009
20
19.800000000000001
30
0
40
0.67499999999999893
210
0
220
0
230
1
0
CIRCLE
5
135
100
AcDbEntity
8
CUTOUTS
100
AcDbCircle
10
36.024999999999999
20
13.800000000000001
30
0
40
0.67499999999999893
210
0
220
0
230
1
0
CIRCLE
5
136
100
AcDbEntity
8
CUTOUTS
100
AcDbCircle
10
36.024999999999999
20
-13.800000000000001
30
0
40
0.67499999999999893
210
0
220
0
230
1
0
CIRCLE
5
137
100
AcDbEntity
8
CUTOUTS
100
AcDbCircle
10
36.024999999999999
20
19.800000000000001
30
0
40
0.67499999999999893
210
0
220
0
230
1
0
LINE
5
138
100
AcDbEntity
8
CUTOUTS
100
AcDbLine
10
-38.975000000000001
20
16.024999999999995
30
0
11
-38.975000000000001
21
-16.024999999999988
31
0
0
LINE
5
139
100
AcDbEntity
8
CUTOUTS
100
AcDbLine
10
-38.975000000000001
20
-16.024999999999988
30
0
11
-39.625
21
-16.024999999999995
31
0
0
LINE
5
13A
100
AcDbEntity
8
CUTOUTS
100
AcDbLine
10
-39.625
20
-16.024999999999995
30
0
11
-39.625
21
16.024999999999995
31
0
0
LINE
5
13B
100
AcDbEntity
8
CUTOUTS
100
AcDbLine
10
-39.625
20
16.024999999999995
30
0
11
-38.975000000000001
21
16.024999999999995
31
0
0
LINE
5
13C
100
AcDbEntity
8
CUTOUTS
100
AcDbLine
10
32.425000000000004
20
16.02499999999997
30
0
11
33.075000000000003
21
16.02499999999997
31
0
0
LINE
5
13D
100
AcDbEntity
8
CUTOUTS
100
AcDbLine
10
33.075000000000003
20
16.02499999999997
30
0
11
33.075000000000003
21
-16.02499999999997
31
0
0
LINE
5
13E
100
AcDbEntity
8
CUTOUTS
100
AcDbLine
10
33.075000000000003
20
-16.02499999999997
30
0
11
32.425000000000004
21
-16.02499999999997
31
0
0
LINE
5
13F
100
AcDbEntity
8
CUTOUTS
100
AcDbLine
10
32.425000000000004
20
-16.02499999999997
30
0
11
32.425000000000004
21
16.02499999999997
31
0
0
LINE
5
140
100
AcDbEntity
8
CUTOUTS
100
AcDbLine
10
38.975000000000001
20
-16.02499999999997
30
0
11
38.975000000000001
21
16.024999999999967
31
0
0
LINE
5
141
100
AcDbEntity
8
CUTOUTS
100
AcDbLine
10
38.975000000000001
20
16.024999999999967
30
0
11
39.624999999999993
21
16.02499999999997
31
0
0
LINE
5
142
100
AcDbEntity
8
CUTOUTS
100
AcDbLine
10
39.624999999999993
20
16.02499999999997
30
0
11
39.624999999999993
21
-16.024999999999977
31
0
0
LINE
5
143
100
AcDbEntity
8
CUTOUTS
100
AcDbLine
10
39.624999999999993
20
-16.024999999999977
30
0
11
38.975000000000001
21
-16.02499999999997
31
0
0
LINE
5
144
100
AcDbEntity
8
CUTOUTS
100
AcDbLine
10
19.974999999999994
20
16.024999999999974
30
0
11
19.974999999999994
21
-16.024999999999974
31
0
0
LINE
5
145
100
AcDbEntity
8
CUTOUTS
100
AcDbLine
10
19.974999999999994
20
-16.024999999999974
30
0
11
19.324999999999992
21
-16.024999999999977
31
0
0
LINE
5
146
100
AcDbEntity
8
CUTOUTS
100
AcDbLine
10
19.324999999999992
20
-16.024999999999977
30
0
11
19.325000000000003
21
16.024999999999977
31
0
0
LINE
5
147
100
AcDbEntity
8
CUTOUTS
100
AcDbLine
10
19.325000000000003
20
16.024999999999977
30
0
11
19.974999999999994
21
16.024999999999974
31
0
0
LINE
5
148
100
AcDbEntity
8
CUTOUTS
100
AcDbLine
10
25.874999999999993
20
16.02499999999997
30
0
11
26.524999999999999
21
16.024999999999977
31
0
0
LINE
5
149
100
AcDbEntity
8
CUTOUTS
100
AcDbLine
10
26.524999999999999
20
16.024999999999977
30
0
11
26.524999999999999
21
-16.02499999999997
31
0
0
LINE
5
14A
100
AcDbEntity
8
CUTOUTS
100
AcDbLine
10
26.524999999999999
20
-16.02499999999997
30
0
11
25.874999999999986
21
-16.024999999999977
31
0
0
LINE
5
14B
100
AcDbEntity
8
CUTOUTS
100
AcDbLine
10
25.874999999999986
20
-16.024999999999977
30
0
11
25.874999999999993
21
16.02499999999997
31
0
0
LINE
5
14C
100
AcDbEntity
8
CUTOUTS
100
AcDbLine
10
6.875
20
16.024999999999977
30
0
11
6.875
21
-16.024999999999977
31
0
0
LINE
5
14D
100
AcDbEntity
8
CUTOUTS
100
AcDbLine
10
6.875
20
-16.024999999999977
30
0
11
6.2249999999999872
21
-16.024999999999977
31
0
0
LINE
5
14E
100
AcDbEntity
8
CUTOUTS
100
AcDbLine
10
6.2249999999999872
20
-16.024999999999977
30
0
11
6.2249999999999961
21
16.024999999999977
31
0
0
LINE
5
14F
100
AcDbEntity
8
CUTOUTS
100
AcDbLine
10
6.2249999999999961
20
16.024999999999977
30
0
11
6.875
21
16.024999999999977
31
0
0
LINE
5
150
100
AcDbEntity
8
CUTOUTS
100
AcDbLine
10
12.774999999999999
20
-16.024999999999977
30
0
11
12.775000000000007
21
16.024999999999977
31
0
0
LINE
5
151
100
AcDbEntity
8
CUTOUTS
100
AcDbLine
10
12.775000000000007
20
16.024999999999977
30
0
11
13.425000000000002
21
16.024999999999977
31
0
0
LINE
5
152
100
AcDbEntity
8
CUTOUTS
100
AcDbLine
10
13.425000000000002
20
16.024999999999977
30
0
11
13.425000000000002
21
-16.024999999999977
31
0
0
LINE
5
153
100
AcDbEntity
8
CUTOUTS
100
AcDbLine
10
13.425000000000002
20
-16.024999999999977
30
0
11
12.774999999999999
21
-16.024999999999977
31
0
0
LINE
5
154
100
AcDbEntity
8
CUTOUTS
100
AcDbLine
10
-6.225000000000005
20
16.024999999999984
30
0
11
-6.225000000000005
21
-16.024999999999984
31
0
0
LINE
5
155
100
AcDbEntity
8
CUTOUTS
100
AcDbLine
10
-6.225000000000005
20
-16.024999999999984
30
0
11
-6.8750000000000089
21
-16.024999999999984
31
0
0
LINE
5
156
100
AcDbEntity
8
CUTOUTS
100
AcDbLine
10
-6.8750000000000089
20
-16.024999999999984
30
0
11
-6.875
21
16.024999999999984
31
0
0
LINE
5
157
100
AcDbEntity
8
CUTOUTS
100
AcDbLine
10
-6.875
20
16.024999999999984
30
0
11
-6.225000000000005
21
16.024999999999984
31
0
0
LINE
5
158
100
AcDbEntity
8
CUTOUTS
100
AcDbLine
10
-0.32499999999999751
20
16.024999999999984
30
0
11
0.32499999999999751
21
16.024999999999984
31
0
0
LINE
5
159
100
AcDbEntity
8
CUTOUTS
100
AcDbLine
10
0.32499999999999751
20
16.024999999999984
30
0
11
0.32499999999999751
21
-16.024999999999984
31
0
0
LINE
5
15A
100
AcDbEntity
8
CUTOUTS
100
AcDbLine
10
0.32499999999999751
20
-16.024999999999984
30
0
11
-0.32500000000000639
21
-16.024999999999984
31
0
0
LINE
5
15B
100
AcDbEntity
8
CUTOUTS
100
AcDbLine
10
-0.32500000000000639
20
-16.024999999999984
30
0
11
-0.32499999999999751
21
16.024999999999984
31
0
0
LINE
5
15C
100
AcDbEntity
8
CUTOUTS
100
AcDbLine
10
-19.324999999999996
20
16.024999999999988
30
0
11
-19.324999999999996
21
-16.024999999999988
31
0
0
LINE
5
15D
100
AcDbEntity
8
CUTOUTS
100
AcDbLine
10
-19.324999999999996
20
-16.024999999999988
30
0
11
-19.975000000000019
21
-16.024999999999991
31
0
0
LINE
5
15E
100
AcDbEntity
8
CUTOUTS
100
AcDbLine
10
-19.975000000000019
20
-16.024999999999991
30
0
11
-19.975000000000001
21
16.024999999999991
31
0
0
LINE
5
15F
100
AcDbEntity
8
CUTOUTS
100
AcDbLine
10
-19.975000000000001
20
16.024999999999991
30
0
11
-19.324999999999996
21
16.024999999999988
31
0
0
LINE
5
160
100
AcDbEntity
8
CUTOUTS
100
AcDbLine
10
-12.774999999999999
20
-16.024999999999988
30
0
11
-13.425000000000011
21
-16.024999999999988
31
0
0
LINE
5
161
100
AcDbEntity
8
CUTOUTS
100
AcDbLine
10
-13.425000000000011
20
-16.024999999999988
30
0
11
-13.425000000000002
21
16.024999999999988
31
0
0
LINE
5
162
100
AcDbEntity
8
CUTOUTS
100
AcDbLine
10
-13.425000000000002
20
16.024999999999988
30
0
11
-12.774999999999999
21
16.024999999999988
31
0
0
LINE
5
163
100
AcDbEntity
8
CUTOUTS
100
AcDbLine
10
-12.774999999999999
20
16.024999999999988
30
0
11
-12.774999999999999
21
-16.024999999999988
31
0
0
LINE
5
164
100
AcDbEntity
8
CUTOUTS
100
AcDbLine
10
-32.424999999999997
20
16.024999999999991
30
0
11
-32.425000000000004
21
-16.024999999999991
31
0
0
LINE
5
165
100
AcDbEntity
8
CUTOUTS
100
AcDbLine
10
-32.425000000000004
20
-16.024999999999991
30
0
11
-33.075000000000017
21
-16.024999999999991
31
0
0
LINE
5
166
100
AcDbEntity
8
CUTOUTS
100
AcDbLine
10
-33.075000000000017
20
-16.024999999999991
30
0
11
-33.075000000000003
21
16.024999999999991
31
0
0
LINE
5
167
100
AcDbEntity
8
CUTOUTS
100
AcDbLine
10
-33.075000000000003
20
16.024999999999991
30
0
11
-32.424999999999997
21
16.024999999999991
31
0
0
LINE
5
168
100
AcDbEntity
8
CUTOUTS
100
AcDbLine
10
-26.525000000000002
20
16.024999999999984
30
0
11
-25.875000000000004
21
16.024999999999988
31
0
0
LINE
5
169
100
AcDbEntity
8
CUTOUTS
100
AcDbLine
10
-25.875000000000004
20
16.024999999999988
30
0
11
-25.875000000000004
21
-16.024999999999984
31
0
0
LINE
5
16A
100
AcDbEntity
8
CUTOUTS
100
AcDbLine
10
-25.875000000000004
20
-16.024999999999984
30
0
11
-26.525000000000016
21
-16.024999999999988
31
0
0
LINE
5
16B
100
AcDbEntity
8
CUTOUTS
100
AcDbLine
10
-26.525000000000016
20
-16.024999999999988
30
0
11
-26.525000000000002
21
16.024999999999984
31
0
0
LINE
5
16C
100
AcDbEntity
8
PERIMETER
100
AcDbLine
10
39.624999999999993
20
17.574999999999985
30
0
11
38.975000000000001
21
17.574999999999985
31
0
0
LINE
5
16D
100
AcDbEntity
8
PERIMETER
100
AcDbLine
10
38.975000000000001
20
17.574999999999985
30
0
11
38.975000000000016
21
29.075000000000006
31
0
0
LINE
5
16E
100
AcDbEntity
8
PERIMETER
100
AcDbLine
10
38.975000000000016
20
29.075000000000006
30
0
11
33.075000000000003
21
29.075000000000006
31
0
0
LINE
5
16F
100
AcDbEntity
8
PERIMETER
100
AcDbLine
10
33.075000000000003
20
29.075000000000006
30
0
11
33.075000000000003
21
17.574999999999985
31
0
0
LINE
5
170
100
AcDbEntity
8
PERIMETER
100
AcDbLine
10
33.075000000000003
20
17.574999999999985
30
0
11
32.425000000000004
21
17.574999999999985
31
0
0
LINE
5
171
100
AcDbEntity
8
PERIMETER
100
AcDbLine
10
32.425000000000004
20
17.574999999999985
30
0
11
32.425000000000004
21
29.075000000000006
31
0
0
LINE
5
172
100
AcDbEntity
8
PERIMETER
100
AcDbLine
10
32.425000000000004
20
29.075000000000006
30
0
11
26.524999999999999
21
29.075000000000006
31
0
0
LINE
5
173
100
AcDbEntity
8
PERIMETER
100
AcDbLine
10
26.524999999999999
20
29.075000000000006
30
0
11
26.524999999999999
21
17.574999999999989
31
0
0
LINE
5
174
100
AcDbEntity
8
PERIMETER
100
AcDbLine
10
26.524999999999999
20
17.574999999999989
30
0
11
25.874999999999993
21
17.574999999999989
31
0
0
LINE
5
175
100
AcDbEntity
8
PERIMETER
100
AcDbLine
10
25.874999999999993
20
17.574999999999989
30
0
11
25.875000000000004
21
29.075000000000006
31
0
0
LINE
5
176
100
AcDbEntity
8
PERIMETER
100
AcDbLine
10
25.875000000000004
20
29.075000000000006
30
0
11
19.974999999999994
21
29.075000000000006
31
0
0
LINE
5
177
100
AcDbEntity
8
PERIMETER
100
AcDbLine
10
19.974999999999994
20
29.075000000000006
30
0
11
19.974999999999994
21
17.574999999999989
31
0
0
LINE
5
178
100
AcDbEntity
8
PERIMETER
100
AcDbLine
10
19.974999999999994
20
17.574999999999989
30
0
11
19.325000000000003
21
17.574999999999989
31
0
0
LINE
5
179
100
AcDbEntity
8
PERIMETER
100
AcDbLine
10
19.325000000000003
20
17.574999999999989
30
0
11
19.32500000000001
21
29.075000000000006
31
0
0
LINE
5
17A
100
AcDbEntity
8
PERIMETER
100
AcDbLine
10
19.32500000000001
20
29.075000000000006
30
0
11
13.425000000000002
21
29.075000000000006
31
0
0
LINE
5
17B
100
AcDbEntity
8
PERIMETER
100
AcDbLine
10
13.425000000000002
20
29.075000000000006
30
0
11
13.425000000000002
21
17.574999999999989
31
0
0
LINE
5
17C
100
AcDbEntity
8
PERIMETER
100
AcDbLine
10
13.425000000000002
20
17.574999999999989
30
0
11
12.775000000000007
21
17.574999999999989
31
0
0
LINE
5
17D
100
AcDbEntity
8
PERIMETER
100
AcDbLine
10
12.775000000000007
20
17.574999999999989
30
0
11
12.775000000000007
21
29.075000000000006
31
0
0
LINE
5
17E
100
AcDbEntity
8
PERIMETER
100
AcDbLine
10
12.775000000000007
20
29.075000000000006
30
0
11
6.875
21
29.075000000000006
31
0
0
LINE
5
17F
100
AcDbEntity
8
PERIMETER
100
AcDbLine
10
6.875
20
29.075000000000006
30
0
11
6.875
21
17.574999999999989
31
0
0
LINE
5
180
100
AcDbEntity
8
PERIMETER
100
AcDbLine
10
6.875
20
17.574999999999989
30
0
11
6.2249999999999961
21
17.574999999999989
31
0
0
LINE
5
181
100
AcDbEntity
8
PERIMETER
100
AcDbLine
10
6.2249999999999961
20
17.574999999999989
30
0
11
6.225000000000005
21
29.075000000000006
31
0
0
LINE
5
182
100
AcDbEntity
8
PERIMETER
100
AcDbLine
10
6.225000000000005
20
29.075000000000006
30
0
11
0.32499999999999751
21
29.075000000000006
31
0
0
LINE
5
183
100
AcDbEntity
8
PERIMETER
100
AcDbLine
10
0.32499999999999751
20
29.075000000000006
30
0
11
0.32499999999999751
21
17.574999999999989
31
0
0
LINE
5
184
100
AcDbEntity
8
PERIMETER
100
AcDbLine
10
0.32499999999999751
20
17.574999999999989
30
0
11
-0.32499999999999751
21
17.574999999999992
31
0
0
LINE
5
185
100
AcDbEntity
8
PERIMETER
100
AcDbLine
10
-0.32499999999999751
20
17.574999999999992
30
0
11
-0.32499999999999751
21
29.075000000000006
31
0
0
LINE
5
186
100
AcDbEntity
8
PERIMETER
100
AcDbLine
10
-0.32499999999999751
20
29.075000000000006
30
0
11
-6.225000000000005
21
29.075000000000006
31
0
0
LINE
5
187
100
AcDbEntity
8
PERIMETER
100
AcDbLine
10
-6.225000000000005
20
29.075000000000006
30
0
11
-6.225000000000005
21
17.574999999999992
31
0
0
LINE
5
188
100
AcDbEntity
8
PERIMETER
100
AcDbLine
10
-6.225000000000005
20
17.574999999999992
30
0
11
-6.875
21
17.574999999999992
31
0
0
LINE
5
189
100
AcDbEntity
8
PERIMETER
100
AcDbLine
10
-6.875
20
17.574999999999992
30
0
11
-6.8749999999999911
21
29.075000000000006
31
0
0
LINE
5
18A
100
AcDbEntity
8
PERIMETER
100
AcDbLine
10
-6.8749999999999911
20
29.075000000000006
30
0
11
-12.774999999999999
21
29.075000000000006
31
0
0
LINE
5
18B
100
AcDbEntity
8
PERIMETER
100
AcDbLine
10
-12.774999999999999
20
29.075000000000006
30
0
11
-12.774999999999999
21
17.574999999999992
31
0
0
LINE
5
18C
100
AcDbEntity
8
PERIMETER
100
AcDbLine
10
-12.774999999999999
20
17.574999999999992
30
0
11
-13.425000000000002
21
17.574999999999992
31
0
0
LINE
5
18D
100
AcDbEntity
8
PERIMETER
100
AcDbLine
10
-13.425000000000002
20
17.574999999999992
30
0
11
-13.424999999999994
21
29.075000000000006
31
0
0
LINE
5
18E
100
AcDbEntity
8
PERIMETER
100
AcDbLine
10
-13.424999999999994
20
29.075000000000006
30
0
11
-19.325000000000003
21
29.075000000000006
31
0
0
LINE
5
18F
100
AcDbEntity
8
PERIMETER
100
AcDbLine
10
-19.325000000000003
20
29.075000000000006
30
0
11
-19.325000000000003
21
17.574999999999996
31
0
0
LINE
5
190
100
AcDbEntity
8
PERIMETER
100
AcDbLine
10
-19.325000000000003
20
17.574999999999996
30
0
11
-19.974999999999994
21
17.574999999999996
31
0
0
LINE
5
191
100
AcDbEntity
8
PERIMETER
100
AcDbLine
10
-19.974999999999994
20
17.574999999999996
30
0
11
-19.974999999999994
21
29.075000000000006
31
0
0
LINE
5
192
100
AcDbEntity
8
PERIMETER
100
AcDbLine
10
-19.974999999999994
20
29.075000000000006
30
0
11
-25.875000000000004
21
29.075000000000006
31
0
0
LINE
5
193
100
AcDbEntity
8
PERIMETER
100
AcDbLine
10
-25.875000000000004
20
29.075000000000006
30
0
11
-25.875
21
17.574999999999996
31
0
0
LINE
5
194
100
AcDbEntity
8
PERIMETER
100
AcDbLine
10
-25.875
20
17.574999999999996
30
0
11
-26.524999999999999
21
17.574999999999996
31
0
0
LINE
5
195
100
AcDbEntity
8
PERIMETER
100
AcDbLine
10
-26.524999999999999
20
17.574999999999996
30
0
11
-26.524999999999995
21
29.075000000000006
31
0
0
LINE
5
196
100
AcDbEntity
8
PERIMETER
100
AcDbLine
10
-26.524999999999995
20
29.075000000000006
30
0
11
-32.424999999999997
21
29.075000000000006
31
0
0
LINE
5
197
100
AcDbEntity
8
PERIMETER
100
AcDbLine
10
-32.424999999999997
20
29.075000000000006
30
0
11
-32.424999999999997
21
17.574999999999996
31
0
0
LINE
5
198
100
AcDbEntity
8
PERIMETER
100
AcDbLine
10
-32.424999999999997
20
17.574999999999996
30
0
11
-33.075000000000003
21
17.574999999999996
31
0
0
LINE
5
199
100
AcDbEntity
8
PERIMETER
100
AcDbLine
10
-33.075000000000003
20
17.574999999999996
30
0
11
-33.074999999999996
21
29.075000000000006
31
0
0
LINE
5
19A
100
AcDbEntity
8
PERIMETER
100
AcDbLine
10
-33.074999999999996
20
29.075000000000006
30
0
11
-38.975000000000001
21
29.075000000000006
31
0
0
LINE
5
19B
100
AcDbEntity
8
PERIMETER
100
AcDbLine
10
-38.975000000000001
20
29.075000000000006
30
0
11
-38.975000000000001
21
17.574999999999996
31
0
0
LINE
5
19C
100
AcDbEntity
8
PERIMETER
100
AcDbLine
10
-38.975000000000001
20
17.574999999999996
30
0
11
-39.625
21
17.574999999999996
31
0
0
LINE
5
19D
100
AcDbEntity
8
PERIMETER
100
AcDbLine
10
-39.625
20
17.574999999999996
30
0
11
-39.624999999999993
21
29.075000000000006
31
0
0
LINE
5
19E
100
AcDbEntity
8
PERIMETER
100
AcDbLine
10
-39.624999999999993
20
29.075000000000006
30
0
11
-45.525000000000006
21
29.075000000000006
31
0
0
LINE
5
19F
100
AcDbEntity
8
PERIMETER
100
AcDbLine
10
-45.525000000000006
20
29.075000000000006
30
0
11
-45.525000000000006
21
-29.075000000000006
31
0
0
LINE
5
1A0
100
AcDbEntity
8
PERIMETER
100
AcDbLine
10
-45.525000000000006
20
-29.075000000000006
30
0
11
-39.625000000000021
21
-29.075000000000006
31
0
0
LINE
5
1A1
100
AcDbEntity
8
PERIMETER
100
AcDbLine
10
-39.625000000000021
20
-29.075000000000006
30
0
11
-39.625
21
-17.574999999999996
31
0
0
LINE
5
1A2
100
AcDbEntity
8
PERIMETER
100
AcDbLine
10
-39.625
20
-17.574999999999996
30
0
11
-38.975000000000001
21
-17.574999999999996
31
0
0
LINE
5
1A3
100
AcDbEntity
8
PERIMETER
100
AcDbLine
10
-38.975000000000001
20
-17.574999999999996
30
0
11
-38.975000000000001
21
-29.075000000000006
31
0
0
LINE
5
1A4
100
AcDbEntity
8
PERIMETER
100
AcDbLine
10
-38.975000000000001
20
-29.075000000000006
30
0
11
-33.075000000000017
21
-29.075000000000006
31
0
0
LINE
5
1A5
100
AcDbEntity
8
PERIMETER
100
AcDbLine
10
-33.075000000000017
20
-29.075000000000006
30
0
11
-33.075000000000017
21
-17.574999999999996
31
0
0
LINE
5
1A6
100
AcDbEntity
8
PERIMETER
100
AcDbLine
10
-33.075000000000017
20
-17.574999999999996
30
0
11
-32.425000000000004
21
-17.574999999999996
31
0
0
LINE
5
1A7
100
AcDbEntity
8
PERIMETER
100
AcDbLine
10
-32.425000000000004
20
-17.574999999999996
30
0
11
-32.425000000000004
21
-29.075000000000006
31
0
0
LINE
5
1A8
100
AcDbEntity
8
PERIMETER
100
AcDbLine
10
-32.425000000000004
20
-29.075000000000006
30
0
11
-26.525000000000016
21
-29.075000000000006
31
0
0
LINE
5
1A9
100
AcDbEntity
8
PERIMETER
100
AcDbLine
10
-26.525000000000016
20
-29.075000000000006
30
0
11
-26.525000000000013
21
-17.574999999999996
31
0
0
LINE
5
1AA
100
AcDbEntity
8
PERIMETER
100
AcDbLine
10
-26.525000000000013
20
-17.574999999999996
30
0
11
-25.875000000000004
21
-17.574999999999996
31
0
0
LINE
5
1AB
100
AcDbEntity
8
PERIMETER
100
AcDbLine
10
-25.875000000000004
20
-17.574999999999996
30
0
11
-25.875000000000007
21
-29.075000000000006
31
0
0
LINE
5
1AC
100
AcDbEntity
8
PERIMETER
100
AcDbLine
10
-25.875000000000007
20
-29.075000000000006
30
0
11
-19.975000000000023
21
-29.075000000000006
31
0
0
LINE
5
1AD
100
AcDbEntity
8
PERIMETER
100
AcDbLine
10
-19.975000000000023
20
-29.075000000000006
30
0
11
-19.975000000000019
21
-17.574999999999996
31
0
0
LINE
5
1AE
100
AcDbEntity
8
PERIMETER
100
AcDbLine
10
-19.975000000000019
20
-17.574999999999996
30
0
11
-19.325000000000003
21
-17.574999999999996
31
0
0
LINE
5
1AF
100
AcDbEntity
8
PERIMETER
100
AcDbLine
10
-19.325000000000003
20
-17.574999999999996
30
0
11
-19.325000000000006
21
-29.075000000000006
31
0
0
LINE
5
1B0
100
AcDbEntity
8
PERIMETER
100
AcDbLine
10
-19.325000000000006
20
-29.075000000000006
30
0
11
-13.42500000000002
21
-29.075000000000006
31
0
0
LINE
5
1B1
100
AcDbEntity
8
PERIMETER
100
AcDbLine
10
-13.42500000000002
20
-29.075000000000006
30
0
11
-13.425000000000015
21
-17.574999999999992
31
0
0
LINE
5
1B2
100
AcDbEntity
8
PERIMETER
100
AcDbLine
10
-13.425000000000015
20
-17.574999999999992
30
0
11
-12.774999999999999
21
-17.574999999999992
31
0
0
LINE
5
1B3
100
AcDbEntity
8
PERIMETER
100
AcDbLine
10
-12.774999999999999
20
-17.574999999999992
30
0
11
-12.775000000000007
21
-29.075000000000006
31
0
0
LINE
5
1B4
100
AcDbEntity
8
PERIMETER
100
AcDbLine
10
-12.775000000000007
20
-29.075000000000006
30
0
11
-6.8750000000000178
21
-29.075000000000006
31
0
0
LINE
5
1B5
100
AcDbEntity
8
PERIMETER
100
AcDbLine
10
-6.8750000000000178
20
-29.075000000000006
30
0
11
-6.8750000000000089
21
-17.574999999999992
31
0
0
LINE
5
1B6
100
AcDbEntity
8
PERIMETER
100
AcDbLine
10
-6.8750000000000089
20
-17.574999999999992
30
0
11
-6.225000000000005
21
-17.574999999999992
31
0
0
LINE
5
1B7
100
AcDbEntity
8
PERIMETER
100
AcDbLine
10
-6.225000000000005
20
-17.574999999999992
30
0
11
-6.225000000000005
21
-29.075000000000006
31
0
0
LINE
5
1B8
100
AcDbEntity
8
PERIMETER
100
AcDbLine
10
-6.225000000000005
20
-29.075000000000006
30
0
11
-0.32500000000001528
21
-29.075000000000006
31
0
0
LINE
5
1B9
100
AcDbEntity
8
PERIMETER
100
AcDbLine
10
-0.32500000000001528
20
-29.075000000000006
30
0
11
-0.32500000000000639
21
-17.574999999999992
31
0
0
LINE
5
1BA
100
AcDbEntity
8
PERIMETER
100
AcDbLine
10
-0.32500000000000639
20
-17.574999999999992
30
0
11
0.32499999999999751
21
-17.574999999999989
31
0
0
LINE
5
1BB
100
AcDbEntity
8
PERIMETER
100
AcDbLine
10
0.32499999999999751
20
-17.574999999999989
30
0
11
0.32499999999999751
21
-29.075000000000006
31
0
0
LINE
5
1BC
100
AcDbEntity
8
PERIMETER
100
AcDbLine
10
0.32499999999999751
20
-29.075000000000006
30
0
11
6.2249999999999783
21
-29.075000000000006
31
0
0
LINE
5
1BD
100
AcDbEntity
8
PERIMETER
100
AcDbLine
10
6.2249999999999783
20
-29.075000000000006
30
0
11
6.2249999999999872
21
-17.574999999999989
31
0
0
LINE
5
1BE
100
AcDbEntity
8
PERIMETER
100
AcDbLine
10
6.2249999999999872
20
-17.574999999999989
30
0
11
6.875
21
-17.574999999999989
31
0
0
LINE
5
1BF
100
AcDbEntity
8
PERIMETER
100
AcDbLine
10
6.875
20
-17.574999999999989
30
0
11
6.875
21
-29.075000000000006
31
0
0
LINE
5
1C0
100
AcDbEntity
8
PERIMETER
100
AcDbLine
10
6.875
20
-29.075000000000006
30
0
11
12.77499999999999
21
-29.075000000000006
31
0
0
LINE
5
1C1
100
AcDbEntity
8
PERIMETER
100
AcDbLine
10
12.77499999999999
20
-29.075000000000006
30
0
11
12.774999999999999
21
-17.574999999999989
31
0
0
LINE
5
1C2
100
AcDbEntity
8
PERIMETER
100
AcDbLine
10
12.774999999999999
20
-17.574999999999989
30
0
11
13.425000000000002
21
-17.574999999999989
31
0
0
LINE
5
1C3
100
AcDbEntity
8
PERIMETER
100
AcDbLine
10
13.425000000000002
20
-17.574999999999989
30
0
11
13.425000000000002
21
-29.075000000000006
31
0
0
LINE
5
1C4
100
AcDbEntity
8
PERIMETER
100
AcDbLine
10
13.425000000000002
20
-29.075000000000006
30
0
11
19.324999999999982
21
-29.075000000000006
31
0
0
LINE
5
1C5
100
AcDbEntity
8
PERIMETER
100
AcDbLine
10
19.324999999999982
20
-29.075000000000006
30
0
11
19.324999999999992
21
-17.574999999999989
31
0
0
LINE
5
1C6
100
AcDbEntity
8
PERIMETER
100
AcDbLine
10
19.324999999999992
20
-17.574999999999989
30
0
11
19.974999999999994
21
-17.574999999999989
31
0
0
LINE
5
1C7
100
AcDbEntity
8
PERIMETER
100
AcDbLine
10
19.974999999999994
20
-17.574999999999989
30
0
11
19.974999999999994
21
-29.075000000000006
31
0
0
LINE
5
1C8
100
AcDbEntity
8
PERIMETER
100
AcDbLine
10
19.974999999999994
20
-29.075000000000006
30
0
11
25.874999999999979
21
-29.075000000000006
31
0
0
LINE
5
1C9
100
AcDbEntity
8
PERIMETER
100
AcDbLine
10
25.874999999999979
20
-29.075000000000006
30
0
11
25.874999999999986
21
-17.574999999999989
31
0
0
LINE
5
1CA
100
AcDbEntity
8
PERIMETER
100
AcDbLine
10
25.874999999999986
20
-17.574999999999989
30
0
11
26.524999999999999
21
-17.574999999999989
31
0
0
LINE
5
1CB
100
AcDbEntity
8
PERIMETER
100
AcDbLine
10
26.524999999999999
20
-17.574999999999989
30
0
11
26.524999999999999
21
-29.075000000000006
31
0
0
LINE
5
1CC
100
AcDbEntity
8
PERIMETER
100
AcDbLine
10
26.524999999999999
20
-29.075000000000006
30
0
11
32.42499999999999
21
-29.075000000000006
31
0
0
LINE
5
1CD
100
AcDbEntity
8
PERIMETER
100
AcDbLine
10
32.42499999999999
20
-29.075000000000006
30
0
11
32.425000000000004
21
-17.574999999999985
31
0
0
LINE
5
1CE
100
AcDbEntity
8
PERIMETER
100
AcDbLine
10
32.425000000000004
20
-17.574999999999985
30
0
11
33.075000000000003
21
-17.574999999999985
31
0
0
LINE
5
1CF
100
AcDbEntity
8
PERIMETER
100
AcDbLine
10
33.075000000000003
20
-17.574999999999985
30
0
11
33.075000000000003
21
-29.075000000000006
31
0
0
LINE
5
1D0
100
AcDbEntity
8
PERIMETER
100
AcDbLine
10
33.075000000000003
20
-29.075000000000006
30
0
11
38.97499999999998
21
-29.075000000000006
31
0
0
LINE
5
1D1
100
AcDbEntity
8
PERIMETER
100
AcDbLine
10
38.97499999999998
20
-29.075000000000006
30
0
11
38.975000000000001
21
-17.574999999999985
31
0
0
LINE
5
1D2
100
AcDbEntity
8
PERIMETER
100
AcDbLine
10
38.975000000000001
20
-17.574999999999985
30
0
11
39.624999999999993
21
-17.574999999999982
31
0
0
LINE
5
1D3
100
AcDbEntity
8
PERIMETER
100
AcDbLine
10
39.624999999999993
20
-17.574999999999982
30
0
11
39.624999999999993
21
-29.075000000000006
31
0
0
LINE
5
1D4
100
AcDbEntity
8
PERIMETER
100
AcDbLine
10
39.624999999999993
20
-29.075000000000006
30
0
11
45.524999999999977
21
-29.075000000000006
31
0
0
LINE
5
1D5
100
AcDbEntity
8
PERIMETER
100
AcDbLine
10
45.524999999999977
20
-29.075000000000006
30
0
11
45.525000000000013
21
29.075000000000006
31
0
0
LINE
5
1D6
100
AcDbEntity
8
PERIMETER
100
AcDbLine
10
45.525000000000013
20
29.075000000000006
30
0
11
39.624999999999993
21
29.075000000000006
31
0
0
LINE
5
1D7
100
AcDbEntity
8
PERIMETER
100
AcDbLine
10
39.624999999999993
20
29.075000000000006
30
0
11
39.624999999999993
21
17.574999999999985
31
0
0
ENDSEC
0
SECTION
2
OBJECTS
0
DICTIONARY
5
C
100
AcDbDictionary
3
ACAD_GROUP
350
D
3
ACAD_MLINESTYLE
350
17
0
DICTIONARY
5
D
100
AcDbDictionary
0
DICTIONARY
5
1A
330
C
100
AcDbDictionary
0
DICTIONARY
5
17
100
AcDbDictionary
0
ENDSEC
0
EOF
